<svg id="icon-dribbble" xmlns="http://www.w3.org/2000/svg" width="32px" height="32px">
  <path d="M8.455 30.248c-5.207-2.783-8.056-7.281-8.417-13.288-0.364-6.061 1.87-10.767 6.737-14.195 4.633-3.263 11.513-3.685 16.513-1.013 5.207 2.783 8.056 7.281 8.417 13.288 0.364 6.061-1.87 10.767-6.737 14.195-4.633 3.263-11.513 3.685-16.513 1.013zM20.708 28.599c0.447-0.447-1.662-8.904-2.405-9.648-1.137-1.137-10.628 5.654-10.628 7.604 0 1.285 5.957 3.102 9.211 2.81 1.846-0.166 3.566-0.51 3.822-0.766zM26.996 23.436c2.552-3.767 2.298-5.192-1.021-5.731-4.612-0.748-4.978-0.276-3.549 4.578 0.689 2.339 1.603 4.138 2.033 3.999s1.571-1.42 2.537-2.846zM9.283 20.716c2.047-1.915 4.646-3.713 5.775-3.997 2.511-0.63 2.162-2.337-0.436-2.135-8.863 0.689-12.412 1.344-12.412 2.293 0 1.36 2.387 7.32 2.931 7.32 0.231 0 2.095-1.567 4.142-3.481zM29.534 14.845c0-1.372-2.525-7.113-3.025-6.879-2.048 0.956-7.070 5.094-7.094 5.845-0.018 0.558 1.463 1.051 3.679 1.225 2.040 0.161 4.323 0.356 5.074 0.433s1.366-0.203 1.366-0.624zM12.164 12.007c1.395-0.261 2.537-0.636 2.537-0.832s-1.086-1.936-2.413-3.865c-2.265-3.292-2.516-3.439-4.099-2.403-2.039 1.335-5.199 5.818-5.199 7.374 0 1.134 1.956 1.075 9.173-0.275zM20.847 9.025c1.191-0.616 2.62-1.668 3.177-2.339 0.874-1.053 0.547-1.43-2.399-2.767-3.171-1.439-8.485-2.151-8.485-1.137 0 0.655 4.692 7.362 5.151 7.362 0.215 0 1.366-0.504 2.557-1.12z"></path>
</svg>