<svg id="icon-twitter" xmlns="http://www.w3.org/2000/svg" width="39px" height="32px">
  <path d="M3.387 30.891c-4.246-1.563-4.538-2.806-0.658-2.806 3.064 0 7.060-1.478 7.060-2.611 0-0.381-0.493-0.693-1.095-0.693-1.652 0-5.335-4.273-4.072-4.724 0.668-0.239 0.162-1.234-1.446-2.841-2.66-2.66-3.289-5.651-1.188-5.651 1.164 0 1.164-0.174 0-1.836-1.284-1.833-1.756-6.505-0.758-7.503 0.29-0.29 1.641 0.409 3.001 1.554 3.301 2.778 7.761 4.959 11.546 5.645 3.038 0.551 3.098 0.513 3.098-2.017 0-3.822 3.879-7.408 8.013-7.408 1.751 0 3.982 0.559 4.957 1.242 1.344 0.942 2.302 1.042 3.955 0.413 3.025-1.15 3.109-1.090 1.626 1.172-1.269 1.937-1.25 1.987 0.6 1.534 1.868-0.457 1.859-0.411-0.36 1.967-1.249 1.339-2.272 3.37-2.272 4.514 0 6.461-6.152 15.698-12.698 19.066-4.486 2.308-14.348 2.81-19.311 0.983z"></path>
</svg>