<?xml version="1.0" standalone="no"?>
<!DOCTYPE svg PUBLIC "-//W3C//DTD SVG 1.1//EN" "http://www.w3.org/Graphics/SVG/1.1/DTD/svg11.dtd" >
<svg xmlns="http://www.w3.org/2000/svg" xmlns:xlink="http://www.w3.org/1999/xlink" version="1.1">
<metadata>
Created by FontForge 20161003 at Thu Feb 28 11:20:32 2019
 By www-data
(c) 2000, 2004 Adobe Systems Incorporated. All Rights Reserved. U.S. Patent D454,582.
</metadata>
<defs>
<font id="MyriadProLightSemiExtended_31641" horiz-adv-x="300" >
  <font-face 
    font-family="MyriadProLightSemiExtended_31641"
    font-weight="300"
    font-stretch="semi-expanded"
    units-per-em="1000"
    panose-1="2 11 4 5 3 4 3 2 2 4"
    ascent="750"
    descent="-250"
    x-height="480"
    cap-height="674"
    bbox="-160 -250 1100 940"
    underline-thickness="50"
    underline-position="-150"
    unicode-range="U+0020-FB04"
  />
<missing-glyph horiz-adv-x="500" 
d="M0 0v700h500v-700h-500zM250 395l170 255h-340zM280 350l170 -255v510zM80 50h340l-170 255zM50 605v-510l170 255z" />
    <glyph glyph-name="f_f_j" unicode="ffj" horiz-adv-x="823" 
d="M706 692l-24 -38q-42 33 -105 33q-137 0 -137 -179v-28h295v-445q0 -68 -11.5 -114t-43.5 -80q-26 -27 -66.5 -40t-73.5 -13l-5 40q75 2 111 39q22 24 31 65t9 139v370h-246v-441h-49v441h-254v-441h-49v441h-73v39h73v22q0 110 60 170q44 44 115 44q48 0 93 -27l-20 -38
q-38 24 -78 24q-49 0 -77 -30q-44 -44 -44 -147v-18h254v29q0 101 49 160t146 59q32 0 66.5 -10.5t53.5 -25.5z" />
    <glyph glyph-name="f_j" unicode="fj" horiz-adv-x="520" 
d="M137 0h-49v441h-73v39h73v29q0 101 49 160t146 59q32 0 66.5 -10.5t53.5 -25.5l-24 -38q-42 33 -105 33q-137 0 -137 -179v-28h295v-445q0 -68 -11.5 -114t-43.5 -80q-26 -27 -66.5 -40t-73.5 -13l-5 40q75 2 111 39q22 24 31 65t9 139v370h-246v-441z" />
    <glyph glyph-name="f_f" unicode="ff" horiz-adv-x="588" 
d="M440 0h-49v441h-254v-441h-49v441h-73v39h73v15q0 122 57 179q42 42 112 42q47 0 80 -23l-19 -37q-28 19 -66 19q-115 0 -115 -174v-21h254v23q0 127 58 182q46 43 114 43q49 0 79 -18l-16 -38q-28 15 -67 15q-35 0 -59.5 -14.5t-37 -41.5t-17.5 -57t-5 -70v-24h141v-39
h-141v-441z" />
    <glyph glyph-name="f_i" unicode="fi" horiz-adv-x="520" 
d="M137 0h-49v441h-73v39h73v29q0 101 49 160t146 59q32 0 66.5 -10.5t53.5 -25.5l-24 -38q-42 33 -105 33q-137 0 -137 -179v-28h295v-480h-49v441h-246v-441z" />
    <glyph glyph-name="f_l" unicode="fl" horiz-adv-x="520" 
d="M137 0h-49v441h-73v39h73v18q0 119 69 182q54 48 148 48q75 0 127 -27v-701h-49v671q-32 16 -88 16q-84 0 -121 -50.5t-37 -130.5v-26h141v-39h-141v-441z" />
    <glyph glyph-name="f_f_i" unicode="ffi" horiz-adv-x="823" 
d="M706 692l-24 -38q-42 33 -105 33q-137 0 -137 -179v-28h295v-480h-49v441h-246v-441h-49v441h-254v-441h-49v441h-73v39h73v22q0 110 60 170q44 44 115 44q48 0 93 -27l-20 -38q-38 24 -78 24q-49 0 -77 -30q-44 -44 -44 -147v-18h254v29q0 101 49 160t146 59
q32 0 66.5 -10.5t53.5 -25.5z" />
    <glyph glyph-name="f_f_l" unicode="ffl" horiz-adv-x="823" 
d="M355 693l-20 -38q-35 20 -75 20q-49 0 -79 -30q-44 -44 -44 -145v-20h254v18q0 119 69 182q54 48 148 48q75 0 127 -27v-701h-49v671q-32 16 -88 16q-84 0 -121 -50.5t-37 -130.5v-26h141v-39h-141v-441h-49v441h-254v-441h-49v441h-73v39h73v10q0 124 58 182
q44 44 118 44q50 0 91 -23z" />
    <glyph glyph-name=".notdef" horiz-adv-x="500" 
d="M0 0v700h500v-700h-500zM250 395l170 255h-340zM280 350l170 -255v510zM80 50h340l-170 255zM50 605v-510l170 255z" />
    <glyph glyph-name=".null" horiz-adv-x="0" 
 />
    <glyph glyph-name="nonmarkingreturn" horiz-adv-x="333" 
 />
    <glyph glyph-name="space" unicode=" " horiz-adv-x="240" 
 />
    <glyph glyph-name="exclam" unicode="!" horiz-adv-x="215" 
d="M127 180h-41l-10 494h61zM107 -12h-1q-18 0 -30 14t-11 32q0 20 12 33.5t31 13.5t30.5 -13.5t11.5 -33.5q0 -19 -12 -32.5t-31 -13.5z" />
    <glyph glyph-name="quotedbl" unicode="&#x22;" horiz-adv-x="302" 
d="M60 695h60l-14 -222h-32zM182 695h60l-14 -222h-32z" />
    <glyph glyph-name="numbersign" unicode="#" horiz-adv-x="500" 
d="M179 247h122l20 161h-122zM148 0h-43l26 208h-91v39h96l20 161h-95v39h100l26 203h42l-25 -203h122l26 203h42l-25 -203h91v-39h-96l-20 -161h96v-39h-101l-26 -208h-43l26 208h-122z" />
    <glyph glyph-name="dollar" unicode="$" horiz-adv-x="530" 
d="M273 -85h-42v105q-94 0 -152 47l22 38q58 -46 139 -46q63 0 103 34t40 85q0 47 -31.5 79t-93.5 57q-89 36 -128 74.5t-39 96.5q0 59 41 100.5t109 50.5v107h42v-107q72 -2 128 -39l-22 -38q-56 38 -125 38q-64 0 -95.5 -32t-31.5 -74q0 -43 30 -71t104 -59
q80 -34 119.5 -75t39.5 -105q0 -55 -40.5 -102.5t-116.5 -58.5v-105z" />
    <glyph glyph-name="percent" unicode="%" horiz-adv-x="770" 
d="M180 662h1q64 0 102 -49t38 -144q0 -100 -41.5 -153.5t-106.5 -53.5q-60 0 -101 49.5t-42 145.5q0 99 44.5 152t105.5 53zM176 628h-1q-45 0 -73.5 -45t-28.5 -121q-2 -76 26.5 -121t75.5 -45q51 0 77 44.5t26 124.5q0 163 -102 163zM203 -12h-41l403 674h41zM599 395h1
q64 0 102 -49t38 -144q0 -100 -41.5 -153.5t-106.5 -53.5q-60 0 -101 49.5t-42 145.5q0 99 44.5 152t105.5 53zM595 361h-1q-45 0 -73.5 -45t-28.5 -121q-2 -76 26.5 -121t75.5 -45q51 0 77 44.5t26 124.5q0 163 -102 163z" />
    <glyph glyph-name="ampersand" unicode="&#x26;" horiz-adv-x="590" 
d="M599 0h-63q-9 8 -35.5 34t-45.5 43q-101 -89 -224 -89q-84 0 -142.5 53.5t-58.5 135.5q0 127 144 199v3q-62 78 -62 145q0 65 44.5 113.5t118.5 48.5q60 0 99 -38t39 -97q0 -56 -39 -99.5t-132 -85.5v-3q95 -106 213 -227q52 66 77 217h46q-32 -176 -95 -243
q78 -76 116 -110zM243 27h1q107 0 183 78q-90 87 -230 242q-119 -59 -119 -163q0 -70 47.5 -113.5t117.5 -43.5zM268 648h-1q-51 0 -80 -35t-29 -84q0 -60 59 -136q75 36 112.5 70t37.5 83q0 41 -25 71.5t-74 30.5z" />
    <glyph glyph-name="quotesingle" unicode="'" horiz-adv-x="180" 
d="M60 695h60l-14 -222h-32z" />
    <glyph glyph-name="parenleft" unicode="(" horiz-adv-x="270" 
d="M218 698h47q-75 -87 -114 -185.5t-39 -229.5q0 -125 39.5 -220t113.5 -187h-47q-153 179 -153 408q0 134 42 232t111 182z" />
    <glyph glyph-name="parenright" unicode=")" horiz-adv-x="270" 
d="M52 -124h-47q74 89 113.5 186.5t39.5 225.5t-39 224t-114 186h47q153 -179 153 -411q0 -134 -41.5 -230.5t-111.5 -180.5z" />
    <glyph glyph-name="asterisk" unicode="*" horiz-adv-x="400" 
d="M265 686l46 -26l-92 -123v-2l151 12v-49l-150 14v-3l91 -119l-49 -27l-63 134h-2l-71 -134l-40 27l91 120v3l-147 -15v49l146 -11v2l-90 121l47 27l66 -133h2z" />
    <glyph glyph-name="plus" unicode="+" horiz-adv-x="596" 
d="M276 532h44v-245h236v-40h-236v-247h-44v247h-236v40h236v245z" />
    <glyph glyph-name="comma" unicode="," horiz-adv-x="175" 
d="M66 -121l-39 -5q12 32 28.5 99t23.5 113l64 10q-13 -53 -38.5 -123.5t-38.5 -93.5z" />
    <glyph glyph-name="hyphen" unicode="-" 
d="M30 304h240v-43h-240v43z" />
    <glyph glyph-name="period" unicode="." horiz-adv-x="175" 
d="M97 -12h-1q-18 0 -30 14t-11 32q0 20 12 33.5t31 13.5t30.5 -13.5t11.5 -33.5q0 -19 -12 -32.5t-31 -13.5z" />
    <glyph glyph-name="slash" unicode="/" horiz-adv-x="374" 
d="M24 -40h-48l357 726h51z" />
    <glyph glyph-name="zero" unicode="0" horiz-adv-x="530" 
d="M273 662q99 0 157.5 -82.5t58.5 -242.5q0 -171 -61 -260t-171 -89q-89 0 -151 84.5t-65 248.5q0 166 68 253.5t164 87.5zM265 622q-75 0 -124 -78.5t-49 -223.5q0 -138 47.5 -215t123.5 -77q87 0 131 80.5t44 221.5q0 137 -42.5 214.5t-130.5 77.5z" />
    <glyph glyph-name="one" unicode="1" horiz-adv-x="530" 
d="M250 0v602h-2l-106 -61l-12 39l121 70h47v-650h-48z" />
    <glyph glyph-name="two" unicode="2" horiz-adv-x="530" 
d="M469 0h-420v31l64 59q173 160 230 232t57 145q0 64 -35.5 108t-120.5 44q-82 0 -153 -62l-20 33q80 72 183 72q53 0 93.5 -18.5t61.5 -47.5t31 -58t10 -58q0 -38 -13 -75.5t-31.5 -69t-59.5 -76t-77.5 -79t-103.5 -96.5l-46 -41v-2h350v-41z" />
    <glyph glyph-name="three" unicode="3" horiz-adv-x="530" 
d="M50 36l20 39q24 -17 67 -31t89 -14q54 0 92.5 16.5t56 42.5t24 48t6.5 43q-1 53 -33.5 89t-77 49.5t-98.5 13.5h-49v41h52q69 0 123 33.5t54 96.5q0 48 -32.5 82.5t-104.5 34.5q-78 0 -141 -49l-20 36q28 22 74 38.5t92 16.5q94 0 138.5 -46t44.5 -107q0 -51 -33.5 -92
t-94.5 -62v-2q69 -13 113 -59.5t44 -111.5q0 -78 -60.5 -136t-176.5 -58q-52 0 -97.5 14.5t-71.5 33.5z" />
    <glyph glyph-name="four" unicode="4" horiz-adv-x="530" 
d="M396 0h-47v190h-343v33l352 427h38v-419h108v-41h-108v-190zM65 231h284v279q0 50 2 73l-3 1q-20 -32 -47 -64l-236 -287v-2z" />
    <glyph glyph-name="five" unicode="5" horiz-adv-x="530" 
d="M437 650v-43h-267l-31 -209q43 5 70 5q65 0 120 -21q48 -18 82.5 -65t34.5 -111q0 -96 -67.5 -157t-164.5 -61q-102 0 -166 46l20 39q63 -43 150 -43q77 0 128.5 48.5t50.5 117.5q-1 72 -50.5 118.5t-150.5 46.5q-53 0 -105 -8l41 297h305z" />
    <glyph glyph-name="six" unicode="6" horiz-adv-x="530" 
d="M421 662l1 -45q-46 0 -81 -7q-107 -20 -174.5 -98t-76.5 -181h2q26 41 75 69.5t111 28.5q98 0 155.5 -60t57.5 -152q0 -89 -59.5 -159t-162.5 -70q-97 0 -164 71t-67 205q0 97 33 173.5t86 124.5q77 71 190 92q37 8 74 8zM272 29h1q75 0 121 54t46 132q0 81 -48.5 126.5
t-125.5 45.5q-50 0 -95 -27t-70 -69q-13 -24 -13 -42q0 -95 48 -157.5t136 -62.5z" />
    <glyph glyph-name="seven" unicode="7" horiz-adv-x="530" 
d="M71 650h410v-39l-319 -611h-48l316 607v2h-359v41z" />
    <glyph glyph-name="eight" unicode="8" horiz-adv-x="530" 
d="M187 342v4q-117 44 -117 146q0 73 57.5 121.5t145.5 48.5q84 0 136.5 -45t52.5 -113q0 -107 -123 -156v-4q148 -48 148 -168q0 -85 -66 -136.5t-156 -51.5q-93 0 -157.5 48t-64.5 129q0 122 144 177zM264 28q79 0 126 40.5t47 98.5q0 68 -46 104t-143 57
q-75 -16 -114.5 -57t-39.5 -97q-4 -59 43 -102.5t127 -43.5zM268 623q-70 0 -110 -36.5t-40 -87.5q-1 -57 39.5 -90t121.5 -49q61 16 97 51.5t36 89.5q0 47 -35.5 84.5t-108.5 37.5z" />
    <glyph glyph-name="nine" unicode="9" horiz-adv-x="530" 
d="M113 -12v45q29 -3 84 5q92 12 157 82q71 76 89 202l-3 -1q-71 -91 -186 -91q-95 0 -148.5 59.5t-53.5 139.5q0 93 63.5 163t165.5 70q91 0 151 -70.5t60 -205.5q0 -109 -35 -187.5t-89 -125.5q-68 -60 -155 -76q-60 -11 -100 -9zM270 621h-1q-75 0 -121.5 -56t-46.5 -134
q0 -68 45 -113.5t115 -45.5q57 0 103 24.5t70 63.5q9 16 9 30q0 102 -43.5 166.5t-129.5 64.5z" />
    <glyph glyph-name="colon" unicode=":" horiz-adv-x="175" 
d="M97 353h-1q-18 0 -30 14t-11 32q0 20 12 33.5t31 13.5t30.5 -13.5t11.5 -33.5q0 -19 -12 -32.5t-31 -13.5zM97 -12h-1q-18 0 -30 14t-11 32q0 20 12 33.5t31 13.5t30.5 -13.5t11.5 -33.5q0 -19 -12 -32.5t-31 -13.5z" />
    <glyph glyph-name="semicolon" unicode=";" horiz-adv-x="175" 
d="M66 -121l-39 -5q12 32 28.5 99t23.5 113l64 10q-13 -53 -38.5 -123.5t-38.5 -93.5zM104 353h-1q-18 0 -30 14t-11 32q0 20 12 33.5t31 13.5t30.5 -13.5t11.5 -33.5q0 -19 -12 -32.5t-31 -13.5z" />
    <glyph glyph-name="less" unicode="&#x3c;" horiz-adv-x="596" 
d="M71 249v34l454 249v-47l-407 -218v-2l407 -218v-47z" />
    <glyph glyph-name="equal" unicode="=" horiz-adv-x="596" 
d="M556 345h-516v40h516v-40zM556 155h-516v40h516v-40z" />
    <glyph glyph-name="greater" unicode="&#x3e;" horiz-adv-x="596" 
d="M525 283v-34l-454 -249v47l407 218v2l-407 218v47z" />
    <glyph glyph-name="question" unicode="?" horiz-adv-x="410" 
d="M198 177h-45l-4 31q-11 84 74 176q80 86 80 152q0 47 -30 76.5t-88 29.5q-69 0 -113 -36l-20 35q57 45 142 45q79 0 120.5 -43.5t41.5 -103.5q0 -42 -21 -81t-69 -91q-75 -83 -70 -154zM176 -12h-1q-18 0 -30 14t-11 32q0 20 12 33.5t31 13.5t30.5 -13.5t11.5 -33.5
q0 -19 -12 -32.5t-31 -13.5z" />
    <glyph glyph-name="at" unicode="@" horiz-adv-x="766" 
d="M486 266l23 113q-31 12 -73 12q-79 0 -136.5 -56.5t-57.5 -140.5q0 -38 22.5 -64t65.5 -26q54 0 100 53.5t56 108.5zM528 -26l16 -36q-79 -44 -186 -44q-133 0 -226.5 91t-93.5 231q0 156 102.5 266t273.5 110q141 0 227.5 -88t86.5 -221q0 -97 -53.5 -157t-122.5 -60
q-33 0 -56 25.5t-18 74.5h-4q-59 -100 -163 -100q-45 0 -79.5 36.5t-34.5 92.5q0 98 72.5 166t172.5 68q63 0 115 -22l-34 -167q-28 -133 38 -135q46 -2 83 46.5t37 126.5q0 122 -74 199.5t-201 77.5q-137 0 -229 -91.5t-92 -242.5q0 -125 80 -206.5t196 -81.5q102 0 167 41
z" />
    <glyph glyph-name="A" unicode="A" horiz-adv-x="640" 
d="M474 237h-300l-93 -237h-51l272 674h48l270 -674h-51zM191 278h267l-95 237q-19 47 -37 107h-2q-13 -43 -37 -104z" />
    <glyph glyph-name="B" unicode="B" horiz-adv-x="548" 
d="M88 0v665q68 15 151 15q131 0 190 -59q42 -42 42 -111q0 -50 -33.5 -91t-85.5 -59v-3q21 -4 44 -15t47.5 -30t40 -51.5t15.5 -72.5q0 -76 -51 -127q-67 -67 -233 -67q-37 0 -127 6zM137 631v-255h118q77 0 121.5 37.5t44.5 94.5q0 131 -185 131q-65 0 -99 -8zM137 336
v-295q28 -6 95 -6q93 0 154.5 34.5t61.5 116.5q0 75 -59 112.5t-151 37.5h-101z" />
    <glyph glyph-name="C" unicode="C" horiz-adv-x="640" 
d="M590 66l15 -39q-78 -39 -211 -39q-70 0 -132.5 21.5t-113 63t-80.5 109t-30 152.5q0 67 25 129.5t71 112.5t120.5 80t166.5 30q111 0 182 -34l-16 -41q-68 34 -163 34q-160 0 -247.5 -87t-87.5 -228q0 -130 85 -215t238 -85q106 0 178 36z" />
    <glyph glyph-name="D" unicode="D" horiz-adv-x="724" 
d="M88 0v665q113 15 202 15q216 0 315 -108q81 -88 81 -220q0 -146 -93 -246q-106 -112 -330 -112q-105 0 -175 6zM137 626v-585q38 -6 134 -6q183 0 274 88t91 228q2 131 -85.5 209.5t-264.5 78.5q-84 0 -149 -13z" />
    <glyph glyph-name="E" unicode="E" horiz-adv-x="511" 
d="M437 376v-41h-300v-294h334v-41h-383v674h366v-41h-317v-257h300z" />
    <glyph glyph-name="F" unicode="F" horiz-adv-x="510" 
d="M88 0v674h366v-41h-317v-265h290v-41h-290v-327h-49z" />
    <glyph glyph-name="G" unicode="G" horiz-adv-x="694" 
d="M631 333v-299q-105 -41 -226 -41q-166 0 -269 96q-46 43 -72 108t-26 141q0 62 23.5 121t69.5 109.5t123.5 81.5t174.5 31q107 0 180 -34l-16 -40q-71 33 -166 33q-160 0 -249 -86.5t-89 -217.5q0 -134 87 -218t238 -84q114 0 168 28v231h-174v40h223z" />
    <glyph glyph-name="H" unicode="H" horiz-adv-x="696" 
d="M88 674h49v-295h422v295h49v-674h-49v338h-422v-338h-49v674z" />
    <glyph glyph-name="I" unicode="I" horiz-adv-x="225" 
d="M88 674h49v-674h-49v674z" />
    <glyph glyph-name="J" unicode="J" horiz-adv-x="378" 
d="M249 233v441h49v-454q0 -232 -196 -232q-58 0 -96 19l12 40q36 -17 84 -17q74 0 110.5 44.5t36.5 158.5z" />
    <glyph glyph-name="K" unicode="K" horiz-adv-x="540" 
d="M88 0v674h49v-345h4q15 20 61 68l269 277h62l-284 -287l314 -387h-61l-287 356l-78 -78v-278h-49z" />
    <glyph glyph-name="L" unicode="L" horiz-adv-x="490" 
d="M88 0v674h49v-633h334v-41h-383z" />
    <glyph glyph-name="M" unicode="M" horiz-adv-x="845" 
d="M732 0l-21 318q-16 229 -16 302h-2q-42 -112 -101 -252l-156 -368h-37l-146 363q-70 174 -95 257h-2q-7 -195 -17 -312l-24 -308h-48l54 674h56l162 -402q50 -124 80 -215h2q24 75 83 214l170 403h58l48 -674h-48z" />
    <glyph glyph-name="N" unicode="N" horiz-adv-x="706" 
d="M136 0h-48v674h46l305 -415q105 -143 137 -197l2 2q-8 89 -8 262v348h48v-674h-45l-295 401q-110 150 -145 209l-3 -2q6 -91 6 -248v-360z" />
    <glyph glyph-name="O" unicode="O" horiz-adv-x="753" 
d="M380 686q147 0 241 -96.5t94 -243.5q0 -112 -49.5 -195t-126 -123t-166.5 -40q-144 0 -239.5 96.5t-95.5 243.5q0 157 98 257.5t244 100.5zM378 646q-137 0 -213 -91.5t-76 -224.5q0 -124 79 -213t207 -89q131 0 210 88.5t79 225.5q0 120 -76 212t-210 92z" />
    <glyph glyph-name="P" unicode="P" horiz-adv-x="548" 
d="M88 0v667q80 13 160 13q132 0 195 -60q54 -51 54 -131q0 -87 -52 -139q-70 -73 -212 -73q-65 0 -96 10v-287h-49zM137 630v-300q37 -12 102 -12q100 0 154.5 43.5t54.5 121.5q0 82 -55.5 119t-145.5 37q-65 0 -110 -9z" />
    <glyph glyph-name="Q" unicode="Q" horiz-adv-x="753" 
d="M722 -45l-14 -46q-147 31 -289 69q-37 10 -43 10q-145 4 -241.5 96.5t-96.5 242.5q0 159 98 259t245 100t240.5 -96.5t93.5 -243.5q0 -133 -65.5 -220.5t-176.5 -120.5v-4q200 -39 249 -46zM373 28h1q131 0 210.5 88.5t79.5 225.5q0 120 -75.5 212t-207.5 92
q-139 0 -215.5 -92.5t-76.5 -225.5q0 -124 78.5 -212t205.5 -88z" />
    <glyph glyph-name="R" unicode="R" horiz-adv-x="549" 
d="M88 0v665q77 15 164 15q136 0 197 -60q48 -45 48 -118q0 -65 -37.5 -110.5t-101.5 -64.5v-2q81 -28 107 -137q36 -154 55 -188h-52q-14 24 -45 162q-17 74 -53.5 108.5t-104.5 38.5h-128v-309h-49zM137 629v-280h130q83 0 132 39.5t49 105.5q0 76 -54.5 111t-142.5 35
q-72 0 -114 -11z" />
    <glyph glyph-name="S" unicode="S" horiz-adv-x="505" 
d="M46 38l19 41q73 -50 167 -50q81 0 128 39t47 102q0 58 -34 94t-118 63q-101 32 -145 76t-44 110q0 75 58.5 124t150.5 49q98 0 150 -34l-19 -41q-51 35 -133 35t-120.5 -39t-38.5 -87q0 -54 35 -88t117 -60q98 -32 143.5 -75.5t45.5 -121.5q0 -77 -58 -132t-171 -55
q-49 0 -99.5 14t-80.5 36z" />
    <glyph glyph-name="T" unicode="T" horiz-adv-x="510" 
d="M231 0v633h-251v41h551v-41h-251v-633h-49z" />
    <glyph glyph-name="U" unicode="U" horiz-adv-x="691" 
d="M88 674h49v-389q0 -130 56.5 -193t146.5 -63q98 0 156 64t58 192v389h49v-385q0 -153 -74.5 -227t-191.5 -74q-109 0 -179 71t-70 225v390z" />
    <glyph glyph-name="V" unicode="V" horiz-adv-x="545" 
d="M286 0h-48l-246 674h52l133 -371q71 -199 87 -253h2q23 70 97 252l150 372h53z" />
    <glyph glyph-name="W" unicode="W" horiz-adv-x="881" 
d="M250 0h-48l-191 674h50l107 -387q46 -164 61 -226h2q13 58 68 226l124 387h48l109 -386q47 -167 58 -227h2q12 46 68 225l124 388h51l-223 -674h-48l-109 386q-45 161 -57 231h-2q-13 -64 -68 -229z" />
    <glyph glyph-name="X" unicode="X" horiz-adv-x="600" 
d="M568 0h-58l-112 159q-74 104 -103 148h-2q-25 -40 -98 -149l-105 -158h-58l236 341l-226 333h58l120 -182q14 -21 40 -60.5t38 -57.5h2q11 17 81 117l128 183h59l-242 -330z" />
    <glyph glyph-name="Y" unicode="Y" horiz-adv-x="541" 
d="M297 0h-49v288l-236 386h56l125 -210q68 -115 82 -141h2q17 34 84 141l131 210h56l-251 -388v-286z" />
    <glyph glyph-name="Z" unicode="Z" horiz-adv-x="605" 
d="M37 0v33l461 597v3h-423v41h488v-34l-462 -596v-3h469v-41h-533z" />
    <glyph glyph-name="bracketleft" unicode="[" horiz-adv-x="270" 
d="M275 -112h-185v798h185v-38h-140v-722h140v-38z" />
    <glyph glyph-name="backslash" unicode="\" horiz-adv-x="370" 
d="M394 -40h-50l-354 726h50z" />
    <glyph glyph-name="bracketright" unicode="]" horiz-adv-x="270" 
d="M-5 686h185v-798h-185v38h140v722h-140v38z" />
    <glyph glyph-name="asciicircum" unicode="^" horiz-adv-x="596" 
d="M526 196h-47l-180 409h-2l-180 -409h-47l205 454h46z" />
    <glyph glyph-name="underscore" unicode="_" horiz-adv-x="500" 
d="M0 -75h500v-50h-500v50z" />
    <glyph glyph-name="grave" unicode="`" 
d="M29 692h74l91 -140h-38z" />
    <glyph glyph-name="a" unicode="a" horiz-adv-x="496" 
d="M416 290v-174q0 -64 8 -116h-45l-8 74h-2q-23 -33 -68.5 -59.5t-105.5 -26.5q-75 0 -114 41t-39 91q0 85 81 132t244 45v11q0 15 -1.5 29.5t-9.5 36.5t-21.5 38t-40.5 27.5t-63 11.5q-81 0 -138 -40l-16 35q70 46 158 46q181 0 181 -202zM367 154v102q-53 2 -97 -2.5
t-86 -17.5t-66 -40t-24 -67q0 -49 30 -75t75 -26q63 0 104 29.5t58 68.5q6 15 6 28z" />
    <glyph glyph-name="b" unicode="b" horiz-adv-x="613" 
d="M88 116v600h49v-335h2q59 111 200 111q103 0 167 -71t64 -174q0 -121 -71.5 -190t-167.5 -69q-133 0 -197 105h-2l-3 -93h-45q4 52 4 116zM137 274v-83q0 -17 5 -37q16 -53 65.5 -89.5t115.5 -36.5q91 0 144.5 59t53.5 158q0 87 -52.5 147t-139.5 60q-62 0 -113 -35
t-71 -99q-8 -24 -8 -44z" />
    <glyph glyph-name="c" unicode="c" horiz-adv-x="498" 
d="M444 62l14 -39q-74 -35 -161 -35q-113 0 -183.5 69.5t-70.5 175.5q0 118 77.5 188.5t195.5 70.5q97 0 146 -34l-18 -40q-56 32 -132 32q-104 0 -162 -60t-58 -151q0 -93 60 -151t152 -58q65 0 140 32z" />
    <glyph glyph-name="d" unicode="d" horiz-adv-x="602" 
d="M465 716h49v-600q0 -64 4 -116h-45l-3 100h-2q-23 -49 -73 -80.5t-121 -31.5q-100 0 -165.5 70t-65.5 171q-1 115 69 189t173 74q68 0 113.5 -28t64.5 -64h2v316zM465 202v85q0 26 -6 47q-17 51 -62.5 84.5t-110.5 33.5q-86 0 -140 -60t-54 -157q0 -87 50 -147t143 -60
q61 0 110 37.5t64 94.5q6 19 6 42z" />
    <glyph glyph-name="e" unicode="e" horiz-adv-x="537" 
d="M490 240h-399q0 -101 56.5 -155.5t146.5 -54.5q88 0 154 30l13 -39q-70 -33 -172 -33q-111 0 -178.5 67.5t-67.5 172.5q0 120 68 192t172 72q51 0 90 -17.5t61 -42t35.5 -57t18 -57.5t4.5 -48q0 -22 -2 -30zM94 279h347q0 23 -6 48.5t-21.5 56t-51 49.5t-85.5 19
q-57 0 -99 -29t-60 -66t-24 -78z" />
    <glyph glyph-name="f" unicode="f" horiz-adv-x="285" 
d="M137 0h-49v441h-73v39h73v23q0 127 58 182q46 43 114 43q49 0 79 -18l-16 -38q-28 15 -67 15q-35 0 -59.5 -14.5t-37 -41.5t-17.5 -57t-5 -70v-24h141v-39h-141v-441z" />
    <glyph glyph-name="g" unicode="g" horiz-adv-x="602" 
d="M514 364v-293q0 -158 -74 -224q-66 -59 -180 -59q-109 0 -171 47l18 39q69 -46 161 -46q91 0 144 49.5t53 154.5v70h-2q-24 -43 -72.5 -72.5t-118.5 -29.5q-100 0 -164.5 70t-64.5 164q0 116 71.5 187t168.5 71q72 0 118.5 -30t66.5 -71h2l3 89h45q-4 -52 -4 -116z
M465 207v80q0 29 -7 50q-18 50 -63 82.5t-107 32.5q-87 0 -141.5 -58.5t-54.5 -153.5q0 -80 50 -140t144 -60q56 0 102.5 32.5t66.5 82.5q10 25 10 52z" />
    <glyph glyph-name="h" unicode="h" horiz-adv-x="591" 
d="M88 0v716h49v-333h2q25 50 74 78q51 31 108 31q18 0 37.5 -3.5t48 -16.5t49.5 -35t36.5 -64.5t15.5 -98.5v-274h-49v272q0 77 -36.5 127t-114.5 50q-55 0 -100 -33t-63 -80q-8 -20 -8 -51v-285h-49z" />
    <glyph glyph-name="i" unicode="i" horiz-adv-x="225" 
d="M137 0h-49v480h49v-480zM113 665q17 0 28.5 -12.5t11.5 -30.5q0 -17 -11.5 -30t-30.5 -13q-17 0 -28 13t-11 30t12 30t29 13z" />
    <glyph glyph-name="j" unicode="j" horiz-adv-x="230" 
d="M-53 -212l-5 40q75 2 111 39q22 24 31 65t9 139v409h49v-445q0 -68 -11.5 -114t-43.5 -80q-26 -27 -66.5 -40t-73.5 -13zM119 665q17 0 28 -13t11 -30t-11.5 -30t-30.5 -13q-17 0 -28 13t-11 30t12 30t30 13z" />
    <glyph glyph-name="k" unicode="k" horiz-adv-x="458" 
d="M137 716v-467h2q24 28 53 55l187 176h62l-214 -198l245 -282h-61l-219 254l-55 -53v-201h-49v716h49z" />
    <glyph glyph-name="l" unicode="l" horiz-adv-x="225" 
d="M88 0v716h49v-716h-49z" />
    <glyph glyph-name="m" unicode="m" horiz-adv-x="897" 
d="M88 0v364q0 64 -4 116h46l4 -93h2q61 105 173 105q54 0 94 -32.5t57 -81.5h2q19 40 50 67q55 47 131 47q17 0 35.5 -4t44 -18t45 -36.5t33.5 -65.5t14 -100v-268h-49v267q0 90 -36.5 136.5t-103.5 46.5q-47 0 -85 -28.5t-55 -68.5q-10 -26 -10 -47v-306h-49v292
q0 71 -36 114.5t-96 43.5q-51 0 -91 -33.5t-58 -77.5q-9 -23 -9 -47v-292h-49z" />
    <glyph glyph-name="n" unicode="n" horiz-adv-x="591" 
d="M88 0v364q0 64 -4 116h46l4 -96h2q23 47 72.5 77.5t112.5 30.5q17 0 36.5 -3.5t48 -17t50 -35.5t37 -64.5t15.5 -98.5v-273h-49v273q0 77 -37 127t-114 50q-56 0 -101 -33t-62 -81q-8 -22 -8 -43v-293h-49z" />
    <glyph glyph-name="o" unicode="o" horiz-adv-x="591" 
d="M297 492q113 0 182 -70.5t69 -175.5q0 -65 -23.5 -116t-61.5 -81t-82.5 -45.5t-90.5 -15.5q-107 0 -177 70t-70 177q0 116 74.5 186.5t179.5 70.5zM297 452q-97 0 -151 -62t-54 -152q0 -96 59.5 -153t141.5 -57q84 0 145 58t61 157q0 79 -52.5 144t-149.5 65z" />
    <glyph glyph-name="p" unicode="p" horiz-adv-x="613" 
d="M88 -200v525q0 86 -4 155h47l4 -100h2q62 112 202 112q103 0 167 -70.5t64 -171.5q0 -121 -70 -191.5t-173 -70.5q-59 0 -109 25t-79 73h-2v-286h-49zM137 278v-85q0 -18 5 -38q16 -53 66 -90t115 -37q91 0 144.5 59.5t53.5 160.5q0 85 -52.5 144.5t-139.5 59.5
q-62 0 -112.5 -34.5t-70.5 -97.5q-9 -29 -9 -42z" />
    <glyph glyph-name="q" unicode="q" horiz-adv-x="600" 
d="M465 -200v292h-2q-22 -44 -71.5 -74t-118.5 -30q-99 0 -164.5 70.5t-65.5 170.5q0 68 22.5 120.5t59.5 82.5t79 45t85 15q69 0 114.5 -30.5t64.5 -71.5h2l3 90h45q-4 -52 -4 -116v-564h-49zM465 191v97q0 26 -6 47q-17 50 -62.5 83.5t-109.5 33.5q-86 0 -140.5 -59
t-54.5 -157q0 -86 48.5 -147t142.5 -61q58 0 104 31.5t67 83.5q11 26 11 48z" />
    <glyph glyph-name="r" unicode="r" horiz-adv-x="320" 
d="M88 0v325q0 86 -4 155h45l2 -104h3q19 52 57.5 84t89.5 32q13 0 23 -3v-45q-9 2 -28 2q-50 0 -86 -38t-48 -101q-5 -23 -5 -47v-260h-49z" />
    <glyph glyph-name="s" unicode="s" horiz-adv-x="408" 
d="M50 23l18 42q58 -36 120 -36q60 0 90.5 26.5t30.5 66.5t-27 64t-86 43q-130 42 -130 130q0 55 42 94t116 39q69 0 116 -32l-19 -40q-45 31 -106 31q-47 0 -74 -25t-27 -61q0 -38 26.5 -58.5t85.5 -40.5q68 -23 99.5 -55t31.5 -85q0 -60 -46.5 -99t-126.5 -39
q-74 0 -134 35z" />
    <glyph glyph-name="t" unicode="t" horiz-adv-x="339" 
d="M108 571l49 15v-106h152v-39h-152v-307q0 -104 77 -104q38 0 63 9l6 -38q-32 -13 -74 -13q-59 0 -89 36q-32 36 -32 116v301h-88v39h88v91z" />
    <glyph glyph-name="u" unicode="u" horiz-adv-x="586" 
d="M498 480v-364q0 -64 4 -116h-46l-3 97h-2q-25 -46 -72.5 -77.5t-114.5 -31.5q-21 0 -40.5 3.5t-46.5 17t-46.5 36t-33.5 65.5t-14 101v269h49v-259q0 -190 145 -190q53 0 96.5 29t63.5 73q12 30 12 56v291h49z" />
    <glyph glyph-name="v" unicode="v" horiz-adv-x="496" 
d="M14 480h53l125 -296q40 -93 55 -136h2q5 13 58 136l128 296h52l-219 -480h-44z" />
    <glyph glyph-name="w" unicode="w" horiz-adv-x="784" 
d="M24 480h51l88 -280q30 -97 44 -148h2q14 45 53 148l107 280h49l102 -279q28 -76 51 -149h2q13 49 47 148l96 280h50l-174 -480h-44l-98 265q-41 108 -57 171h-2q-19 -68 -60 -172l-105 -264h-44z" />
    <glyph glyph-name="x" unicode="x" horiz-adv-x="470" 
d="M22 480h56l92 -118q32 -40 61 -81h2q16 23 62 81l92 118h55l-184 -233l193 -247h-57l-96 122q-14 18 -37 49.5t-31 41.5h-2q-14 -22 -67 -91l-94 -122h-57l195 246z" />
    <glyph glyph-name="y" unicode="y" horiz-adv-x="480" 
d="M9 480h53l143 -321q26 -57 39 -101h2q26 71 40 105l134 317h53l-170 -388q-52 -119 -89.5 -179.5t-83.5 -93.5q-48 -35 -88 -43l-13 41q51 15 88 47q56 47 92 129q6 13 6 19q0 7 -7 22z" />
    <glyph glyph-name="z" unicode="z" horiz-adv-x="440" 
d="M16 0v30l287 338q22 26 62 70v2h-328v40h388l-1 -34l-287 -338q-30 -36 -57 -66v-2h348v-40h-412z" />
    <glyph glyph-name="braceleft" unicode="{" horiz-adv-x="270" 
d="M22 270v36q53 -1 71 20t18 58q0 29 -10 85q-11 51 -11 84q0 66 41.5 99.5t110.5 33.5h13v-38h-19q-54 0 -77.5 -25t-23.5 -76q0 -27 10 -79t10 -79q0 -36 -17.5 -63t-46.5 -36v-2q28 -9 46 -37.5t18 -63.5q0 -27 -10 -79q-10 -54 -10 -80q0 -102 101 -102h19v-38h-13
q-70 0 -111 34.5t-41 109.5q0 32 11 80q10 54 10 80q0 80 -89 78z" />
    <glyph glyph-name="bar" unicode="|" horiz-adv-x="219" 
d="M88 750h43v-1000h-43v1000z" />
    <glyph glyph-name="braceright" unicode="}" horiz-adv-x="270" 
d="M248 306v-36q-89 2 -89 -78q0 -30 11 -80q10 -52 10 -80q0 -75 -41 -109.5t-111 -34.5h-13v38h19q101 0 101 102q0 26 -10 80q-10 52 -10 79q0 35 18 63.5t46 37.5v2q-29 9 -46.5 36t-17.5 63q0 27 10 79t10 79q0 51 -23.5 76t-77.5 25h-19v38h13q69 0 110.5 -33.5
t41.5 -99.5q0 -28 -10 -84q-11 -51 -11 -85q0 -37 18 -58t71 -20z" />
    <glyph glyph-name="asciitilde" unicode="~" horiz-adv-x="596" 
d="M81 218h-39q-4 60 29.5 97t81.5 37q29 0 55 -8.5t93 -37.5q4 -2 19.5 -8.5t20 -8.5t18 -7t19.5 -7t17 -5.5t18.5 -5t17 -2.5t18.5 -1q67 0 67 90h38q3 -68 -29.5 -101t-78.5 -33q-48 0 -154 45q-9 4 -35.5 16t-38 16t-30.5 9t-35 5q-72 0 -72 -90z" />
    <glyph glyph-name="uni00A0" unicode="&#xa0;" horiz-adv-x="240" 
 />
    <glyph glyph-name="exclamdown" unicode="&#xa1;" horiz-adv-x="215" 
d="M138 -200h-61l10 488h41zM108 480h1q18 0 29.5 -13.5t11.5 -33.5q0 -19 -12 -32.5t-31 -13.5q-18 0 -30.5 14t-11.5 32q0 20 12 33.5t31 13.5z" />
    <glyph glyph-name="cent" unicode="&#xa2;" horiz-adv-x="530" 
d="M326 -20h-42v107q-103 9 -165 74q-59 62 -59 162q0 104 63 171.5t161 79.5v108h42v-108q78 0 135 -32l-19 -40q-52 33 -131 33q-88 0 -146 -58.5t-58 -147.5q0 -91 56 -146.5t139 -55.5q79 0 142 33l14 -36q-52 -32 -132 -36v-108z" />
    <glyph glyph-name="sterling" unicode="&#xa3;" horiz-adv-x="530" 
d="M488 0h-419v31q121 69 121 192q0 43 -6 86h-113v39h109q-13 78 -13 123q0 84 51 137.5t131 53.5q69 0 113 -26l-16 -38q-40 23 -102 23q-65 0 -97.5 -39.5t-32.5 -111.5q0 -54 12 -122h162v-39h-157q8 -93 -1 -134q-17 -78 -84 -131v-2h342v-42z" />
    <glyph glyph-name="currency" unicode="&#xa4;" horiz-adv-x="530" 
d="M264 524h1q76 0 121 -43l71 69l31 -31l-74 -65q40 -45 40 -119q0 -82 -38 -126l68 -68l-31 -31l-67 70q-47 -44 -125 -44q-76 0 -120 39l-65 -65l-29 31l64 63q-18 19 -30 52.5t-12 68.5q0 78 46 129l-68 64l31 32l65 -69q50 43 121 43zM261 485h-1q-67 0 -106 -47
t-39 -110q0 -77 46 -115t99 -38q59 0 103.5 37.5t44.5 121.5q0 57 -38 104t-109 47z" />
    <glyph glyph-name="yen" unicode="&#xa5;" horiz-adv-x="530" 
d="M281 0h-47v180h-165v37h165v76h-165v37h146l-188 320h53l140 -246q32 -56 40 -74h4q10 28 40 77l147 243h52l-201 -320h144v-37h-165v-76h165v-37h-165v-180z" />
    <glyph glyph-name="brokenbar" unicode="&#xa6;" horiz-adv-x="219" 
d="M88 174h43v-350h-43v350zM88 674h43v-350h-43v350z" />
    <glyph glyph-name="section" unicode="&#xa7;" horiz-adv-x="530" 
d="M124 357v-1q0 -31 27.5 -57t100.5 -51q80 -27 113 -48q41 38 41 91q0 36 -24.5 62.5t-86.5 46.5q-88 29 -121 49q-50 -39 -50 -92zM416 645l-21 -36q-50 37 -122 37q-48 0 -82 -26t-34 -65q0 -19 8 -34t17.5 -24.5t32 -20t38 -16t48.5 -16.5q74 -24 112 -56.5t38 -88.5
q0 -68 -59 -121q35 -33 35 -87q0 -67 -50.5 -106t-126.5 -39q-95 0 -145 42l22 36q48 -41 126 -41q57 0 93.5 27.5t36.5 74.5q0 42 -29 68.5t-110 53.5q-86 29 -125 61.5t-39 86.5q0 62 67 114q-16 11 -25.5 33t-9.5 45q0 59 48 97t120 38q80 0 136 -37z" />
    <glyph glyph-name="dieresis" unicode="&#xa8;" 
d="M60 581h-1q-17 0 -27 12t-10 29q0 16 11.5 28.5t27.5 12.5t27 -12t11 -29t-10.5 -29t-28.5 -12zM239 581h-1q-17 0 -27 12t-10 29q0 16 11.5 28.5t27.5 12.5t27 -12t11 -29t-10.5 -29t-28.5 -12z" />
    <glyph glyph-name="copyright" unicode="&#xa9;" horiz-adv-x="677" 
d="M340 648h1q125 0 210.5 -90t85.5 -218q0 -130 -86 -220t-211 -90q-126 0 -213 90.5t-87 219.5q0 128 87 218t213 90zM340 616h-1q-110 0 -184.5 -80t-74.5 -200q0 -116 74.5 -195t185.5 -79q109 -2 183 78.5t74 199.5q0 117 -74 196.5t-183 79.5zM474 493l-10 -31
q-39 25 -99 25q-74 0 -111.5 -42t-37.5 -108q0 -65 39 -108t112 -43q63 0 103 28l10 -29q-45 -32 -123 -32q-84 0 -133 51t-49 130q0 82 55.5 134t133.5 52t110 -27z" />
    <glyph glyph-name="ordfeminine" unicode="&#xaa;" horiz-adv-x="350" 
d="M300 267h-40l-5 51h-2q-41 -56 -110 -56q-52 0 -79 27.5t-27 67.5q0 52 55 84t160 27v12q0 7 -2.5 16.5t-10.5 24t-27.5 24.5t-47.5 10q-52 0 -87 -28l-13 30q45 35 109 35q39 0 64.5 -13t37 -37.5t15.5 -47.5t4 -53v-95q0 -37 6 -79zM252 371v63q-171 6 -171 -77
q0 -27 20 -43t50 -16q52 0 86 42q15 20 15 31z" />
    <glyph glyph-name="guillemotleft" unicode="&#xab;" horiz-adv-x="410" 
d="M238 436l-156 -184l157 -184h-52l-157 184l156 184h52zM388 436l-156 -184l157 -184h-52l-157 184l156 184h52z" />
    <glyph glyph-name="logicalnot" unicode="&#xac;" horiz-adv-x="596" 
d="M40 385h516v-254h-44v214h-472v40z" />
    <glyph glyph-name="uni00AD" unicode="&#xad;" horiz-adv-x="291" 
d="M30 304h240v-43h-240v43z" />
    <glyph glyph-name="registered" unicode="&#xae;" horiz-adv-x="403" 
d="M173 503v-71h-32v169q30 5 60 5q35 0 53 -13q17 -12 17 -36q0 -29 -33 -40v-2q21 -8 28 -41q6 -32 13 -42h-33q-6 7 -14 44q-6 27 -39 27h-20zM173 580v-53h21q44 0 44 27q0 28 -41 28q-14 0 -24 -2zM202 682h1q69 0 116 -46.5t47 -114.5q0 -69 -47 -116t-117 -47
q-69 0 -117 47t-48 116q0 67 48 114t117 47zM202 654h-1q-54 0 -91 -39t-37 -94q0 -57 37 -95.5t93 -38.5q54 -1 90.5 38t36.5 95t-36.5 95t-91.5 39z" />
    <glyph glyph-name="macron" unicode="&#xaf;" 
d="M42 633h217v-41h-217v41z" />
    <glyph glyph-name="degree" unicode="&#xb0;" 
d="M151 686h1q56 0 87 -34.5t31 -81.5q0 -55 -37.5 -89t-84.5 -34q-53 0 -85.5 34t-32.5 80q0 54 35 89.5t86 35.5zM149 653h-1q-40 0 -60 -28t-20 -63t23.5 -58.5t57.5 -23.5q36 0 59.5 25t23.5 63q0 31 -19 58t-64 27z" />
    <glyph glyph-name="plusminus" unicode="&#xb1;" horiz-adv-x="596" 
d="M276 567h44v-207h236v-40h-236v-215h-44v215h-236v40h236v207zM40 40h516v-40h-516v40z" />
    <glyph glyph-name="two.superior" unicode="&#xb2;" horiz-adv-x="305" 
d="M14 451v29l73 65q76 68 105 106t29 74t-22.5 61t-70.5 25q-41 0 -88 -34l-15 26q45 43 113 43q67 0 97.5 -35t30.5 -74q0 -55 -35.5 -100t-122.5 -119l-34 -29v-2h198v-36h-258z" />
    <glyph glyph-name="three.superior" unicode="&#xb3;" horiz-adv-x="298" 
d="M50 782l-16 32q50 32 105 32q60 0 87.5 -27.5t27.5 -64.5q0 -30 -20.5 -54.5t-56.5 -37.5v-2q44 -7 69.5 -34.5t25.5 -64.5q0 -45 -39 -80t-111 -35q-73 0 -110 29l16 33q12 -10 40.5 -19t55.5 -9q56 0 80.5 26.5t23.5 54.5q-1 42 -38 62t-87 20h-32v33h34q39 0 71.5 19
t33.5 58q0 22 -18.5 40.5t-55.5 18.5q-51 0 -86 -30z" />
    <glyph glyph-name="acute" unicode="&#xb4;" 
d="M209 692h74l-127 -140h-38z" />
    <glyph glyph-name="mu" unicode="&#xb5;" horiz-adv-x="590" 
d="M457 90h-3q-25 -42 -67.5 -72t-102.5 -30q-108 0 -147 76v-64q0 -152 13 -200h-46q-16 49 -16 200v480h49v-283q0 -72 37 -119t112 -47q52 0 93.5 29t62.5 73q12 30 12 56v291h49v-351q0 -54 11 -75.5t44 -24.5l-6 -40q-11 -1 -15 -1q-33 0 -55.5 24t-24.5 78z" />
    <glyph glyph-name="paragraph" unicode="&#xb6;" horiz-adv-x="530" 
d="M307 -51h-43v310h-9q-85 0 -152.5 52t-67.5 144q0 41 13 77t42 69.5t87 53t138 19.5q75 0 110 -7v-718h-43v685h-75v-685z" />
    <glyph glyph-name="periodcentered" unicode="&#xb7;" horiz-adv-x="175" 
d="M87 223h-1q-18 0 -30 14t-11 32q0 20 12 33.5t31 13.5t30.5 -13.5t11.5 -33.5q0 -19 -12 -32.5t-31 -13.5z" />
    <glyph glyph-name="cedilla" unicode="&#xb8;" 
d="M142 0h38l-38 -54q29 -4 49.5 -21.5t20.5 -44.5q0 -78 -99 -78q-35 0 -60 15l11 35q23 -13 56 -13q22 0 36.5 8.5t13.5 27.5q-1 37 -81 44z" />
    <glyph glyph-name="one.superior" unicode="&#xb9;" horiz-adv-x="215" 
d="M143 451h-41v350h-2l-65 -32l-9 33l79 39h38v-390z" />
    <glyph glyph-name="ordmasculine" unicode="&#xba;" horiz-adv-x="350" 
d="M175 592h1q74 0 120.5 -47.5t46.5 -115.5q-1 -81 -52.5 -124t-115.5 -43q-72 0 -119.5 46t-47.5 115q0 75 51 122t116 47zM175 556h-1q-59 0 -91.5 -39.5t-32.5 -91.5q0 -59 38.5 -93t86.5 -34q52 0 88.5 33.5t36.5 95.5q0 48 -32.5 88.5t-92.5 40.5z" />
    <glyph glyph-name="guillemotright" unicode="&#xbb;" horiz-adv-x="410" 
d="M178 252l-157 184h52l157 -184l-157 -184h-51zM328 252l-157 184h52l157 -184l-157 -184h-51z" />
    <glyph glyph-name="onequarter" unicode="&#xbc;" horiz-adv-x="760" 
d="M168 267h-41v350h-2l-65 -32l-9 33l79 39h38v-390zM163 -12h-41l403 674h41zM652 0h-41v108h-222v26l228 261h35v-253h70v-34h-70v-108zM611 142v154q0 35 2 49h-2q-7 -8 -16.5 -21t-12.5 -17l-142 -164v-1h171z" />
    <glyph glyph-name="onehalf" unicode="&#xbd;" horiz-adv-x="760" 
d="M153 267h-41v350h-2l-65 -32l-9 33l79 39h38v-390zM148 -12h-41l403 674h41zM438 0v29l73 65q76 68 105 106t29 74t-22.5 61t-70.5 25q-41 0 -88 -34l-15 26q45 43 113 43q67 0 97.5 -35t30.5 -74q0 -55 -34.5 -98t-123.5 -121l-34 -29v-2h198v-36h-258z" />
    <glyph glyph-name="threequarters" unicode="&#xbe;" horiz-adv-x="760" 
d="M71 598l-16 31q48 33 104 33q61 0 88.5 -27.5t27.5 -64.5q0 -30 -20.5 -54.5t-56.5 -37.5v-2q44 -7 69.5 -34.5t25.5 -64.5q0 -45 -39 -80t-111 -35q-73 0 -110 29l16 33q12 -10 40.5 -19t55.5 -9q56 0 80.5 26.5t23.5 54.5q-1 42 -38 62t-87 20h-32v33h34q39 0 71.5 19
t33.5 58q0 22 -18 40.5t-57 18.5q-46 0 -85 -30zM211 -12h-41l403 674h41zM667 0h-41v108h-222v26l228 261h35v-253h70v-34h-70v-108zM626 142v154q0 35 2 49h-2q-4 -5 -13.5 -19t-14.5 -19l-143 -164v-1h171z" />
    <glyph glyph-name="questiondown" unicode="&#xbf;" horiz-adv-x="410" 
d="M253 480h1q18 0 29.5 -13.5t11.5 -33.5q0 -19 -12 -32.5t-31 -13.5q-18 0 -30.5 14t-11.5 32q0 20 12 33.5t31 13.5zM232 292h45l4 -31q11 -84 -74 -176q-80 -86 -80 -152q0 -47 30 -76.5t88 -29.5q68 0 114 37l19 -36q-28 -21 -68 -33t-74 -12q-79 0 -120.5 43.5
t-41.5 103.5q0 42 21 81t69 91q75 83 70 154z" />
    <glyph glyph-name="Agrave" unicode="&#xc0;" horiz-adv-x="640" 
d="M474 237h-300l-93 -237h-51l272 674h48l270 -674h-51zM191 278h267l-95 237q-19 47 -37 107h-2q-13 -43 -37 -104zM191 825h76l96 -115h-40z" />
    <glyph glyph-name="Aacute" unicode="&#xc1;" horiz-adv-x="640" 
d="M474 237h-300l-93 -237h-51l272 674h48l270 -674h-51zM191 278h267l-95 237q-19 47 -37 107h-2q-13 -43 -37 -104zM383 825h76l-132 -115h-40z" />
    <glyph glyph-name="Acircumflex" unicode="&#xc2;" horiz-adv-x="640" 
d="M474 237h-300l-93 -237h-51l272 674h48l270 -674h-51zM191 278h267l-95 237q-19 47 -37 107h-2q-13 -43 -37 -104zM310 825h36l113 -115h-54l-76 79h-2l-76 -79h-50z" />
    <glyph glyph-name="Atilde" unicode="&#xc3;" horiz-adv-x="640" 
d="M474 237h-300l-93 -237h-51l272 674h48l270 -674h-51zM191 278h267l-95 237q-19 47 -37 107h-2q-13 -43 -37 -104zM239 715h-34q-1 37 17 62.5t48 25.5q20 0 61 -22q34 -17 53 -17q25 0 27 38h34q0 -82 -61 -82q-23 0 -63 20t-54 20q-23 0 -28 -45z" />
    <glyph glyph-name="Adieresis" unicode="&#xc4;" horiz-adv-x="640" 
d="M474 237h-300l-93 -237h-51l272 674h48l270 -674h-51zM191 278h267l-95 237q-19 47 -37 107h-2q-13 -43 -37 -104zM235 724h-1q-17 0 -27 12t-10 29q0 16 11.5 28.5t27.5 12.5t27 -12t11 -29t-10.5 -29t-28.5 -12zM415 724h-1q-17 0 -27 12t-10 29q0 16 11.5 28.5
t27.5 12.5t27 -12t11 -29t-10.5 -29t-28.5 -12z" />
    <glyph glyph-name="Aring" unicode="&#xc5;" horiz-adv-x="640" 
d="M474 237h-300l-93 -237h-51l272 674h48l270 -674h-51zM191 278h267l-95 237q-19 47 -37 107h-2q-13 -43 -37 -104zM325 868h1q39 0 64.5 -25t25.5 -61q0 -35 -26.5 -59t-64.5 -24q-40 0 -66 24t-26 59q0 36 26 61t66 25zM324 841h-1q-22 0 -35.5 -17t-13.5 -42
q0 -22 14.5 -38.5t35.5 -16.5q22 0 36.5 16.5t14.5 40.5t-14.5 40.5t-36.5 16.5z" />
    <glyph glyph-name="AE" unicode="&#xc6;" horiz-adv-x="807" 
d="M41 0h-51l360 674h399v-41h-326l36 -258h273v-41h-267l42 -293h259v-41h-300l-40 279h-237zM210 319h211l-29 207q-13 88 -14 111h-4q-16 -36 -51 -102z" />
    <glyph glyph-name="Ccedilla" unicode="&#xc7;" horiz-adv-x="640" 
d="M590 66l15 -39q-78 -39 -222 -39l-30 -42q30 -5 50 -24t20 -46q0 -37 -27 -55.5t-70 -18.5q-35 0 -63 14l11 36q24 -13 56 -13q21 0 35 9t14 26q0 36 -80 45l46 72q-132 15 -219.5 103t-87.5 240q0 67 25 129.5t71 112.5t120.5 80t166.5 30q111 0 182 -34l-16 -41
q-68 34 -163 34q-160 0 -247.5 -87t-87.5 -228q0 -130 85 -215t238 -85q106 0 178 36z" />
    <glyph glyph-name="Egrave" unicode="&#xc8;" horiz-adv-x="511" 
d="M437 376v-41h-300v-294h334v-41h-383v674h366v-41h-317v-257h300zM148 825h76l96 -115h-40z" />
    <glyph glyph-name="Eacute" unicode="&#xc9;" horiz-adv-x="511" 
d="M437 376v-41h-300v-294h334v-41h-383v674h366v-41h-317v-257h300zM328 825h76l-132 -115h-40z" />
    <glyph glyph-name="Ecircumflex" unicode="&#xca;" horiz-adv-x="511" 
d="M437 376v-41h-300v-294h334v-41h-383v674h366v-41h-317v-257h300zM247 825h36l113 -115h-54l-76 79h-2l-76 -79h-50z" />
    <glyph glyph-name="Edieresis" unicode="&#xcb;" horiz-adv-x="511" 
d="M437 376v-41h-300v-294h334v-41h-383v674h366v-41h-317v-257h300zM177 724h-1q-17 0 -27 12t-10 29q0 16 11.5 28.5t27.5 12.5t27 -12t11 -29t-10.5 -29t-28.5 -12zM357 724h-1q-17 0 -27 12t-10 29q0 16 11.5 28.5t27.5 12.5t27 -12t11 -29t-10.5 -29t-28.5 -12z" />
    <glyph glyph-name="Igrave" unicode="&#xcc;" horiz-adv-x="225" 
d="M88 674h49v-674h-49v674zM-16 825h76l96 -115h-40z" />
    <glyph glyph-name="Iacute" unicode="&#xcd;" horiz-adv-x="225" 
d="M88 674h49v-674h-49v674zM171 825h76l-132 -115h-40z" />
    <glyph glyph-name="Icircumflex" unicode="&#xce;" horiz-adv-x="225" 
d="M88 674h49v-674h-49v674zM93 825h36l113 -115h-54l-76 79h-2l-76 -79h-50z" />
    <glyph glyph-name="Idieresis" unicode="&#xcf;" horiz-adv-x="225" 
d="M88 674h49v-674h-49v674zM23 724h-1q-17 0 -27 12t-10 29q0 16 11.5 28.5t27.5 12.5t27 -12t11 -29t-10.5 -29t-28.5 -12zM203 724h-1q-17 0 -27 12t-10 29q0 16 11.5 28.5t27.5 12.5t27 -12t11 -29t-10.5 -29t-28.5 -12z" />
    <glyph glyph-name="Eth" unicode="&#xd0;" horiz-adv-x="725" 
d="M-6 317v40h94v311q113 15 202 15q216 0 315 -108q81 -88 81 -223q0 -146 -93 -246q-106 -112 -330 -112q-105 0 -175 6v317h-94zM376 357v-40h-239v-276q38 -6 134 -6q183 0 274 88.5t91 230.5q2 131 -85.5 209.5t-264.5 78.5q-84 0 -149 -13v-272h239z" />
    <glyph glyph-name="Ntilde" unicode="&#xd1;" horiz-adv-x="706" 
d="M136 0h-48v674h46l305 -415q105 -143 137 -197l2 2q-8 89 -8 262v348h48v-674h-45l-295 401q-110 150 -145 209l-3 -2q6 -91 6 -248v-360zM275 715h-34q-1 37 17 62.5t48 25.5q20 0 61 -22q34 -17 53 -17q25 0 27 38h34q0 -82 -61 -82q-23 0 -63 20t-54 20q-23 0 -28 -45
z" />
    <glyph glyph-name="Ograve" unicode="&#xd2;" horiz-adv-x="753" 
d="M380 686q147 0 241 -96.5t94 -243.5q0 -112 -49.5 -195t-126 -123t-166.5 -40q-144 0 -239.5 96.5t-95.5 243.5q0 157 98 257.5t244 100.5zM378 646q-137 0 -213 -91.5t-76 -224.5q0 -124 79 -213t207 -89q131 0 210 88.5t79 225.5q0 120 -76 212t-210 92zM247 830h76
l96 -115h-40z" />
    <glyph glyph-name="Oacute" unicode="&#xd3;" horiz-adv-x="753" 
d="M380 686q147 0 241 -96.5t94 -243.5q0 -112 -49.5 -195t-126 -123t-166.5 -40q-144 0 -239.5 96.5t-95.5 243.5q0 157 98 257.5t244 100.5zM378 646q-137 0 -213 -91.5t-76 -224.5q0 -124 79 -213t207 -89q131 0 210 88.5t79 225.5q0 120 -76 212t-210 92zM430 830h76
l-132 -115h-40z" />
    <glyph glyph-name="Ocircumflex" unicode="&#xd4;" horiz-adv-x="753" 
d="M380 686q147 0 241 -96.5t94 -243.5q0 -112 -49.5 -195t-126 -123t-166.5 -40q-144 0 -239.5 96.5t-95.5 243.5q0 157 98 257.5t244 100.5zM378 646q-137 0 -213 -91.5t-76 -224.5q0 -124 79 -213t207 -89q131 0 210 88.5t79 225.5q0 120 -76 212t-210 92zM356 830h36
l113 -115h-54l-76 79h-2l-76 -79h-50z" />
    <glyph glyph-name="Otilde" unicode="&#xd5;" horiz-adv-x="753" 
d="M380 686q147 0 241 -96.5t94 -243.5q0 -112 -49.5 -195t-126 -123t-166.5 -40q-144 0 -239.5 96.5t-95.5 243.5q0 157 98 257.5t244 100.5zM378 646q-137 0 -213 -91.5t-76 -224.5q0 -124 79 -213t207 -89q131 0 210 88.5t79 225.5q0 120 -76 212t-210 92zM290 720h-34
q-1 37 17 62.5t48 25.5q20 0 61 -22q34 -17 53 -17q25 0 27 38h34q0 -82 -61 -82q-23 0 -63 20t-54 20q-23 0 -28 -45z" />
    <glyph glyph-name="Odieresis" unicode="&#xd6;" horiz-adv-x="753" 
d="M380 686q147 0 241 -96.5t94 -243.5q0 -112 -49.5 -195t-126 -123t-166.5 -40q-144 0 -239.5 96.5t-95.5 243.5q0 157 98 257.5t244 100.5zM378 646q-137 0 -213 -91.5t-76 -224.5q0 -124 79 -213t207 -89q131 0 210 88.5t79 225.5q0 120 -76 212t-210 92zM286 724h-1
q-17 0 -27 12t-10 29q0 16 11.5 28.5t27.5 12.5t27 -12t11 -29t-10.5 -29t-28.5 -12zM466 724h-1q-17 0 -27 12t-10 29q0 16 11.5 28.5t27.5 12.5t27 -12t11 -29t-10.5 -29t-28.5 -12z" />
    <glyph glyph-name="multiply" unicode="&#xd7;" horiz-adv-x="596" 
d="M40 495l32 31l226 -231l226 231l32 -31l-227 -232l227 -233l-32 -30l-226 231l-226 -231l-32 30l227 233z" />
    <glyph glyph-name="Oslash" unicode="&#xd8;" horiz-adv-x="753" 
d="M91 -28l-29 26l74 87q-98 98 -98 245q0 157 99.5 256.5t244.5 99.5q116 0 205 -69l72 85l32 -25l-74 -87q98 -95 98 -244q0 -87 -29 -157.5t-77.5 -113t-107.5 -65t-122 -22.5q-122 0 -214 71zM167 121l392 462q-78 63 -180 63q-136 0 -213 -92t-77 -216q0 -71 19.5 -121
t56.5 -98zM586 555l-392 -463q77 -64 182 -64q131 0 209.5 90.5t78.5 223.5q0 122 -75 213h-3z" />
    <glyph glyph-name="Ugrave" unicode="&#xd9;" horiz-adv-x="691" 
d="M88 674h49v-389q0 -130 56.5 -193t146.5 -63q98 0 156 64t58 192v389h49v-385q0 -153 -74.5 -227t-191.5 -74q-109 0 -179 71t-70 225v390zM226 825h76l96 -115h-40z" />
    <glyph glyph-name="Uacute" unicode="&#xda;" horiz-adv-x="691" 
d="M88 674h49v-389q0 -130 56.5 -193t146.5 -63q98 0 156 64t58 192v389h49v-385q0 -153 -74.5 -227t-191.5 -74q-109 0 -179 71t-70 225v390zM408 825h76l-132 -115h-40z" />
    <glyph glyph-name="Ucircumflex" unicode="&#xdb;" horiz-adv-x="691" 
d="M88 674h49v-389q0 -130 56.5 -193t146.5 -63q98 0 156 64t58 192v389h49v-385q0 -153 -74.5 -227t-191.5 -74q-109 0 -179 71t-70 225v390zM330 825h36l113 -115h-54l-76 79h-2l-76 -79h-50z" />
    <glyph glyph-name="Udieresis" unicode="&#xdc;" horiz-adv-x="691" 
d="M88 674h49v-389q0 -130 56.5 -193t146.5 -63q98 0 156 64t58 192v389h49v-385q0 -153 -74.5 -227t-191.5 -74q-109 0 -179 71t-70 225v390zM255 724h-1q-17 0 -27 12t-10 29q0 16 11.5 28.5t27.5 12.5t27 -12t11 -29t-10.5 -29t-28.5 -12zM435 724h-1q-17 0 -27 12
t-10 29q0 16 11.5 28.5t27.5 12.5t27 -12t11 -29t-10.5 -29t-28.5 -12z" />
    <glyph glyph-name="Yacute" unicode="&#xdd;" horiz-adv-x="541" 
d="M297 0h-49v288l-236 386h56l125 -210q68 -115 82 -141h2q17 34 84 141l131 210h56l-251 -388v-286zM338 815h76l-132 -115h-40z" />
    <glyph glyph-name="Thorn" unicode="&#xde;" horiz-adv-x="548" 
d="M88 0v674h48v-136q54 11 120 11q126 0 189 -58q52 -49 52 -120q0 -97 -72.5 -152.5t-193.5 -55.5q-60 0 -95 6v-169h-48zM136 496v-284q38 -8 98 -8q102 0 158 42t56 116q0 78 -53.5 112t-138.5 34q-78 0 -120 -12z" />
    <glyph glyph-name="germandbls" unicode="&#xdf;" horiz-adv-x="558" 
d="M137 0h-49v466q0 153 70 216q52 46 135 46q70 0 117.5 -44t47.5 -119q0 -47 -22 -81q-81 -33 -81 -87q0 -20 10 -39t18 -27t36 -34q30 -28 44.5 -44t28.5 -46t14 -64q0 -67 -46 -111t-125 -44q-67 0 -116 26l14 41q57 -27 103 -27q59 0 91 31t32 76q0 37 -16 65t-52 59
q-44 38 -64 67t-20 63q0 75 96 122q8 20 8 47q0 59 -33.5 94t-94.5 35q-76 0 -111 -53t-35 -166v-468z" />
    <glyph glyph-name="agrave" unicode="&#xe0;" horiz-adv-x="496" 
d="M107 692h74l91 -140h-38zM416 290v-174q0 -64 8 -116h-45l-8 74h-2q-23 -33 -68.5 -59.5t-105.5 -26.5q-75 0 -114 41t-39 91q0 85 81 132t244 45v11q0 15 -1.5 29.5t-9.5 36.5t-21.5 38t-40.5 27.5t-63 11.5q-81 0 -138 -40l-16 35q70 46 158 46q181 0 181 -202z
M367 154v102q-53 2 -97 -2.5t-86 -17.5t-66 -40t-24 -67q0 -49 30 -75t75 -26q63 0 104 29.5t58 68.5q6 15 6 28z" />
    <glyph glyph-name="aacute" unicode="&#xe1;" horiz-adv-x="496" 
d="M292 692h74l-127 -140h-38zM416 290v-174q0 -64 8 -116h-45l-8 74h-2q-23 -33 -68.5 -59.5t-105.5 -26.5q-75 0 -114 41t-39 91q0 85 81 132t244 45v11q0 15 -1.5 29.5t-9.5 36.5t-21.5 38t-40.5 27.5t-63 11.5q-81 0 -138 -40l-16 35q70 46 158 46q181 0 181 -202z
M367 154v102q-53 2 -97 -2.5t-86 -17.5t-66 -40t-24 -67q0 -49 30 -75t75 -26q63 0 104 29.5t58 68.5q6 15 6 28z" />
    <glyph glyph-name="acircumflex" unicode="&#xe2;" horiz-adv-x="496" 
d="M222 692h38l100 -140h-51l-67 102h-2l-67 -102h-47zM416 290v-174q0 -64 8 -116h-45l-8 74h-2q-23 -33 -68.5 -59.5t-105.5 -26.5q-75 0 -114 41t-39 91q0 85 81 132t244 45v11q0 15 -1.5 29.5t-9.5 36.5t-21.5 38t-40.5 27.5t-63 11.5q-81 0 -138 -40l-16 35
q70 46 158 46q181 0 181 -202zM367 154v102q-53 2 -97 -2.5t-86 -17.5t-66 -40t-24 -67q0 -49 30 -75t75 -26q63 0 104 29.5t58 68.5q6 15 6 28z" />
    <glyph glyph-name="atilde" unicode="&#xe3;" horiz-adv-x="496" 
d="M167 576h-34q-1 42 15.5 66t45.5 24q16 0 66 -25q30 -15 42 -15q26 0 29 43h33q0 -87 -60 -87q-20 0 -60 21q-35 19 -49 19q-24 0 -28 -46zM416 290v-174q0 -64 8 -116h-45l-8 74h-2q-23 -33 -68.5 -59.5t-105.5 -26.5q-75 0 -114 41t-39 91q0 85 81 132t244 45v11
q0 15 -1.5 29.5t-9.5 36.5t-21.5 38t-40.5 27.5t-63 11.5q-81 0 -138 -40l-16 35q70 46 158 46q181 0 181 -202zM367 154v102q-53 2 -97 -2.5t-86 -17.5t-66 -40t-24 -67q0 -49 30 -75t75 -26q63 0 104 29.5t58 68.5q6 15 6 28z" />
    <glyph glyph-name="adieresis" unicode="&#xe4;" horiz-adv-x="496" 
d="M158 581h-1q-17 0 -27 12t-10 29q0 16 11.5 28.5t27.5 12.5t27 -12t11 -29t-10.5 -29t-28.5 -12zM337 581h-1q-17 0 -27 12t-10 29q0 16 11.5 28.5t27.5 12.5t27 -12t11 -29t-10.5 -29t-28.5 -12zM416 290v-174q0 -64 8 -116h-45l-8 74h-2q-23 -33 -68.5 -59.5
t-105.5 -26.5q-75 0 -114 41t-39 91q0 85 81 132t244 45v11q0 15 -1.5 29.5t-9.5 36.5t-21.5 38t-40.5 27.5t-63 11.5q-81 0 -138 -40l-16 35q70 46 158 46q181 0 181 -202zM367 154v102q-53 2 -97 -2.5t-86 -17.5t-66 -40t-24 -67q0 -49 30 -75t75 -26q63 0 104 29.5
t58 68.5q6 15 6 28z" />
    <glyph glyph-name="aring" unicode="&#xe5;" horiz-adv-x="496" 
d="M246 538q-40 0 -67.5 26t-27.5 64q0 39 27 65.5t69 26.5q39 0 65.5 -26.5t26.5 -65.5q0 -38 -28 -64t-65 -26zM245 568q24 0 40 18t16 43q0 26 -16 43.5t-41 17.5q-23 0 -38 -18t-15 -44q0 -23 15.5 -41.5t38.5 -18.5zM416 290v-174q0 -64 8 -116h-45l-8 74h-2
q-23 -33 -68.5 -59.5t-105.5 -26.5q-75 0 -114 41t-39 91q0 85 81 132t244 45v11q0 15 -1.5 29.5t-9.5 36.5t-21.5 38t-40.5 27.5t-63 11.5q-81 0 -138 -40l-16 35q70 46 158 46q181 0 181 -202zM367 154v102q-53 2 -97 -2.5t-86 -17.5t-66 -40t-24 -67q0 -49 30 -75t75 -26
q63 0 104 29.5t58 68.5q6 15 6 28z" />
    <glyph glyph-name="ae" unicode="&#xe6;" horiz-adv-x="835" 
d="M787 249h-372q-6 -99 47.5 -159t138.5 -60q88 0 145 30l14 -39q-71 -33 -161 -33q-72 0 -127 33.5t-76 93.5h-2q-22 -61 -76.5 -94t-123.5 -33q-75 0 -113 39t-38 88q0 83 81.5 130t243.5 43v20q0 9 -2 22t-10 35.5t-21.5 40.5t-41 31.5t-63.5 13.5q-37 0 -75.5 -11
t-61.5 -29l-16 35q70 46 153 46q141 0 170 -124h2q25 58 74.5 91t115.5 33q48 0 85 -18t57.5 -43t34 -56.5t17.5 -55t4 -40.5q0 -23 -3 -30zM368 174v75q-275 9 -275 -129q0 -41 30.5 -66.5t75.5 -25.5q65 -1 106.5 30t56.5 76q6 19 6 40zM415 288h324q1 14 -2.5 33
t-14 42.5t-27 43t-44.5 32.5t-63 13q-79 0 -124 -53t-49 -111z" />
    <glyph glyph-name="ccedilla" unicode="&#xe7;" horiz-adv-x="498" 
d="M444 62l14 -39q-68 -34 -156 -35l-30 -42q29 -4 49.5 -21.5t20.5 -44.5q0 -39 -27 -58.5t-72 -19.5q-35 0 -60 15l11 35q22 -13 55 -13q51 0 51 36q-2 37 -81 44l47 71q-99 8 -161 76.5t-62 166.5q0 118 77.5 188.5t195.5 70.5q97 0 146 -34l-18 -40q-56 32 -132 32
q-104 0 -162 -60t-58 -151q0 -93 60 -151t152 -58q65 0 140 32z" />
    <glyph glyph-name="egrave" unicode="&#xe8;" horiz-adv-x="537" 
d="M172 692h74l91 -140h-38zM490 240h-399q0 -101 56.5 -155.5t146.5 -54.5q88 0 154 30l13 -39q-70 -33 -172 -33q-111 0 -178.5 67.5t-67.5 172.5q0 120 68 192t172 72q51 0 90 -17.5t61 -42t35.5 -57t18 -57.5t4.5 -48q0 -22 -2 -30zM94 279h347q0 23 -6 48.5t-21.5 56
t-51 49.5t-85.5 19q-57 0 -99 -29t-60 -66t-24 -78z" />
    <glyph glyph-name="eacute" unicode="&#xe9;" horiz-adv-x="537" 
d="M332 692h74l-127 -140h-38zM490 240h-399q0 -101 56.5 -155.5t146.5 -54.5q88 0 154 30l13 -39q-70 -33 -172 -33q-111 0 -178.5 67.5t-67.5 172.5q0 120 68 192t172 72q51 0 90 -17.5t61 -42t35.5 -57t18 -57.5t4.5 -48q0 -22 -2 -30zM94 279h347q0 23 -6 48.5t-21.5 56
t-51 49.5t-85.5 19q-57 0 -99 -29t-60 -66t-24 -78z" />
    <glyph glyph-name="ecircumflex" unicode="&#xea;" horiz-adv-x="537" 
d="M261 692h38l100 -140h-51l-67 102h-2l-67 -102h-47zM490 240h-399q0 -101 56.5 -155.5t146.5 -54.5q88 0 154 30l13 -39q-70 -33 -172 -33q-111 0 -178.5 67.5t-67.5 172.5q0 120 68 192t172 72q51 0 90 -17.5t61 -42t35.5 -57t18 -57.5t4.5 -48q0 -22 -2 -30zM94 279
h347q0 23 -6 48.5t-21.5 56t-51 49.5t-85.5 19q-57 0 -99 -29t-60 -66t-24 -78z" />
    <glyph glyph-name="edieresis" unicode="&#xeb;" horiz-adv-x="537" 
d="M198 581h-1q-17 0 -27 12t-10 29q0 16 11.5 28.5t27.5 12.5t27 -12t11 -29t-10.5 -29t-28.5 -12zM377 581h-1q-17 0 -27 12t-10 29q0 16 11.5 28.5t27.5 12.5t27 -12t11 -29t-10.5 -29t-28.5 -12zM490 240h-399q0 -101 56.5 -155.5t146.5 -54.5q88 0 154 30l13 -39
q-70 -33 -172 -33q-111 0 -178.5 67.5t-67.5 172.5q0 120 68 192t172 72q51 0 90 -17.5t61 -42t35.5 -57t18 -57.5t4.5 -48q0 -22 -2 -30zM94 279h347q0 23 -6 48.5t-21.5 56t-51 49.5t-85.5 19q-57 0 -99 -29t-60 -66t-24 -78z" />
    <glyph glyph-name="igrave" unicode="&#xec;" horiz-adv-x="225" 
d="M-24 692h74l91 -140h-38zM137 0h-49v480h49v-480z" />
    <glyph glyph-name="iacute" unicode="&#xed;" horiz-adv-x="225" 
d="M162 692h74l-127 -140h-38zM137 0h-49v480h49v-480z" />
    <glyph glyph-name="icircumflex" unicode="&#xee;" horiz-adv-x="225" 
d="M92 692h38l100 -140h-51l-67 102h-2l-67 -102h-47zM137 0h-49v480h49v-480z" />
    <glyph glyph-name="idieresis" unicode="&#xef;" horiz-adv-x="225" 
d="M23 581h-1q-17 0 -27 12t-10 29q0 16 11.5 28.5t27.5 12.5t27 -12t11 -29t-10.5 -29t-28.5 -12zM202 581h-1q-17 0 -27 12t-10 29q0 16 11.5 28.5t27.5 12.5t27 -12t11 -29t-10.5 -29t-28.5 -12zM137 0h-49v480h49v-480z" />
    <glyph glyph-name="eth" unicode="&#xf0;" horiz-adv-x="578" 
d="M282 28h1q86 0 142 57.5t56 160.5q0 56 -11 89t-38 59q-60 58 -145 58q-93 0 -144 -67t-51 -150q0 -94 57 -150.5t133 -56.5zM137 530l-14 35l135 63q-48 33 -122 60l20 40q82 -33 146 -78l132 64l16 -37l-113 -53q98 -74 149 -177q45 -90 45 -194q0 -68 -21.5 -120.5
t-58 -83t-79 -46t-89.5 -15.5q-106 0 -173 69.5t-67 175.5q0 115 73.5 187t169.5 72q99 0 168 -70l2 3q-58 102 -161 178z" />
    <glyph glyph-name="ntilde" unicode="&#xf1;" horiz-adv-x="591" 
d="M214 576h-34q-1 42 15.5 66t45.5 24q16 0 66 -25q30 -15 42 -15q26 0 29 43h33q0 -87 -60 -87q-20 0 -60 21q-35 19 -49 19q-24 0 -28 -46zM88 0v364q0 64 -4 116h46l4 -96h2q23 47 72.5 77.5t112.5 30.5q17 0 36.5 -3.5t48 -17t50 -35.5t37 -64.5t15.5 -98.5v-273h-49
v273q0 77 -37 127t-114 50q-56 0 -101 -33t-62 -81q-8 -22 -8 -43v-293h-49z" />
    <glyph glyph-name="ograve" unicode="&#xf2;" horiz-adv-x="591" 
d="M179 692h74l91 -140h-38zM297 492q113 0 182 -70.5t69 -175.5q0 -65 -23.5 -116t-61.5 -81t-82.5 -45.5t-90.5 -15.5q-107 0 -177 70t-70 177q0 116 74.5 186.5t179.5 70.5zM297 452q-97 0 -151 -62t-54 -152q0 -96 59.5 -153t141.5 -57q84 0 145 58t61 157
q0 79 -52.5 144t-149.5 65z" />
    <glyph glyph-name="oacute" unicode="&#xf3;" horiz-adv-x="591" 
d="M339 692h74l-127 -140h-38zM297 492q113 0 182 -70.5t69 -175.5q0 -65 -23.5 -116t-61.5 -81t-82.5 -45.5t-90.5 -15.5q-107 0 -177 70t-70 177q0 116 74.5 186.5t179.5 70.5zM297 452q-97 0 -151 -62t-54 -152q0 -96 59.5 -153t141.5 -57q84 0 145 58t61 157
q0 79 -52.5 144t-149.5 65z" />
    <glyph glyph-name="ocircumflex" unicode="&#xf4;" horiz-adv-x="591" 
d="M274 692h38l100 -140h-51l-67 102h-2l-67 -102h-47zM297 492q113 0 182 -70.5t69 -175.5q0 -65 -23.5 -116t-61.5 -81t-82.5 -45.5t-90.5 -15.5q-107 0 -177 70t-70 177q0 116 74.5 186.5t179.5 70.5zM297 452q-97 0 -151 -62t-54 -152q0 -96 59.5 -153t141.5 -57
q84 0 145 58t61 157q0 79 -52.5 144t-149.5 65z" />
    <glyph glyph-name="otilde" unicode="&#xf5;" horiz-adv-x="591" 
d="M214 576h-34q-1 42 15.5 66t45.5 24q16 0 66 -25q30 -15 42 -15q26 0 29 43h33q0 -87 -60 -87q-20 0 -60 21q-35 19 -49 19q-24 0 -28 -46zM297 492q113 0 182 -70.5t69 -175.5q0 -65 -23.5 -116t-61.5 -81t-82.5 -45.5t-90.5 -15.5q-107 0 -177 70t-70 177
q0 116 74.5 186.5t179.5 70.5zM297 452q-97 0 -151 -62t-54 -152q0 -96 59.5 -153t141.5 -57q84 0 145 58t61 157q0 79 -52.5 144t-149.5 65z" />
    <glyph glyph-name="odieresis" unicode="&#xf6;" horiz-adv-x="591" 
d="M205 581h-1q-17 0 -27 12t-10 29q0 16 11.5 28.5t27.5 12.5t27 -12t11 -29t-10.5 -29t-28.5 -12zM384 581h-1q-17 0 -27 12t-10 29q0 16 11.5 28.5t27.5 12.5t27 -12t11 -29t-10.5 -29t-28.5 -12zM297 492q113 0 182 -70.5t69 -175.5q0 -65 -23.5 -116t-61.5 -81
t-82.5 -45.5t-90.5 -15.5q-107 0 -177 70t-70 177q0 116 74.5 186.5t179.5 70.5zM297 452q-97 0 -151 -62t-54 -152q0 -96 59.5 -153t141.5 -57q84 0 145 58t61 157q0 79 -52.5 144t-149.5 65z" />
    <glyph glyph-name="divide" unicode="&#xf7;" horiz-adv-x="596" 
d="M298 394h-1q-18 0 -30 14t-11 32q0 20 12 33.5t31 13.5t30.5 -13.5t11.5 -33.5q0 -19 -12 -32.5t-31 -13.5zM556 247h-516v40h516v-40zM298 47h-1q-18 0 -30 14t-11 32q0 20 12 33.5t31 13.5t30.5 -13.5t11.5 -33.5q0 -19 -12 -32.5t-31 -13.5z" />
    <glyph glyph-name="oslash" unicode="&#xf8;" horiz-adv-x="591" 
d="M298 492h1q79 0 141 -41l45 56l31 -23l-45 -57q77 -74 77 -180q0 -65 -23 -116t-60 -81.5t-80.5 -46t-89.5 -15.5q-85 0 -145 42l-47 -57l-28 27l45 55q-77 72 -77 180q0 116 74.5 186.5t180.5 70.5zM149 88l265 328q-48 36 -119 36q-98 0 -150.5 -63t-52.5 -151
q0 -91 55 -150h2zM441 391l-264 -328q47 -35 113 -35q89 0 149 58.5t60 157.5q0 86 -56 147h-2z" />
    <glyph glyph-name="ugrave" unicode="&#xf9;" horiz-adv-x="586" 
d="M168 692h74l91 -140h-38zM498 480v-364q0 -64 4 -116h-46l-3 97h-2q-25 -46 -72.5 -77.5t-114.5 -31.5q-21 0 -40.5 3.5t-46.5 17t-46.5 36t-33.5 65.5t-14 101v269h49v-259q0 -190 145 -190q53 0 96.5 29t63.5 73q12 30 12 56v291h49z" />
    <glyph glyph-name="uacute" unicode="&#xfa;" horiz-adv-x="586" 
d="M352 692h74l-127 -140h-38zM498 480v-364q0 -64 4 -116h-46l-3 97h-2q-25 -46 -72.5 -77.5t-114.5 -31.5q-21 0 -40.5 3.5t-46.5 17t-46.5 36t-33.5 65.5t-14 101v269h49v-259q0 -190 145 -190q53 0 96.5 29t63.5 73q12 30 12 56v291h49z" />
    <glyph glyph-name="ucircumflex" unicode="&#xfb;" horiz-adv-x="586" 
d="M272 692h38l100 -140h-51l-67 102h-2l-67 -102h-47zM498 480v-364q0 -64 4 -116h-46l-3 97h-2q-25 -46 -72.5 -77.5t-114.5 -31.5q-21 0 -40.5 3.5t-46.5 17t-46.5 36t-33.5 65.5t-14 101v269h49v-259q0 -190 145 -190q53 0 96.5 29t63.5 73q12 30 12 56v291h49z" />
    <glyph glyph-name="udieresis" unicode="&#xfc;" horiz-adv-x="586" 
d="M206 581h-1q-17 0 -27 12t-10 29q0 16 11.5 28.5t27.5 12.5t27 -12t11 -29t-10.5 -29t-28.5 -12zM385 581h-1q-17 0 -27 12t-10 29q0 16 11.5 28.5t27.5 12.5t27 -12t11 -29t-10.5 -29t-28.5 -12zM498 480v-364q0 -64 4 -116h-46l-3 97h-2q-25 -46 -72.5 -77.5
t-114.5 -31.5q-21 0 -40.5 3.5t-46.5 17t-46.5 36t-33.5 65.5t-14 101v269h49v-259q0 -190 145 -190q53 0 96.5 29t63.5 73q12 30 12 56v291h49z" />
    <glyph glyph-name="yacute" unicode="&#xfd;" horiz-adv-x="480" 
d="M299 692h74l-127 -140h-38zM9 480h53l143 -321q26 -57 39 -101h2q26 71 40 105l134 317h53l-170 -388q-52 -119 -89.5 -179.5t-83.5 -93.5q-48 -35 -88 -43l-13 41q51 15 88 47q56 47 92 129q6 13 6 19q0 7 -7 22z" />
    <glyph glyph-name="thorn" unicode="&#xfe;" horiz-adv-x="613" 
d="M88 666h49v-281h2q66 107 200 107q102 0 166.5 -70.5t64.5 -171.5q0 -124 -71 -193t-175 -69q-124 0 -185 97h-2v-285h-49v866zM137 273v-84q0 -23 8 -44q18 -50 68 -83.5t115 -33.5q85 0 139 58.5t54 162.5q0 85 -53 144t-139 59q-58 0 -108 -31.5t-72 -88.5
q-12 -34 -12 -59z" />
    <glyph glyph-name="ydieresis" unicode="&#xff;" horiz-adv-x="480" 
d="M164 581h-1q-17 0 -27 12t-10 29q0 16 11.5 28.5t27.5 12.5t27 -12t11 -29t-10.5 -29t-28.5 -12zM343 581h-1q-17 0 -27 12t-10 29q0 16 11.5 28.5t27.5 12.5t27 -12t11 -29t-10.5 -29t-28.5 -12zM9 480h53l143 -321q26 -57 39 -101h2q26 71 40 105l134 317h53l-170 -388
q-52 -119 -89.5 -179.5t-83.5 -93.5q-48 -35 -88 -43l-13 41q51 15 88 47q56 47 92 129q6 13 6 19q0 7 -7 22z" />
    <glyph glyph-name="Amacron" unicode="&#x100;" horiz-adv-x="640" 
d="M474 237h-300l-93 -237h-51l272 674h48l270 -674h-51zM191 278h267l-95 237q-19 47 -37 107h-2q-13 -43 -37 -104zM202 772h237v-40h-237v40z" />
    <glyph glyph-name="amacron" unicode="&#x101;" horiz-adv-x="496" 
d="M140 633h217v-41h-217v41zM416 290v-174q0 -64 8 -116h-45l-8 74h-2q-23 -33 -68.5 -59.5t-105.5 -26.5q-75 0 -114 41t-39 91q0 85 81 132t244 45v11q0 15 -1.5 29.5t-9.5 36.5t-21.5 38t-40.5 27.5t-63 11.5q-81 0 -138 -40l-16 35q70 46 158 46q181 0 181 -202z
M367 154v102q-53 2 -97 -2.5t-86 -17.5t-66 -40t-24 -67q0 -49 30 -75t75 -26q63 0 104 29.5t58 68.5q6 15 6 28z" />
    <glyph glyph-name="Abreve" unicode="&#x102;" horiz-adv-x="640" 
d="M474 237h-300l-93 -237h-51l272 674h48l270 -674h-51zM191 278h267l-95 237q-19 47 -37 107h-2q-13 -43 -37 -104zM201 810h36q14 -53 84 -53q74 0 82 53h36q-2 -42 -31 -69.5t-90 -27.5q-59 0 -87 27.5t-30 69.5z" />
    <glyph glyph-name="abreve" unicode="&#x103;" horiz-adv-x="496" 
d="M127 681h38q6 -33 28.5 -55t54.5 -22q38 0 58.5 23.5t24.5 53.5h38q-1 -53 -35 -85t-86 -32q-62 0 -91 35.5t-30 81.5zM416 290v-174q0 -64 8 -116h-45l-8 74h-2q-23 -33 -68.5 -59.5t-105.5 -26.5q-75 0 -114 41t-39 91q0 85 81 132t244 45v11q0 15 -1.5 29.5t-9.5 36.5
t-21.5 38t-40.5 27.5t-63 11.5q-81 0 -138 -40l-16 35q70 46 158 46q181 0 181 -202zM367 154v102q-53 2 -97 -2.5t-86 -17.5t-66 -40t-24 -67q0 -49 30 -75t75 -26q63 0 104 29.5t58 68.5q6 15 6 28z" />
    <glyph glyph-name="Aogonek" unicode="&#x104;" horiz-adv-x="640" 
d="M350 674l270 -674l-10 -4q-75 -59 -75 -109q0 -23 14 -36t37 -13t47 11l9 -29q-24 -18 -68 -18q-38 0 -61 20t-23 55q0 23 13.5 49t27 41t36.5 38l-93 232h-300l-93 -237h-51l272 674h48zM191 278h267l-95 237q-19 47 -37 107h-2q-13 -43 -37 -104z" />
    <glyph glyph-name="aogonek" unicode="&#x105;" horiz-adv-x="496" 
d="M416 290v-174q0 -64 8 -116h-7q-51 -59 -51 -110q0 -49 51 -49q25 0 47 10l9 -30q-24 -18 -70 -18q-37 0 -59.5 20t-22.5 55q0 23 11 49.5t19 39t27 39.5l-7 68h-2q-23 -33 -68.5 -59.5t-105.5 -26.5q-75 0 -114 41t-39 91q0 85 81 132t244 45v11q0 15 -1.5 29.5
t-9.5 36.5t-21.5 38t-40.5 27.5t-63 11.5q-81 0 -138 -40l-16 35q70 46 158 46q181 0 181 -202zM367 154v102q-53 2 -97 -2.5t-86 -17.5t-66 -40t-24 -67q0 -49 30 -75t75 -26q63 0 104 29.5t58 68.5q6 15 6 28z" />
    <glyph glyph-name="Cacute" unicode="&#x106;" horiz-adv-x="640" 
d="M590 66l15 -39q-78 -39 -211 -39q-70 0 -132.5 21.5t-113 63t-80.5 109t-30 152.5q0 67 25 129.5t71 112.5t120.5 80t166.5 30q111 0 182 -34l-16 -41q-68 34 -163 34q-160 0 -247.5 -87t-87.5 -228q0 -130 85 -215t238 -85q106 0 178 36zM453 829h76l-132 -115h-40z" />
    <glyph glyph-name="cacute" unicode="&#x107;" horiz-adv-x="498" 
d="M332 692h74l-127 -140h-38zM444 62l14 -39q-74 -35 -161 -35q-113 0 -183.5 69.5t-70.5 175.5q0 118 77.5 188.5t195.5 70.5q97 0 146 -34l-18 -40q-56 32 -132 32q-104 0 -162 -60t-58 -151q0 -93 60 -151t152 -58q65 0 140 32z" />
    <glyph glyph-name="Ccircumflex" unicode="&#x108;" horiz-adv-x="640" 
d="M590 66l15 -39q-78 -39 -211 -39q-70 0 -132.5 21.5t-113 63t-80.5 109t-30 152.5q0 67 25 129.5t71 112.5t120.5 80t166.5 30q111 0 182 -34l-16 -41q-68 34 -163 34q-160 0 -247.5 -87t-87.5 -228q0 -130 85 -215t238 -85q106 0 178 36zM361 830h36l113 -115h-54
l-76 79h-2l-76 -79h-50z" />
    <glyph glyph-name="ccircumflex" unicode="&#x109;" horiz-adv-x="498" 
d="M260 692h38l100 -140h-51l-67 102h-2l-67 -102h-47zM444 62l14 -39q-74 -35 -161 -35q-113 0 -183.5 69.5t-70.5 175.5q0 118 77.5 188.5t195.5 70.5q97 0 146 -34l-18 -40q-56 32 -132 32q-104 0 -162 -60t-58 -151q0 -93 60 -151t152 -58q65 0 140 32z" />
    <glyph glyph-name="Cdotaccent" unicode="&#x10a;" horiz-adv-x="640" 
d="M590 66l15 -39q-78 -39 -211 -39q-70 0 -132.5 21.5t-113 63t-80.5 109t-30 152.5q0 67 25 129.5t71 112.5t120.5 80t166.5 30q111 0 182 -34l-16 -41q-68 34 -163 34q-160 0 -247.5 -87t-87.5 -228q0 -130 85 -215t238 -85q106 0 178 36zM376 724h-1q-15 0 -26 12.5
t-11 28.5q0 15 11.5 28t27.5 13t27 -13t11 -28q0 -16 -11 -28.5t-28 -12.5z" />
    <glyph glyph-name="cdotaccent" unicode="&#x10b;" horiz-adv-x="498" 
d="M281 581h-1q-16 0 -27 12.5t-11 29.5q0 16 12 29t28 13t27.5 -12.5t11.5 -29.5t-11 -29.5t-29 -12.5zM444 62l14 -39q-74 -35 -161 -35q-113 0 -183.5 69.5t-70.5 175.5q0 118 77.5 188.5t195.5 70.5q97 0 146 -34l-18 -40q-56 32 -132 32q-104 0 -162 -60t-58 -151
q0 -93 60 -151t152 -58q65 0 140 32z" />
    <glyph glyph-name="Ccaron" unicode="&#x10c;" horiz-adv-x="640" 
d="M590 66l15 -39q-78 -39 -211 -39q-70 0 -132.5 21.5t-113 63t-80.5 109t-30 152.5q0 67 25 129.5t71 112.5t120.5 80t166.5 30q111 0 182 -34l-16 -41q-68 34 -163 34q-160 0 -247.5 -87t-87.5 -228q0 -130 85 -215t238 -85q106 0 178 36zM404 715h-36l-113 115h54
l77 -78h2l75 78h50z" />
    <glyph glyph-name="ccaron" unicode="&#x10d;" horiz-adv-x="498" 
d="M304 552h-42l-100 140h51l69 -103h2l69 103h47zM444 62l14 -39q-74 -35 -161 -35q-113 0 -183.5 69.5t-70.5 175.5q0 118 77.5 188.5t195.5 70.5q97 0 146 -34l-18 -40q-56 32 -132 32q-104 0 -162 -60t-58 -151q0 -93 60 -151t152 -58q65 0 140 32z" />
    <glyph glyph-name="Dcaron" unicode="&#x10e;" horiz-adv-x="724" 
d="M88 0v665q113 15 202 15q216 0 315 -108q81 -88 81 -220q0 -146 -93 -246q-106 -112 -330 -112q-105 0 -175 6zM137 626v-585q38 -6 134 -6q183 0 274 88t91 228q2 131 -85.5 209.5t-264.5 78.5q-84 0 -149 -13zM358 714h-36l-113 115h54l77 -78h2l75 78h50z" />
    <glyph glyph-name="dcaron" unicode="&#x10f;" horiz-adv-x="612" 
d="M465 716h49v-600q0 -64 4 -116h-45l-3 100h-2q-23 -49 -73 -80.5t-121 -31.5q-100 0 -165.5 70t-65.5 171q-1 115 69 189t173 74q68 0 113.5 -28t64.5 -64h2v316zM465 202v85q0 26 -6 47q-17 51 -62.5 84.5t-110.5 33.5q-86 0 -140 -60t-54 -157q0 -87 50 -147t143 -60
q61 0 110 37.5t64 94.5q6 19 6 42zM581 547l-18 25q45 30 45 78q0 36 -38 61l43 12q15 -8 27 -27.5t12 -43.5q0 -70 -71 -105z" />
    <glyph glyph-name="Dcroat" unicode="&#x110;" horiz-adv-x="725" 
d="M-6 317v40h94v311q113 15 202 15q216 0 315 -108q81 -88 81 -223q0 -146 -93 -246q-106 -112 -330 -112q-105 0 -175 6v317h-94zM376 357v-40h-239v-276q38 -6 134 -6q183 0 274 88.5t91 230.5q2 131 -85.5 209.5t-264.5 78.5q-84 0 -149 -13v-272h239z" />
    <glyph glyph-name="dcroat" unicode="&#x111;" horiz-adv-x="602" 
d="M596 562h-82v-446q0 -64 4 -116h-45l-3 100h-2q-23 -49 -73 -80.5t-121 -31.5q-100 0 -165.5 70t-65.5 171q-1 115 69 189t173 74q68 0 113.5 -28t64.5 -64h2v162h-233v39h233v115h49v-115h82v-39zM465 202v85q0 26 -6 47q-17 51 -62.5 84.5t-110.5 33.5q-86 0 -140 -60
t-54 -157q0 -87 50 -147t143 -60q61 0 110 37.5t64 94.5q6 19 6 42z" />
    <glyph glyph-name="Emacron" unicode="&#x112;" horiz-adv-x="511" 
d="M437 376v-41h-300v-294h334v-41h-383v674h366v-41h-317v-257h300zM155 772h237v-40h-237v40z" />
    <glyph glyph-name="emacron" unicode="&#x113;" horiz-adv-x="537" 
d="M160 633h217v-41h-217v41zM490 240h-399q0 -101 56.5 -155.5t146.5 -54.5q88 0 154 30l13 -39q-70 -33 -172 -33q-111 0 -178.5 67.5t-67.5 172.5q0 120 68 192t172 72q51 0 90 -17.5t61 -42t35.5 -57t18 -57.5t4.5 -48q0 -22 -2 -30zM94 279h347q0 23 -6 48.5t-21.5 56
t-51 49.5t-85.5 19q-57 0 -99 -29t-60 -66t-24 -78z" />
    <glyph glyph-name="Ebreve" unicode="&#x114;" horiz-adv-x="511" 
d="M437 376v-41h-300v-294h334v-41h-383v674h366v-41h-317v-257h300zM142 825h36q14 -53 84 -53q74 0 82 53h36q-2 -42 -31 -69.5t-90 -27.5q-59 0 -87 27.5t-30 69.5z" />
    <glyph glyph-name="ebreve" unicode="&#x115;" horiz-adv-x="537" 
d="M147 681h38q6 -33 28.5 -55t54.5 -22q38 0 58.5 23.5t24.5 53.5h38q-1 -53 -35 -85t-86 -32q-62 0 -91 35.5t-30 81.5zM490 240h-399q0 -101 56.5 -155.5t146.5 -54.5q88 0 154 30l13 -39q-70 -33 -172 -33q-111 0 -178.5 67.5t-67.5 172.5q0 120 68 192t172 72
q51 0 90 -17.5t61 -42t35.5 -57t18 -57.5t4.5 -48q0 -22 -2 -30zM94 279h347q0 23 -6 48.5t-21.5 56t-51 49.5t-85.5 19q-57 0 -99 -29t-60 -66t-24 -78z" />
    <glyph glyph-name="Edotaccent" unicode="&#x116;" horiz-adv-x="511" 
d="M437 376v-41h-300v-294h334v-41h-383v674h366v-41h-317v-257h300zM255 724h-1q-15 0 -26 12.5t-11 28.5q0 15 11.5 28t27.5 13t27 -13t11 -28q0 -16 -11 -28.5t-28 -12.5z" />
    <glyph glyph-name="edotaccent" unicode="&#x117;" horiz-adv-x="537" 
d="M268 581h-1q-16 0 -27 12.5t-11 29.5q0 16 12 29t28 13t27.5 -12.5t11.5 -29.5t-11 -29.5t-29 -12.5zM490 240h-399q0 -101 56.5 -155.5t146.5 -54.5q88 0 154 30l13 -39q-70 -33 -172 -33q-111 0 -178.5 67.5t-67.5 172.5q0 120 68 192t172 72q51 0 90 -17.5t61 -42
t35.5 -57t18 -57.5t4.5 -48q0 -22 -2 -30zM94 279h347q0 23 -6 48.5t-21.5 56t-51 49.5t-85.5 19q-57 0 -99 -29t-60 -66t-24 -78z" />
    <glyph glyph-name="Eogonek" unicode="&#x118;" horiz-adv-x="511" 
d="M466 -153l9 -32q-30 -13 -64 -13q-41 0 -64.5 19t-23.5 55t26 69.5t59 54.5h-320v674h366v-41h-317v-257h300v-41h-300v-294h334v-41h-11q-38 -25 -65 -56t-27 -59q0 -45 53 -45q24 0 45 7z" />
    <glyph glyph-name="eogonek" unicode="&#x119;" horiz-adv-x="537" 
d="M402 -150l9 -30q-28 -17 -67 -17q-38 0 -60.5 19.5t-22.5 55.5q0 32 22.5 62t52.5 49v1q-30 -2 -47 -2q-111 0 -178.5 67.5t-67.5 172.5q0 120 68 192t172 72q51 0 90 -17.5t61 -42t35.5 -57t18 -57.5t4.5 -48q0 -22 -2 -30h-399q0 -101 56.5 -155.5t146.5 -54.5
q88 0 154 30l13 -39q-8 -4 -20 -8.5t-23.5 -8t-13.5 -4.5q-34 -14 -66 -47t-32 -64q0 -23 13.5 -35.5t32.5 -12.5q30 0 50 9zM94 279h347q0 23 -6 48.5t-21.5 56t-51 49.5t-85.5 19q-57 0 -99 -29t-60 -66t-24 -78z" />
    <glyph glyph-name="Ecaron" unicode="&#x11a;" horiz-adv-x="511" 
d="M437 376v-41h-300v-294h334v-41h-383v674h366v-41h-317v-257h300zM290 710h-36l-113 115h54l77 -78h2l75 78h50z" />
    <glyph glyph-name="ecaron" unicode="&#x11b;" horiz-adv-x="537" 
d="M291 552h-42l-100 140h51l69 -103h2l69 103h47zM490 240h-399q0 -101 56.5 -155.5t146.5 -54.5q88 0 154 30l13 -39q-70 -33 -172 -33q-111 0 -178.5 67.5t-67.5 172.5q0 120 68 192t172 72q51 0 90 -17.5t61 -42t35.5 -57t18 -57.5t4.5 -48q0 -22 -2 -30zM94 279h347
q0 23 -6 48.5t-21.5 56t-51 49.5t-85.5 19q-57 0 -99 -29t-60 -66t-24 -78z" />
    <glyph glyph-name="Gcircumflex" unicode="&#x11c;" horiz-adv-x="694" 
d="M631 333v-299q-105 -41 -226 -41q-166 0 -269 96q-46 43 -72 108t-26 141q0 62 23.5 121t69.5 109.5t123.5 81.5t174.5 31q107 0 180 -34l-16 -40q-71 33 -166 33q-160 0 -249 -86.5t-89 -217.5q0 -134 87 -218t238 -84q114 0 168 28v231h-174v40h223zM368 829h36
l113 -115h-54l-76 79h-2l-76 -79h-50z" />
    <glyph glyph-name="gcircumflex" unicode="&#x11d;" horiz-adv-x="602" 
d="M280 698h38l100 -140h-51l-67 102h-2l-67 -102h-47zM514 364v-293q0 -158 -74 -224q-66 -59 -180 -59q-109 0 -171 47l18 39q69 -46 161 -46q91 0 144 49.5t53 154.5v70h-2q-24 -43 -72.5 -72.5t-118.5 -29.5q-100 0 -164.5 70t-64.5 164q0 116 71.5 187t168.5 71
q72 0 118.5 -30t66.5 -71h2l3 89h45q-4 -52 -4 -116zM465 207v80q0 29 -7 50q-18 50 -63 82.5t-107 32.5q-87 0 -141.5 -58.5t-54.5 -153.5q0 -80 50 -140t144 -60q56 0 102.5 32.5t66.5 82.5q10 25 10 52z" />
    <glyph glyph-name="Gbreve" unicode="&#x11e;" horiz-adv-x="694" 
d="M631 333v-299q-105 -41 -226 -41q-166 0 -269 96q-46 43 -72 108t-26 141q0 62 23.5 121t69.5 109.5t123.5 81.5t174.5 31q107 0 180 -34l-16 -40q-71 33 -166 33q-160 0 -249 -86.5t-89 -217.5q0 -134 87 -218t238 -84q114 0 168 28v231h-174v40h223zM255 825h36
q14 -53 84 -53q74 0 82 53h36q-2 -42 -31 -69.5t-90 -27.5q-59 0 -87 27.5t-30 69.5z" />
    <glyph glyph-name="gbreve" unicode="&#x11f;" horiz-adv-x="602" 
d="M165 681h38q6 -33 28.5 -55t54.5 -22q38 0 58.5 23.5t24.5 53.5h38q-1 -53 -35 -85t-86 -32q-62 0 -91 35.5t-30 81.5zM514 364v-293q0 -158 -74 -224q-66 -59 -180 -59q-109 0 -171 47l18 39q69 -46 161 -46q91 0 144 49.5t53 154.5v70h-2q-24 -43 -72.5 -72.5
t-118.5 -29.5q-100 0 -164.5 70t-64.5 164q0 116 71.5 187t168.5 71q72 0 118.5 -30t66.5 -71h2l3 89h45q-4 -52 -4 -116zM465 207v80q0 29 -7 50q-18 50 -63 82.5t-107 32.5q-87 0 -141.5 -58.5t-54.5 -153.5q0 -80 50 -140t144 -60q56 0 102.5 32.5t66.5 82.5q10 25 10 52
z" />
    <glyph glyph-name="Gdotaccent" unicode="&#x120;" horiz-adv-x="694" 
d="M631 333v-299q-105 -41 -226 -41q-166 0 -269 96q-46 43 -72 108t-26 141q0 62 23.5 121t69.5 109.5t123.5 81.5t174.5 31q107 0 180 -34l-16 -40q-71 33 -166 33q-160 0 -249 -86.5t-89 -217.5q0 -134 87 -218t238 -84q114 0 168 28v231h-174v40h223zM389 724h-1
q-15 0 -26 12.5t-11 28.5q0 15 11.5 28t27.5 13t27 -13t11 -28q0 -16 -11 -28.5t-28 -12.5z" />
    <glyph glyph-name="gdotaccent" unicode="&#x121;" horiz-adv-x="602" 
d="M301 587h-1q-16 0 -27 12.5t-11 29.5q0 16 12 29t28 13t27.5 -12.5t11.5 -29.5t-11 -29.5t-29 -12.5zM514 364v-293q0 -158 -74 -224q-66 -59 -180 -59q-109 0 -171 47l18 39q69 -46 161 -46q91 0 144 49.5t53 154.5v70h-2q-24 -43 -72.5 -72.5t-118.5 -29.5
q-100 0 -164.5 70t-64.5 164q0 116 71.5 187t168.5 71q72 0 118.5 -30t66.5 -71h2l3 89h45q-4 -52 -4 -116zM465 207v80q0 29 -7 50q-18 50 -63 82.5t-107 32.5q-87 0 -141.5 -58.5t-54.5 -153.5q0 -80 50 -140t144 -60q56 0 102.5 32.5t66.5 82.5q10 25 10 52z" />
    <glyph glyph-name="Gcommaaccent" unicode="&#x122;" horiz-adv-x="694" 
d="M631 333v-299q-105 -41 -226 -41q-166 0 -269 96q-46 43 -72 108t-26 141q0 62 23.5 121t69.5 109.5t123.5 81.5t174.5 31q107 0 180 -34l-16 -40q-71 33 -166 33q-160 0 -249 -86.5t-89 -217.5q0 -134 87 -218t238 -84q114 0 168 28v231h-174v40h223zM337 -210l-13 27
q85 9 85 68q0 36 -38 61l40 12q17 -10 29.5 -29t12.5 -42q0 -47 -36.5 -71t-79.5 -26z" />
    <glyph glyph-name="gcommaaccent" unicode="&#x123;" horiz-adv-x="602" 
d="M514 364v-293q0 -158 -74 -224q-66 -59 -180 -59q-109 0 -171 47l18 39q69 -46 161 -46q91 0 144 49.5t53 154.5v70h-2q-24 -43 -72.5 -72.5t-118.5 -29.5q-100 0 -164.5 70t-64.5 164q0 116 71.5 187t168.5 71q72 0 118.5 -30t66.5 -71h2l3 89h45q-4 -52 -4 -116z
M465 207v80q0 29 -7 50q-18 50 -63 82.5t-107 32.5q-87 0 -141.5 -58.5t-54.5 -153.5q0 -80 50 -140t144 -60q56 0 102.5 32.5t66.5 82.5q10 25 10 52zM350 704l13 -27q-85 -9 -85 -68q0 -36 38 -61l-40 -12q-17 10 -29.5 29t-12.5 42q0 47 36.5 71t79.5 26z" />
    <glyph glyph-name="Hcircumflex" unicode="&#x124;" horiz-adv-x="696" 
d="M88 674h49v-295h422v295h49v-674h-49v338h-422v-338h-49v674zM328 825h36l113 -115h-54l-76 79h-2l-76 -79h-50z" />
    <glyph glyph-name="hcircumflex" unicode="&#x125;" horiz-adv-x="591" 
d="M88 0v716h49v-333h2q25 50 74 78q51 31 108 31q18 0 37.5 -3.5t48 -16.5t49.5 -35t36.5 -64.5t15.5 -98.5v-274h-49v272q0 77 -36.5 127t-114.5 50q-55 0 -100 -33t-63 -80q-8 -20 -8 -51v-285h-49zM97 843h36l113 -115h-54l-76 79h-2l-76 -79h-50z" />
    <glyph glyph-name="Hbar" unicode="&#x126;" horiz-adv-x="696" 
d="M662 482h-54v-482h-49v330h-422v-330h-49v482h-54v39h54v153h49v-153h422v153h49v-153h54v-39zM559 371v111h-422v-111h422z" />
    <glyph glyph-name="hbar" unicode="&#x127;" horiz-adv-x="591" 
d="M508 0h-49v272q0 77 -36.5 127t-114.5 50q-55 0 -100 -33t-63 -80q-8 -20 -8 -51v-285h-49v562h-82v39h82v115h49v-115h223v-39h-223v-179h2q25 50 74 78q51 31 108 31q18 0 37.5 -3.5t48 -16.5t49.5 -35t36.5 -64.5t15.5 -98.5v-274z" />
    <glyph glyph-name="Itilde" unicode="&#x128;" horiz-adv-x="225" 
d="M88 674h49v-674h-49v674zM27 715h-34q-1 37 17 62.5t48 25.5q20 0 61 -22q34 -17 53 -17q25 0 27 38h34q0 -82 -61 -82q-23 0 -63 20t-54 20q-23 0 -28 -45z" />
    <glyph glyph-name="itilde" unicode="&#x129;" horiz-adv-x="225" 
d="M32 576h-34q-1 42 15.5 66t45.5 24q16 0 66 -25q30 -15 42 -15q26 0 29 43h33q0 -87 -60 -87q-20 0 -60 21q-35 19 -49 19q-24 0 -28 -46zM137 0h-49v480h49v-480z" />
    <glyph glyph-name="Imacron" unicode="&#x12a;" horiz-adv-x="225" 
d="M88 674h49v-674h-49v674zM-5 772h237v-40h-237v40z" />
    <glyph glyph-name="imacron" unicode="&#x12b;" horiz-adv-x="225" 
d="M5 633h217v-41h-217v41zM137 0h-49v480h49v-480z" />
    <glyph glyph-name="Ibreve" unicode="&#x12c;" horiz-adv-x="225" 
d="M88 674h49v-674h-49v674zM-6 818h36q14 -53 84 -53q74 0 82 53h36q-2 -42 -31 -69.5t-90 -27.5q-59 0 -87 27.5t-30 69.5z" />
    <glyph glyph-name="ibreve" unicode="&#x12d;" horiz-adv-x="225" 
d="M-2 681h38q6 -33 28.5 -55t54.5 -22q38 0 58.5 23.5t24.5 53.5h38q-1 -53 -35 -85t-86 -32q-62 0 -91 35.5t-30 81.5zM137 0h-49v480h49v-480z" />
    <glyph glyph-name="Iogonek" unicode="&#x12e;" horiz-adv-x="225" 
d="M137 674v-674h-6q-55 -69 -55 -116q0 -49 51 -49q25 0 47 10l9 -30q-24 -18 -70 -18q-37 0 -59.5 20t-22.5 55q0 23 11 49.5t19 39t27 39.5v674h49z" />
    <glyph glyph-name="iogonek" unicode="&#x12f;" horiz-adv-x="225" 
d="M112 588h-1q-17 0 -28 13t-11 30t12 30t29 13t28.5 -12.5t11.5 -30.5q0 -17 -11.5 -30t-29.5 -13zM137 480v-480h-6q-55 -69 -55 -116q0 -49 51 -49q25 0 47 10l9 -30q-24 -18 -70 -18q-37 0 -59.5 20t-22.5 55q0 23 11 49.5t19 39t27 39.5v480h49z" />
    <glyph glyph-name="Idotaccent" unicode="&#x130;" horiz-adv-x="225" 
d="M88 674h49v-674h-49v674zM113 724h-1q-15 0 -26 12.5t-11 28.5q0 15 11.5 28t27.5 13t27 -13t11 -28q0 -16 -11 -28.5t-28 -12.5z" />
    <glyph glyph-name="dotlessi" unicode="&#x131;" horiz-adv-x="225" 
d="M137 0h-49v480h49v-480z" />
    <glyph glyph-name="IJ" unicode="&#x132;" horiz-adv-x="603" 
d="M88 674h49v-674h-49v674zM474 233v441h49v-454q0 -232 -196 -232q-58 0 -96 19l12 40q36 -17 84 -17q74 0 110.5 44.5t36.5 158.5z" />
    <glyph glyph-name="ij" unicode="&#x133;" horiz-adv-x="455" 
d="M137 0h-49v480h49v-480zM113 665q17 0 28.5 -12.5t11.5 -30.5q0 -17 -11.5 -30t-30.5 -13q-17 0 -28 13t-11 30t12 30t29 13zM172 -212l-5 40q75 2 111 39q22 24 31 65t9 139v409h49v-445q0 -68 -11.5 -114t-43.5 -80q-26 -27 -66.5 -40t-73.5 -13zM344 665q17 0 28 -13
t11 -30t-11.5 -30t-30.5 -13q-17 0 -28 13t-11 30t12 30t30 13z" />
    <glyph glyph-name="Jcircumflex" unicode="&#x134;" horiz-adv-x="378" 
d="M249 233v441h49v-454q0 -232 -196 -232q-58 0 -96 19l12 40q36 -17 84 -17q74 0 110.5 44.5t36.5 158.5zM249 825h36l113 -115h-54l-76 79h-2l-76 -79h-50z" />
    <glyph glyph-name="jcircumflex" unicode="&#x135;" horiz-adv-x="230" 
d="M-53 -212l-5 40q75 2 111 39q22 24 31 65t9 139v409h49v-445q0 -68 -11.5 -114t-43.5 -80q-26 -27 -66.5 -40t-73.5 -13zM91 682h38l100 -140h-51l-67 102h-2l-67 -102h-47z" />
    <glyph glyph-name="Kcommaaccent" unicode="&#x136;" horiz-adv-x="540" 
d="M88 0v674h49v-345h4q15 20 61 68l269 277h62l-284 -287l314 -387h-61l-287 356l-78 -78v-278h-49zM216 -210l-13 27q85 9 85 68q0 36 -38 61l40 12q17 -10 29.5 -29t12.5 -42q0 -47 -36.5 -71t-79.5 -26z" />
    <glyph glyph-name="kcommaaccent" unicode="&#x137;" horiz-adv-x="458" 
d="M137 716v-467h2q24 28 53 55l187 176h62l-214 -198l245 -282h-61l-219 254l-55 -53v-201h-49v716h49zM175 -210l-13 27q85 9 85 68q0 36 -38 61l40 12q17 -10 29.5 -29t12.5 -42q0 -47 -36.5 -71t-79.5 -26z" />
    <glyph glyph-name="kgreenlandic" unicode="&#x138;" horiz-adv-x="458" 
d="M137 480v-231h2q24 28 53 55l187 176h62l-214 -198l245 -282h-61l-219 254l-55 -53v-201h-49v480h49z" />
    <glyph glyph-name="Lacute" unicode="&#x139;" horiz-adv-x="490" 
d="M88 0v674h49v-633h334v-41h-383zM196 825h76l-132 -115h-40z" />
    <glyph glyph-name="lacute" unicode="&#x13a;" horiz-adv-x="225" 
d="M88 0v716h49v-716h-49zM162 861h76l-132 -115h-40z" />
    <glyph glyph-name="Lcommaaccent" unicode="&#x13b;" horiz-adv-x="490" 
d="M88 0v674h49v-633h334v-41h-383zM206 -210l-13 27q85 9 85 68q0 36 -38 61l40 12q17 -10 29.5 -29t12.5 -42q0 -47 -36.5 -71t-79.5 -26z" />
    <glyph glyph-name="lcommaaccent" unicode="&#x13c;" horiz-adv-x="225" 
d="M88 0v716h49v-716h-49zM51 -210l-13 27q85 9 85 68q0 36 -38 61l40 12q17 -10 29.5 -29t12.5 -42q0 -47 -36.5 -71t-79.5 -26z" />
    <glyph glyph-name="Lcaron" unicode="&#x13d;" horiz-adv-x="490" 
d="M88 0v674h49v-633h334v-41h-383zM259 518l-13 27q85 9 85 68q0 36 -38 61l40 12q17 -10 29.5 -29t12.5 -42q0 -47 -36.5 -71t-79.5 -26z" />
    <glyph glyph-name="lcaron" unicode="&#x13e;" horiz-adv-x="235" 
d="M88 0v716h49v-716h-49zM196 547l-18 25q45 30 45 78q0 36 -38 61l43 12q15 -8 27 -27.5t12 -43.5q0 -70 -71 -105z" />
    <glyph glyph-name="Ldot" unicode="&#x13f;" horiz-adv-x="490" 
d="M88 0v674h49v-633h334v-41h-383zM349 328h-1q-15 0 -26 12.5t-11 28.5q0 15 11.5 28t27.5 13t27 -13t11 -28q0 -16 -11 -28.5t-28 -12.5z" />
    <glyph glyph-name="ldot" unicode="&#x140;" horiz-adv-x="235" 
d="M88 0v716h49v-716h-49zM227 349h-1q-16 0 -26.5 12.5t-10.5 28.5t11.5 28.5t27.5 12.5t27 -12t11 -29t-11 -29t-28 -12z" />
    <glyph glyph-name="Lslash" unicode="&#x141;" horiz-adv-x="490" 
d="M471 0h-383v298l-94 -65v44l94 64v333h49v-302l147 99v-44l-147 -99v-287h334v-41z" />
    <glyph glyph-name="lslash" unicode="&#x142;" horiz-adv-x="225" 
d="M137 0h-49v330l-72 -59v45l72 59v341h49v-304l72 59v-46l-72 -59v-366z" />
    <glyph glyph-name="Nacute" unicode="&#x143;" horiz-adv-x="706" 
d="M136 0h-48v674h46l305 -415q105 -143 137 -197l2 2q-8 89 -8 262v348h48v-674h-45l-295 401q-110 150 -145 209l-3 -2q6 -91 6 -248v-360zM411 825h76l-132 -115h-40z" />
    <glyph glyph-name="nacute" unicode="&#x144;" horiz-adv-x="591" 
d="M354 692h74l-127 -140h-38zM88 0v364q0 64 -4 116h46l4 -96h2q23 47 72.5 77.5t112.5 30.5q17 0 36.5 -3.5t48 -17t50 -35.5t37 -64.5t15.5 -98.5v-273h-49v273q0 77 -37 127t-114 50q-56 0 -101 -33t-62 -81q-8 -22 -8 -43v-293h-49z" />
    <glyph glyph-name="Ncommaaccent" unicode="&#x145;" horiz-adv-x="706" 
d="M136 0h-48v674h46l305 -415q105 -143 137 -197l2 2q-8 89 -8 262v348h48v-674h-45l-295 401q-110 150 -145 209l-3 -2q6 -91 6 -248v-360zM299 -210l-13 27q85 9 85 68q0 36 -38 61l40 12q17 -10 29.5 -29t12.5 -42q0 -47 -36.5 -71t-79.5 -26z" />
    <glyph glyph-name="ncommaaccent" unicode="&#x146;" horiz-adv-x="591" 
d="M88 0v364q0 64 -4 116h46l4 -96h2q23 47 72.5 77.5t112.5 30.5q17 0 36.5 -3.5t48 -17t50 -35.5t37 -64.5t15.5 -98.5v-273h-49v273q0 77 -37 127t-114 50q-56 0 -101 -33t-62 -81q-8 -22 -8 -43v-293h-49zM241 -210l-13 27q85 9 85 68q0 36 -38 61l40 12
q17 -10 29.5 -29t12.5 -42q0 -47 -36.5 -71t-79.5 -26z" />
    <glyph glyph-name="Ncaron" unicode="&#x147;" horiz-adv-x="706" 
d="M136 0h-48v674h46l305 -415q105 -143 137 -197l2 2q-8 89 -8 262v348h48v-674h-45l-295 401q-110 150 -145 209l-3 -2q6 -91 6 -248v-360zM373 700h-36l-113 115h54l77 -78h2l75 78h50z" />
    <glyph glyph-name="ncaron" unicode="&#x148;" horiz-adv-x="591" 
d="M318 552h-42l-100 140h51l69 -103h2l69 103h47zM88 0v364q0 64 -4 116h46l4 -96h2q23 47 72.5 77.5t112.5 30.5q17 0 36.5 -3.5t48 -17t50 -35.5t37 -64.5t15.5 -98.5v-273h-49v273q0 77 -37 127t-114 50q-56 0 -101 -33t-62 -81q-8 -22 -8 -43v-293h-49z" />
    <glyph glyph-name="napostrophe" unicode="&#x149;" horiz-adv-x="591" 
d="M88 0v364q0 64 -4 116h46l4 -96h2q23 47 72.5 77.5t112.5 30.5q17 0 36.5 -3.5t48 -17t50 -35.5t37 -64.5t15.5 -98.5v-273h-49v273q0 77 -37 127t-114 50q-56 0 -101 -33t-62 -81q-8 -22 -8 -43v-293h-49zM41 547l-18 25q45 30 45 78q0 36 -38 61l43 12q15 -8 27 -27.5
t12 -43.5q0 -70 -71 -105z" />
    <glyph glyph-name="Eng" unicode="&#x14a;" horiz-adv-x="706" 
d="M136 0h-48v674h46l305 -415q105 -143 137 -197l2 2q-8 89 -8 262v348h48v-636q0 -101 -45.5 -158.5t-142.5 -73.5l-8 41q73 12 109.5 49.5t41.5 103.5l-295 401q-110 150 -145 209l-3 -2q6 -91 6 -248v-360z" />
    <glyph glyph-name="eng" unicode="&#x14b;" horiz-adv-x="591" 
d="M88 0v364q0 64 -4 116h46l4 -96h2q23 47 72.5 77.5t112.5 30.5q17 0 36.5 -3.5t48 -17t50 -35.5t37 -64.5t15.5 -98.5v-203q0 -105 -55 -166t-143 -75l-9 42q158 32 158 199v203q0 77 -37 127t-114 50q-56 0 -101 -33t-62 -81q-8 -22 -8 -43v-293h-49z" />
    <glyph glyph-name="Omacron" unicode="&#x14c;" horiz-adv-x="753" 
d="M380 686q147 0 241 -96.5t94 -243.5q0 -112 -49.5 -195t-126 -123t-166.5 -40q-144 0 -239.5 96.5t-95.5 243.5q0 157 98 257.5t244 100.5zM378 646q-137 0 -213 -91.5t-76 -224.5q0 -124 79 -213t207 -89q131 0 210 88.5t79 225.5q0 120 -76 212t-210 92zM258 782h237
v-40h-237v40z" />
    <glyph glyph-name="omacron" unicode="&#x14d;" horiz-adv-x="591" 
d="M187 633h217v-41h-217v41zM297 492q113 0 182 -70.5t69 -175.5q0 -65 -23.5 -116t-61.5 -81t-82.5 -45.5t-90.5 -15.5q-107 0 -177 70t-70 177q0 116 74.5 186.5t179.5 70.5zM297 452q-97 0 -151 -62t-54 -152q0 -96 59.5 -153t141.5 -57q84 0 145 58t61 157
q0 79 -52.5 144t-149.5 65z" />
    <glyph glyph-name="Obreve" unicode="&#x14e;" horiz-adv-x="753" 
d="M380 686q147 0 241 -96.5t94 -243.5q0 -112 -49.5 -195t-126 -123t-166.5 -40q-144 0 -239.5 96.5t-95.5 243.5q0 157 98 257.5t244 100.5zM378 646q-137 0 -213 -91.5t-76 -224.5q0 -124 79 -213t207 -89q131 0 210 88.5t79 225.5q0 120 -76 212t-210 92zM257 830h36
q14 -53 84 -53q74 0 82 53h36q-2 -42 -31 -69.5t-90 -27.5q-59 0 -87 27.5t-30 69.5z" />
    <glyph glyph-name="obreve" unicode="&#x14f;" horiz-adv-x="591" 
d="M174 681h38q6 -33 28.5 -55t54.5 -22q38 0 58.5 23.5t24.5 53.5h38q-1 -53 -35 -85t-86 -32q-62 0 -91 35.5t-30 81.5zM297 492q113 0 182 -70.5t69 -175.5q0 -65 -23.5 -116t-61.5 -81t-82.5 -45.5t-90.5 -15.5q-107 0 -177 70t-70 177q0 116 74.5 186.5t179.5 70.5z
M297 452q-97 0 -151 -62t-54 -152q0 -96 59.5 -153t141.5 -57q84 0 145 58t61 157q0 79 -52.5 144t-149.5 65z" />
    <glyph glyph-name="Ohungarumlaut" unicode="&#x150;" horiz-adv-x="753" 
d="M380 686q147 0 241 -96.5t94 -243.5q0 -112 -49.5 -195t-126 -123t-166.5 -40q-144 0 -239.5 96.5t-95.5 243.5q0 157 98 257.5t244 100.5zM378 646q-137 0 -213 -91.5t-76 -224.5q0 -124 79 -213t207 -89q131 0 210 88.5t79 225.5q0 120 -76 212t-210 92zM384 830h69
l-122 -115h-38zM514 830h69l-122 -115h-38z" />
    <glyph glyph-name="ohungarumlaut" unicode="&#x151;" horiz-adv-x="591" 
d="M290 691h69l-122 -127h-38zM420 691h69l-122 -127h-38zM297 492q113 0 182 -70.5t69 -175.5q0 -65 -23.5 -116t-61.5 -81t-82.5 -45.5t-90.5 -15.5q-107 0 -177 70t-70 177q0 116 74.5 186.5t179.5 70.5zM297 452q-97 0 -151 -62t-54 -152q0 -96 59.5 -153t141.5 -57
q84 0 145 58t61 157q0 79 -52.5 144t-149.5 65z" />
    <glyph glyph-name="OE" unicode="&#x152;" horiz-adv-x="962" 
d="M921 41v-41h-351q-22 0 -80 -6q-60 -6 -100 -6q-156 0 -254 96t-98 249q0 159 98 256t260 97q45 0 103 -6t76 -6h329v-41h-317v-258h300v-41h-300v-293h334zM538 45v584q-68 17 -144 17q-77 0 -137.5 -26.5t-96 -71t-53.5 -98.5t-18 -114q0 -131 83 -219.5t230 -88.5
q85 0 136 17z" />
    <glyph glyph-name="oe" unicode="&#x153;" horiz-adv-x="955" 
d="M908 240h-381q-2 -94 53 -152t144 -58q75 0 142 30l15 -39q-64 -33 -159 -33q-162 0 -222 138h-2q-27 -68 -86.5 -103t-127.5 -35q-106 0 -173.5 70t-67.5 177q0 114 71 185.5t174 71.5q77 0 133 -37.5t80 -103.5h2q29 71 81.5 106t119.5 35q50 0 88.5 -17.5t60 -43
t35.5 -57.5t18 -56.5t4 -45.5q0 -25 -2 -32zM285 452h-1q-64 0 -109 -34t-64 -81t-19 -99q0 -95 58 -152.5t135 -57.5q82 0 138 56t56 156q0 87 -50.5 149.5t-143.5 62.5zM527 279h332q0 18 -3 37.5t-13.5 44.5t-27 44.5t-46 33t-68.5 13.5q-55 0 -95 -29.5t-57 -66
t-22 -77.5z" />
    <glyph glyph-name="Racute" unicode="&#x154;" horiz-adv-x="549" 
d="M88 0v665q77 15 164 15q136 0 197 -60q48 -45 48 -118q0 -65 -37.5 -110.5t-101.5 -64.5v-2q81 -28 107 -137q36 -154 55 -188h-52q-14 24 -45 162q-17 74 -53.5 108.5t-104.5 38.5h-128v-309h-49zM137 629v-280h130q83 0 132 39.5t49 105.5q0 76 -54.5 111t-142.5 35
q-72 0 -114 -11zM327 830h76l-132 -115h-40z" />
    <glyph glyph-name="racute" unicode="&#x155;" horiz-adv-x="320" 
d="M231 692h74l-127 -140h-38zM88 0v325q0 86 -4 155h45l2 -104h3q19 52 57.5 84t89.5 32q13 0 23 -3v-45q-9 2 -28 2q-50 0 -86 -38t-48 -101q-5 -23 -5 -47v-260h-49z" />
    <glyph glyph-name="Rcommaaccent" unicode="&#x156;" horiz-adv-x="549" 
d="M88 0v665q77 15 164 15q136 0 197 -60q48 -45 48 -118q0 -65 -37.5 -110.5t-101.5 -64.5v-2q81 -28 107 -137q36 -154 55 -188h-52q-14 24 -45 162q-17 74 -53.5 108.5t-104.5 38.5h-128v-309h-49zM137 629v-280h130q83 0 132 39.5t49 105.5q0 76 -54.5 111t-142.5 35
q-72 0 -114 -11zM220 -200l-13 27q85 9 85 68q0 36 -38 61l40 12q17 -10 29.5 -29t12.5 -42q0 -47 -36.5 -71t-79.5 -26z" />
    <glyph glyph-name="rcommaaccent" unicode="&#x157;" horiz-adv-x="320" 
d="M88 0v325q0 86 -4 155h45l2 -104h3q19 52 57.5 84t89.5 32q13 0 23 -3v-45q-9 2 -28 2q-50 0 -86 -38t-48 -101q-5 -23 -5 -47v-260h-49zM60 -210l-13 27q85 9 85 68q0 36 -38 61l40 12q17 -10 29.5 -29t12.5 -42q0 -47 -36.5 -71t-79.5 -26z" />
    <glyph glyph-name="Rcaron" unicode="&#x158;" horiz-adv-x="549" 
d="M88 0v665q77 15 164 15q136 0 197 -60q48 -45 48 -118q0 -65 -37.5 -110.5t-101.5 -64.5v-2q81 -28 107 -137q36 -154 55 -188h-52q-14 24 -45 162q-17 74 -53.5 108.5t-104.5 38.5h-128v-309h-49zM137 629v-280h130q83 0 132 39.5t49 105.5q0 76 -54.5 111t-142.5 35
q-72 0 -114 -11zM290 715h-36l-113 115h54l77 -78h2l75 78h50z" />
    <glyph glyph-name="rcaron" unicode="&#x159;" horiz-adv-x="320" 
d="M208 552h-42l-100 140h51l69 -103h2l69 103h47zM88 0v325q0 86 -4 155h45l2 -104h3q19 52 57.5 84t89.5 32q13 0 23 -3v-45q-9 2 -28 2q-50 0 -86 -38t-48 -101q-5 -23 -5 -47v-260h-49z" />
    <glyph glyph-name="Sacute" unicode="&#x15a;" horiz-adv-x="505" 
d="M46 38l19 41q73 -50 167 -50q81 0 128 39t47 102q0 58 -34 94t-118 63q-101 32 -145 76t-44 110q0 75 58.5 124t150.5 49q98 0 150 -34l-19 -41q-51 35 -133 35t-120.5 -39t-38.5 -87q0 -54 35 -88t117 -60q98 -32 143.5 -75.5t45.5 -121.5q0 -77 -58 -132t-171 -55
q-49 0 -99.5 14t-80.5 36zM325 830h76l-132 -115h-40z" />
    <glyph glyph-name="sacute" unicode="&#x15b;" horiz-adv-x="408" 
d="M263 692h74l-127 -140h-38zM50 23l18 42q58 -36 120 -36q60 0 90.5 26.5t30.5 66.5t-27 64t-86 43q-130 42 -130 130q0 55 42 94t116 39q69 0 116 -32l-19 -40q-45 31 -106 31q-47 0 -74 -25t-27 -61q0 -38 26.5 -58.5t85.5 -40.5q68 -23 99.5 -55t31.5 -85
q0 -60 -46.5 -99t-126.5 -39q-74 0 -134 35z" />
    <glyph glyph-name="Scircumflex" unicode="&#x15c;" horiz-adv-x="505" 
d="M46 38l19 41q73 -50 167 -50q81 0 128 39t47 102q0 58 -34 94t-118 63q-101 32 -145 76t-44 110q0 75 58.5 124t150.5 49q98 0 150 -34l-19 -41q-51 35 -133 35t-120.5 -39t-38.5 -87q0 -54 35 -88t117 -60q98 -32 143.5 -75.5t45.5 -121.5q0 -77 -58 -132t-171 -55
q-49 0 -99.5 14t-80.5 36zM232 831h36l113 -115h-54l-76 79h-2l-76 -79h-50z" />
    <glyph glyph-name="scircumflex" unicode="&#x15d;" horiz-adv-x="408" 
d="M185 692h38l100 -140h-51l-67 102h-2l-67 -102h-47zM50 23l18 42q58 -36 120 -36q60 0 90.5 26.5t30.5 66.5t-27 64t-86 43q-130 42 -130 130q0 55 42 94t116 39q69 0 116 -32l-19 -40q-45 31 -106 31q-47 0 -74 -25t-27 -61q0 -38 26.5 -58.5t85.5 -40.5
q68 -23 99.5 -55t31.5 -85q0 -60 -46.5 -99t-126.5 -39q-74 0 -134 35z" />
    <glyph glyph-name="Scedilla" unicode="&#x15e;" horiz-adv-x="505" 
d="M46 38l19 41q73 -50 167 -50q81 0 128 39t47 102q0 58 -34 94t-118 63q-101 32 -145 76t-44 110q0 75 58.5 124t150.5 49q98 0 150 -34l-19 -41q-51 35 -133 35t-120.5 -39t-38.5 -87q0 -54 35 -88t117 -60q98 -32 143.5 -75.5t45.5 -121.5q0 -67 -45 -119t-133 -65
l-32 -45q30 -5 50 -24t20 -46q0 -36 -27.5 -55t-69.5 -19q-37 0 -63 15l11 35q28 -13 57 -13q21 0 34.5 9t13.5 26q0 36 -80 45l45 69h-10q-49 0 -99.5 14t-80.5 36z" />
    <glyph glyph-name="scedilla" unicode="&#x15f;" horiz-adv-x="408" 
d="M50 23l18 42q58 -36 120 -36q60 0 90.5 26.5t30.5 66.5t-27 64t-86 43q-130 42 -130 130q0 55 42 94t116 39q69 0 116 -32l-19 -40q-45 31 -106 31q-47 0 -74 -25t-27 -61q0 -38 26.5 -58.5t85.5 -40.5q68 -23 99.5 -55t31.5 -85q0 -50 -34 -87t-94 -47l-32 -46
q29 -4 49.5 -21.5t20.5 -44.5q0 -78 -99 -78q-35 0 -60 15l11 35q23 -13 56 -13q22 0 36.5 8.5t13.5 27.5q-1 37 -81 44l45 69h-5q-74 0 -134 35z" />
    <glyph glyph-name="Scaron" unicode="&#x160;" horiz-adv-x="505" 
d="M46 38l19 41q73 -50 167 -50q81 0 128 39t47 102q0 58 -34 94t-118 63q-101 32 -145 76t-44 110q0 75 58.5 124t150.5 49q98 0 150 -34l-19 -41q-51 35 -133 35t-120.5 -39t-38.5 -87q0 -54 35 -88t117 -60q98 -32 143.5 -75.5t45.5 -121.5q0 -77 -58 -132t-171 -55
q-49 0 -99.5 14t-80.5 36zM282 715h-36l-113 115h54l77 -78h2l75 78h50z" />
    <glyph glyph-name="scaron" unicode="&#x161;" horiz-adv-x="408" 
d="M232 552h-42l-100 140h51l69 -103h2l69 103h47zM50 23l18 42q58 -36 120 -36q60 0 90.5 26.5t30.5 66.5t-27 64t-86 43q-130 42 -130 130q0 55 42 94t116 39q69 0 116 -32l-19 -40q-45 31 -106 31q-47 0 -74 -25t-27 -61q0 -38 26.5 -58.5t85.5 -40.5q68 -23 99.5 -55
t31.5 -85q0 -60 -46.5 -99t-126.5 -39q-74 0 -134 35z" />
    <glyph glyph-name="Tcommaaccent" unicode="&#x162;" horiz-adv-x="510" 
d="M231 0v633h-251v41h551v-41h-251v-633h-49zM191 -210l-13 27q85 9 85 68q0 36 -38 61l40 12q17 -10 29.5 -29t12.5 -42q0 -47 -36.5 -71t-79.5 -26z" />
    <glyph glyph-name="tcommaaccent" unicode="&#x163;" horiz-adv-x="339" 
d="M108 571l49 15v-106h152v-39h-152v-307q0 -104 77 -104q38 0 63 9l6 -38q-32 -13 -74 -13q-59 0 -89 36q-32 36 -32 116v301h-88v39h88v91zM133 -220l-13 27q85 9 85 68q0 36 -38 61l40 12q17 -10 29.5 -29t12.5 -42q0 -47 -36.5 -71t-79.5 -26z" />
    <glyph glyph-name="Tcaron" unicode="&#x164;" horiz-adv-x="510" 
d="M231 0v633h-251v41h551v-41h-251v-633h-49zM275 710h-36l-113 115h54l77 -78h2l75 78h50z" />
    <glyph glyph-name="tcaron" unicode="&#x165;" horiz-adv-x="349" 
d="M108 571l49 15v-106h152v-39h-152v-307q0 -104 77 -104q38 0 63 9l6 -38q-32 -13 -74 -13q-59 0 -89 36q-32 36 -32 116v301h-88v39h88v91zM251 547l-18 25q45 30 45 78q0 36 -38 61l43 12q15 -8 27 -27.5t12 -43.5q0 -70 -71 -105z" />
    <glyph glyph-name="Tbar" unicode="&#x166;" horiz-adv-x="510" 
d="M531 633h-251v-255h145v-39h-145v-339h-49v339h-145v39h145v255h-251v41h551v-41z" />
    <glyph glyph-name="tbar" unicode="&#x167;" horiz-adv-x="339" 
d="M309 441h-152v-142h120v-39h-120v-126q0 -104 77 -104q38 0 63 9l6 -38q-32 -13 -74 -13q-59 0 -89 36q-32 36 -32 116v120h-74v39h74v142h-88v39h88v91l49 15v-106h152v-39z" />
    <glyph glyph-name="Utilde" unicode="&#x168;" horiz-adv-x="691" 
d="M88 674h49v-389q0 -130 56.5 -193t146.5 -63q98 0 156 64t58 192v389h49v-385q0 -153 -74.5 -227t-191.5 -74q-109 0 -179 71t-70 225v390zM259 715h-34q-1 37 17 62.5t48 25.5q20 0 61 -22q34 -17 53 -17q25 0 27 38h34q0 -82 -61 -82q-23 0 -63 20t-54 20
q-23 0 -28 -45z" />
    <glyph glyph-name="utilde" unicode="&#x169;" horiz-adv-x="586" 
d="M212 576h-34q-1 42 15.5 66t45.5 24q16 0 66 -25q30 -15 42 -15q26 0 29 43h33q0 -87 -60 -87q-20 0 -60 21q-35 19 -49 19q-24 0 -28 -46zM498 480v-364q0 -64 4 -116h-46l-3 97h-2q-25 -46 -72.5 -77.5t-114.5 -31.5q-21 0 -40.5 3.5t-46.5 17t-46.5 36t-33.5 65.5
t-14 101v269h49v-259q0 -190 145 -190q53 0 96.5 29t63.5 73q12 30 12 56v291h49z" />
    <glyph glyph-name="Umacron" unicode="&#x16a;" horiz-adv-x="691" 
d="M88 674h49v-389q0 -130 56.5 -193t146.5 -63q98 0 156 64t58 192v389h49v-385q0 -153 -74.5 -227t-191.5 -74q-109 0 -179 71t-70 225v390zM227 772h237v-40h-237v40z" />
    <glyph glyph-name="umacron" unicode="&#x16b;" horiz-adv-x="586" 
d="M185 633h217v-41h-217v41zM498 480v-364q0 -64 4 -116h-46l-3 97h-2q-25 -46 -72.5 -77.5t-114.5 -31.5q-21 0 -40.5 3.5t-46.5 17t-46.5 36t-33.5 65.5t-14 101v269h49v-259q0 -190 145 -190q53 0 96.5 29t63.5 73q12 30 12 56v291h49z" />
    <glyph glyph-name="Ubreve" unicode="&#x16c;" horiz-adv-x="691" 
d="M88 674h49v-389q0 -130 56.5 -193t146.5 -63q98 0 156 64t58 192v389h49v-385q0 -153 -74.5 -227t-191.5 -74q-109 0 -179 71t-70 225v390zM226 830h36q14 -53 84 -53q74 0 82 53h36q-2 -42 -31 -69.5t-90 -27.5q-59 0 -87 27.5t-30 69.5z" />
    <glyph glyph-name="ubreve" unicode="&#x16d;" horiz-adv-x="586" 
d="M172 681h38q6 -33 28.5 -55t54.5 -22q38 0 58.5 23.5t24.5 53.5h38q-1 -53 -35 -85t-86 -32q-62 0 -91 35.5t-30 81.5zM498 480v-364q0 -64 4 -116h-46l-3 97h-2q-25 -46 -72.5 -77.5t-114.5 -31.5q-21 0 -40.5 3.5t-46.5 17t-46.5 36t-33.5 65.5t-14 101v269h49v-259
q0 -190 145 -190q53 0 96.5 29t63.5 73q12 30 12 56v291h49z" />
    <glyph glyph-name="Uring" unicode="&#x16e;" horiz-adv-x="691" 
d="M88 674h49v-389q0 -130 56.5 -193t146.5 -63q98 0 156 64t58 192v389h49v-385q0 -153 -74.5 -227t-191.5 -74q-109 0 -179 71t-70 225v390zM346 868h1q39 0 64.5 -25t25.5 -61q0 -35 -26.5 -59t-64.5 -24q-40 0 -66 24t-26 59q0 36 26 61t66 25zM345 841h-1
q-22 0 -35.5 -17t-13.5 -42q0 -22 14.5 -38.5t35.5 -16.5q22 0 36.5 16.5t14.5 40.5t-14.5 40.5t-36.5 16.5z" />
    <glyph glyph-name="uring" unicode="&#x16f;" horiz-adv-x="586" 
d="M294 538q-40 0 -67.5 26t-27.5 64q0 39 27 65.5t69 26.5q39 0 65.5 -26.5t26.5 -65.5q0 -38 -28 -64t-65 -26zM293 568q24 0 40 18t16 43q0 26 -16 43.5t-41 17.5q-23 0 -38 -18t-15 -44q0 -23 15.5 -41.5t38.5 -18.5zM498 480v-364q0 -64 4 -116h-46l-3 97h-2
q-25 -46 -72.5 -77.5t-114.5 -31.5q-21 0 -40.5 3.5t-46.5 17t-46.5 36t-33.5 65.5t-14 101v269h49v-259q0 -190 145 -190q53 0 96.5 29t63.5 73q12 30 12 56v291h49z" />
    <glyph glyph-name="Uhungarumlaut" unicode="&#x170;" horiz-adv-x="691" 
d="M88 674h49v-389q0 -130 56.5 -193t146.5 -63q98 0 156 64t58 192v389h49v-385q0 -153 -74.5 -227t-191.5 -74q-109 0 -179 71t-70 225v390zM329 825h69l-122 -115h-38zM459 825h69l-122 -115h-38z" />
    <glyph glyph-name="uhungarumlaut" unicode="&#x171;" horiz-adv-x="586" 
d="M288 691h69l-122 -127h-38zM418 691h69l-122 -127h-38zM498 480v-364q0 -64 4 -116h-46l-3 97h-2q-25 -46 -72.5 -77.5t-114.5 -31.5q-21 0 -40.5 3.5t-46.5 17t-46.5 36t-33.5 65.5t-14 101v269h49v-259q0 -190 145 -190q53 0 96.5 29t63.5 73q12 30 12 56v291h49z" />
    <glyph glyph-name="Uogonek" unicode="&#x172;" horiz-adv-x="691" 
d="M422 -151l9 -29q-24 -18 -68 -18q-38 0 -61 20t-23 55q0 49 60 111h-4q-110 3 -178.5 73.5t-68.5 222.5v390h49v-389q0 -130 56.5 -193t146.5 -63q98 0 156 64t58 192v389h49v-385q0 -137 -60 -210.5t-157 -86.5q-62 -62 -62 -105q0 -23 13.5 -35.5t37.5 -12.5
q25 0 47 10z" />
    <glyph glyph-name="uogonek" unicode="&#x173;" horiz-adv-x="586" 
d="M498 480v-364q0 -64 4 -116l-3 6q-55 -69 -55 -116q0 -49 51 -49q25 0 47 10l9 -30q-24 -18 -70 -18q-37 0 -59.5 20t-22.5 55q0 23 11 49.5t19 39t27 39.5l-3 91h-2q-25 -46 -72.5 -77.5t-114.5 -31.5q-21 0 -40.5 3.5t-46.5 17t-46.5 36t-33.5 65.5t-14 101v269h49
v-259q0 -190 145 -190q53 0 97 29t63 73q12 26 12 56v291h49z" />
    <glyph glyph-name="Wcircumflex" unicode="&#x174;" horiz-adv-x="881" 
d="M250 0h-48l-191 674h50l107 -387q46 -164 61 -226h2q13 58 68 226l124 387h48l109 -386q47 -167 58 -227h2q12 46 68 225l124 388h51l-223 -674h-48l-109 386q-45 161 -57 231h-2q-13 -64 -68 -229zM420 825h36l113 -115h-54l-76 79h-2l-76 -79h-50z" />
    <glyph glyph-name="wcircumflex" unicode="&#x175;" horiz-adv-x="784" 
d="M371 692h38l100 -140h-51l-67 102h-2l-67 -102h-47zM24 480h51l88 -280q30 -97 44 -148h2q14 45 53 148l107 280h49l102 -279q28 -76 51 -149h2q13 49 47 148l96 280h50l-174 -480h-44l-98 265q-41 108 -57 171h-2q-19 -68 -60 -172l-105 -264h-44z" />
    <glyph glyph-name="Ycircumflex" unicode="&#x176;" horiz-adv-x="541" 
d="M297 0h-49v288l-236 386h56l125 -210q68 -115 82 -141h2q17 34 84 141l131 210h56l-251 -388v-286zM250 825h36l113 -115h-54l-76 79h-2l-76 -79h-50z" />
    <glyph glyph-name="ycircumflex" unicode="&#x177;" horiz-adv-x="480" 
d="M219 692h38l100 -140h-51l-67 102h-2l-67 -102h-47zM9 480h53l143 -321q26 -57 39 -101h2q26 71 40 105l134 317h53l-170 -388q-52 -119 -89.5 -179.5t-83.5 -93.5q-48 -35 -88 -43l-13 41q51 15 88 47q56 47 92 129q6 13 6 19q0 7 -7 22z" />
    <glyph glyph-name="Ydieresis" unicode="&#x178;" horiz-adv-x="541" 
d="M297 0h-49v288l-236 386h56l125 -210q68 -115 82 -141h2q17 34 84 141l131 210h56l-251 -388v-286zM190 714h-1q-17 0 -27 12t-10 29q0 16 11.5 28.5t27.5 12.5t27 -12t11 -29t-10.5 -29t-28.5 -12zM370 714h-1q-17 0 -27 12t-10 29q0 16 11.5 28.5t27.5 12.5t27 -12
t11 -29t-10.5 -29t-28.5 -12z" />
    <glyph glyph-name="Zacute" unicode="&#x179;" horiz-adv-x="605" 
d="M37 0v33l461 597v3h-423v41h488v-34l-462 -596v-3h469v-41h-533zM375 825h76l-132 -115h-40z" />
    <glyph glyph-name="zacute" unicode="&#x17a;" horiz-adv-x="440" 
d="M279 692h74l-127 -140h-38zM16 0v30l287 338q22 26 62 70v2h-328v40h388l-1 -34l-287 -338q-30 -36 -57 -66v-2h348v-40h-412z" />
    <glyph glyph-name="Zdotaccent" unicode="&#x17b;" horiz-adv-x="605" 
d="M37 0v33l461 597v3h-423v41h488v-34l-462 -596v-3h469v-41h-533zM302 724h-1q-15 0 -26 12.5t-11 28.5q0 15 11.5 28t27.5 13t27 -13t11 -28q0 -16 -11 -28.5t-28 -12.5z" />
    <glyph glyph-name="zdotaccent" unicode="&#x17c;" horiz-adv-x="440" 
d="M220 581h-1q-16 0 -27 12.5t-11 29.5q0 16 12 29t28 13t27.5 -12.5t11.5 -29.5t-11 -29.5t-29 -12.5zM16 0v30l287 338q22 26 62 70v2h-328v40h388l-1 -34l-287 -338q-30 -36 -57 -66v-2h348v-40h-412z" />
    <glyph glyph-name="Zcaron" unicode="&#x17d;" horiz-adv-x="605" 
d="M37 0v33l461 597v3h-423v41h488v-34l-462 -596v-3h469v-41h-533zM334 710h-36l-113 115h54l77 -78h2l75 78h50z" />
    <glyph glyph-name="zcaron" unicode="&#x17e;" horiz-adv-x="440" 
d="M263 552h-42l-100 140h51l69 -103h2l69 103h47zM16 0v30l287 338q22 26 62 70v2h-328v40h388l-1 -34l-287 -338q-30 -36 -57 -66v-2h348v-40h-412z" />
    <glyph glyph-name="florin" unicode="&#x192;" horiz-adv-x="530" 
d="M120 352v39h110l6 52q12 101 59 160t129 59q40 -3 63 -15l-12 -38q-36 12 -59 12q-60 0 -92.5 -51t-40.5 -128l-5 -51h145v-39h-150l-23 -208q-12 -109 -51.5 -166.5t-116.5 -57.5q-43 0 -72 16l12 37q27 -13 65 -13q96 0 113 161l25 231h-105z" />
    <glyph glyph-name="Ohorn" unicode="&#x1a0;" horiz-adv-x="753" 
d="M375 28q131 0 210 88.5t79 225.5q0 120 -76 212t-210 92q-137 0 -213 -91.5t-76 -224.5q0 -124 79 -213t207 -89zM668 742l45 8q15 -38 15 -74q0 -44 -29 -66.5t-86 -12.5q46 -42 74 -107.5t28 -143.5q0 -112 -49.5 -195t-126 -123t-166.5 -40q-144 0 -239.5 96.5
t-95.5 243.5q0 157 98 257.5t244 100.5q53 0 103 -14q9 -3 38.5 -14.5t57 -19.5t46.5 -8q32 0 44.5 12t12.5 37q0 31 -14 63z" />
    <glyph glyph-name="ohorn" unicode="&#x1a1;" horiz-adv-x="591" 
d="M297 452q-97 0 -151 -62t-54 -152q0 -96 59.5 -153t141.5 -57q84 0 145 58t61 157q0 79 -52.5 144t-149.5 65zM519 548l44 8q13 -31 13 -62q0 -39 -24 -61t-70 -15q66 -68 66 -172q0 -65 -23.5 -116t-61.5 -81t-82.5 -45.5t-90.5 -15.5q-107 0 -177 70t-70 177
q0 116 74.5 186.5t179.5 70.5q44 0 89 -13q8 -2 27 -10.5t36.5 -13.5t35.5 -5q47 0 47 45q0 27 -13 53z" />
    <glyph glyph-name="Uhorn" unicode="&#x1af;" horiz-adv-x="714" 
d="M643 768l44 8q16 -32 16 -66q0 -33 -22.5 -53t-61.5 -20h-16v-348q0 -153 -74.5 -227t-191.5 -74q-109 0 -179 71t-70 225v390h49v-389q0 -130 56.5 -193t146.5 -63q98 0 156 64t58 192v389h60q45 0 45 41q0 27 -16 53z" />
    <glyph glyph-name="uhorn" unicode="&#x1b0;" horiz-adv-x="586" 
d="M538 574l44 8q16 -32 16 -63q0 -34 -24.5 -55t-59.5 -21h-16v-327q0 -64 4 -116h-46l-3 97h-2q-25 -46 -72.5 -77.5t-114.5 -31.5q-21 0 -40.5 3.5t-46.5 17t-46.5 36t-33.5 65.5t-14 101v269h49v-259q0 -190 145 -190q53 0 96.5 29t63.5 73q12 30 12 56v291h60
q45 0 45 41q0 27 -16 53z" />
    <glyph glyph-name="uni01FA" unicode="&#x1fa;" horiz-adv-x="640" 
d="M331 692q-36 0 -59 20.5t-23 50.5q0 31 23 52t60 21q35 0 57.5 -21t22.5 -52t-23 -51t-58 -20zM330 721q20 0 33 12t13 31t-13 31.5t-34 12.5q-20 0 -32 -13t-12 -32q0 -17 13 -29.5t32 -12.5zM395 939h84l-142 -84h-48zM474 237h-300l-93 -237h-51l272 674h48l270 -674
h-51zM191 278h267l-95 237q-19 47 -37 107h-2q-13 -43 -37 -104z" />
    <glyph glyph-name="uni01FB" unicode="&#x1fb;" horiz-adv-x="496" 
d="M310 825h74l-147 -101h-38zM416 290v-174q0 -64 8 -116h-45l-8 74h-2q-23 -33 -68.5 -59.5t-105.5 -26.5q-75 0 -114 41t-39 91q0 85 81 132t244 45v11q0 15 -1.5 29.5t-9.5 36.5t-21.5 38t-40.5 27.5t-63 11.5q-81 0 -138 -40l-16 35q70 46 158 46q181 0 181 -202z
M367 154v102q-53 2 -97 -2.5t-86 -17.5t-66 -40t-24 -67q0 -49 30 -75t75 -26q63 0 104 29.5t58 68.5q6 15 6 28zM247 518q-40 0 -67.5 26t-27.5 64q0 39 27 65.5t69 26.5q39 0 65.5 -26.5t26.5 -65.5q0 -38 -28 -64t-65 -26zM246 548q24 0 40 18t16 43q0 26 -16 43.5
t-41 17.5q-23 0 -38 -18t-15 -44q0 -23 15.5 -41.5t38.5 -18.5z" />
    <glyph glyph-name="AEacute" unicode="&#x1fc;" horiz-adv-x="807" 
d="M41 0h-51l360 674h399v-41h-326l36 -258h273v-41h-267l42 -293h259v-41h-300l-40 279h-237zM210 319h211l-29 207q-13 88 -14 111h-4q-16 -36 -51 -102zM526 825h76l-132 -115h-40z" />
    <glyph glyph-name="aeacute" unicode="&#x1fd;" horiz-adv-x="835" 
d="M476 692h74l-127 -140h-38zM787 249h-372q-6 -99 47.5 -159t138.5 -60q88 0 145 30l14 -39q-71 -33 -161 -33q-72 0 -127 33.5t-76 93.5h-2q-22 -61 -76.5 -94t-123.5 -33q-75 0 -113 39t-38 88q0 83 81.5 130t243.5 43v20q0 9 -2 22t-10 35.5t-21.5 40.5t-41 31.5
t-63.5 13.5q-37 0 -75.5 -11t-61.5 -29l-16 35q70 46 153 46q141 0 170 -124h2q25 58 74.5 91t115.5 33q48 0 85 -18t57.5 -43t34 -56.5t17.5 -55t4 -40.5q0 -23 -3 -30zM368 174v75q-275 9 -275 -129q0 -41 30.5 -66.5t75.5 -25.5q65 -1 106.5 30t56.5 76q6 19 6 40z
M415 288h324q1 14 -2.5 33t-14 42.5t-27 43t-44.5 32.5t-63 13q-79 0 -124 -53t-49 -111z" />
    <glyph glyph-name="Oslashacute" unicode="&#x1fe;" horiz-adv-x="753" 
d="M91 -28l-29 26l74 87q-98 98 -98 245q0 157 99.5 256.5t244.5 99.5q116 0 205 -69l72 85l32 -25l-74 -87q98 -95 98 -244q0 -87 -29 -157.5t-77.5 -113t-107.5 -65t-122 -22.5q-122 0 -214 71zM167 121l392 462q-78 63 -180 63q-136 0 -213 -92t-77 -216q0 -71 19.5 -121
t56.5 -98zM586 555l-392 -463q77 -64 182 -64q131 0 209.5 90.5t78.5 223.5q0 122 -75 213h-3zM449 838h76l-132 -115h-40z" />
    <glyph glyph-name="oslashacute" unicode="&#x1ff;" horiz-adv-x="591" 
d="M354 692h74l-127 -140h-38zM298 492h1q79 0 141 -41l45 56l31 -23l-45 -57q77 -74 77 -180q0 -65 -23 -116t-60 -81.5t-80.5 -46t-89.5 -15.5q-85 0 -145 42l-47 -57l-28 27l45 55q-77 72 -77 180q0 116 74.5 186.5t180.5 70.5zM149 88l265 328q-48 36 -119 36
q-98 0 -150.5 -63t-52.5 -151q0 -91 55 -150h2zM441 391l-264 -328q47 -35 113 -35q89 0 149 58.5t60 157.5q0 86 -56 147h-2z" />
    <glyph glyph-name="Scommaaccent" unicode="&#x218;" horiz-adv-x="505" 
d="M46 38l19 41q73 -50 167 -50q81 0 128 39t47 102q0 58 -34 94t-118 63q-101 32 -145 76t-44 110q0 75 58.5 124t150.5 49q98 0 150 -34l-19 -41q-51 35 -133 35t-120.5 -39t-38.5 -87q0 -54 35 -88t117 -60q98 -32 143.5 -75.5t45.5 -121.5q0 -77 -58 -132t-171 -55
q-49 0 -99.5 14t-80.5 36zM198 -210l-13 27q85 9 85 68q0 36 -38 61l40 12q17 -10 29.5 -29t12.5 -42q0 -47 -36.5 -71t-79.5 -26z" />
    <glyph glyph-name="scommaaccent" unicode="&#x219;" horiz-adv-x="408" 
d="M50 23l18 42q58 -36 120 -36q60 0 90.5 26.5t30.5 66.5t-27 64t-86 43q-130 42 -130 130q0 55 42 94t116 39q69 0 116 -32l-19 -40q-45 31 -106 31q-47 0 -74 -25t-27 -61q0 -38 26.5 -58.5t85.5 -40.5q68 -23 99.5 -55t31.5 -85q0 -60 -46.5 -99t-126.5 -39
q-74 0 -134 35zM144 -210l-13 27q85 9 85 68q0 36 -38 61l40 12q17 -10 29.5 -29t12.5 -42q0 -47 -36.5 -71t-79.5 -26z" />
    <glyph glyph-name="uni021A" unicode="&#x21a;" horiz-adv-x="510" 
d="M231 0v633h-251v41h551v-41h-251v-633h-49zM191 -210l-13 27q85 9 85 68q0 36 -38 61l40 12q17 -10 29.5 -29t12.5 -42q0 -47 -36.5 -71t-79.5 -26z" />
    <glyph glyph-name="uni021B" unicode="&#x21b;" horiz-adv-x="339" 
d="M108 571l49 15v-106h152v-39h-152v-307q0 -104 77 -104q38 0 63 9l6 -38q-32 -13 -74 -13q-59 0 -89 36q-32 36 -32 116v301h-88v39h88v91zM133 -220l-13 27q85 9 85 68q0 36 -38 61l40 12q17 -10 29.5 -29t12.5 -42q0 -47 -36.5 -71t-79.5 -26z" />
    <glyph glyph-name="uni021C" unicode="&#x21c;" horiz-adv-x="490" 
d="M64 -112l-9 41q165 26 254.5 96.5t89.5 162.5q0 68 -50 112.5t-133 43.5q-35 0 -102 -20l-8 38q108 26 169.5 73t61.5 103q0 49 -38 77.5t-98 28.5q-43 0 -91 -14.5t-70 -27.5l-12 33q23 16 76 33.5t101 17.5q82 0 132 -39t50 -105q0 -53 -39 -94.5t-99 -66.5v-3
q88 -4 144 -54.5t56 -131.5q0 -107 -97 -189.5t-288 -114.5z" />
    <glyph glyph-name="uni021D" unicode="&#x21d;" horiz-adv-x="438" 
d="M48 -212l-4 39l11 1q11 1 29 4.5t42 8.5t50.5 13.5t52.5 20t50 28.5t42 37t29 47.5t11 59.5q0 58 -41 93.5t-115 35.5q-40 0 -102 -18l-8 38q106 27 159 64t53 95q0 45 -34 71t-93 26q-65 0 -143 -46l-13 33q87 53 166 53q73 0 119.5 -35.5t46.5 -96.5q0 -50 -33 -89
t-83 -55v-3q77 -6 123.5 -48.5t46.5 -110.5q0 -40 -16.5 -78.5t-54.5 -78t-112.5 -69t-178.5 -40.5z" />
    <glyph glyph-name="uni0232" unicode="&#x232;" horiz-adv-x="541" 
d="M297 0h-49v288l-236 386h56l125 -210q68 -115 82 -141h2q17 34 84 141l131 210h56l-251 -388v-286zM152 772h237v-40h-237v40z" />
    <glyph glyph-name="uni0233" unicode="&#x233;" horiz-adv-x="480" 
d="M132 633h217v-41h-217v41zM9 480h53l143 -321q26 -57 39 -101h2q26 71 40 105l134 317h53l-170 -388q-52 -119 -89.5 -179.5t-83.5 -93.5q-48 -35 -88 -43l-13 41q51 15 88 47q56 47 92 129q6 13 6 19q0 7 -7 22z" />
    <glyph glyph-name="circumflex" unicode="&#x2c6;" 
d="M129 692h38l100 -140h-51l-67 102h-2l-67 -102h-47z" />
    <glyph glyph-name="caron" unicode="&#x2c7;" 
d="M173 552h-42l-100 140h51l69 -103h2l69 103h47z" />
    <glyph glyph-name="uni02C9" unicode="&#x2c9;" 
d="M42 633h217v-41h-217v41z" />
    <glyph glyph-name="breve" unicode="&#x2d8;" 
d="M29 681h38q6 -33 28.5 -55t54.5 -22q38 0 58.5 23.5t24.5 53.5h38q-1 -53 -35 -85t-86 -32q-62 0 -91 35.5t-30 81.5z" />
    <glyph glyph-name="dotaccent" unicode="&#x2d9;" 
d="M150 581h-1q-16 0 -27 12.5t-11 29.5q0 16 12 29t28 13t27.5 -12.5t11.5 -29.5t-11 -29.5t-29 -12.5z" />
    <glyph glyph-name="ring" unicode="&#x2da;" 
d="M151 538q-40 0 -67.5 26t-27.5 64q0 39 27 65.5t69 26.5q39 0 65.5 -26.5t26.5 -65.5q0 -38 -28 -64t-65 -26zM150 568q24 0 40 18t16 43q0 26 -16 43.5t-41 17.5q-23 0 -38 -18t-15 -44q0 -23 15.5 -41.5t38.5 -18.5z" />
    <glyph glyph-name="ogonek" unicode="&#x2db;" 
d="M151 5h43q-75 -75 -75 -118q0 -23 13.5 -35.5t37.5 -12.5q25 0 47 10l9 -29q-24 -18 -68 -18q-38 0 -61 20t-23 55q0 53 77 128z" />
    <glyph glyph-name="tilde" unicode="&#x2dc;" 
d="M69 576h-34q-1 42 15.5 66t45.5 24q16 0 66 -25q30 -15 42 -15q26 0 29 43h33q0 -87 -60 -87q-20 0 -60 21q-35 19 -49 19q-24 0 -28 -46z" />
    <glyph glyph-name="hungarumlaut" unicode="&#x2dd;" 
d="M179 691h69l-122 -127h-38zM309 691h69l-122 -127h-38z" />
    <glyph glyph-name="uni037E" unicode="&#x37e;" horiz-adv-x="183" 
d="M73 -121l-39 -5q11 32 24.5 99t17.5 113l64 5q-9 -48 -32 -117.5t-35 -94.5zM103 343h-1q-18 0 -30.5 14.5t-12.5 33.5q0 22 12.5 36t32.5 14q19 0 31.5 -14t12.5 -36q0 -19 -12.5 -33.5t-32.5 -14.5z" />
    <glyph glyph-name="tonos" unicode="&#x384;" 
d="M155 692h66l-96 -140h-36z" />
    <glyph glyph-name="dieresistonos" unicode="&#x385;" horiz-adv-x="287" 
d="M134 704h56l-50 -148h-30zM31 582h-1q-17 0 -27 12t-10 29q0 16 11.5 28.5t27.5 12.5t27 -12t11 -29t-10.5 -29t-28.5 -12zM253 582h-1q-17 0 -27 12t-10 29q0 16 11.5 28.5t27.5 12.5t27 -12t11 -29t-10.5 -29t-28.5 -12z" />
    <glyph glyph-name="Alphatonos" unicode="&#x386;" horiz-adv-x="640" 
d="M474 237h-300l-93 -237h-51l272 674h48l270 -674h-51zM191 278h267l-95 237q-19 47 -37 107h-2q-13 -43 -37 -104zM112 674h56l-36 -145h-32z" />
    <glyph glyph-name="anoteleia" unicode="&#x387;" horiz-adv-x="183" 
d="M91 273h-1q-18 0 -31 14.5t-12 33.5q0 22 12.5 36t32.5 14q19 0 31.5 -14t12.5 -36q0 -19 -12.5 -33.5t-32.5 -14.5z" />
    <glyph glyph-name="Epsilontonos" unicode="&#x388;" horiz-adv-x="561" 
d="M487 376v-41h-300v-294h334v-41h-383v674h366v-41h-317v-257h300zM12 674h56l-36 -145h-32z" />
    <glyph glyph-name="Etatonos" unicode="&#x389;" horiz-adv-x="746" 
d="M138 674h49v-295h422v295h49v-674h-49v338h-422v-338h-49v674zM12 674h56l-36 -145h-32z" />
    <glyph glyph-name="Iotatonos" unicode="&#x38a;" horiz-adv-x="275" 
d="M138 674h49v-674h-49v674zM12 674h56l-36 -145h-32z" />
    <glyph glyph-name="Omicrontonos" unicode="&#x38c;" horiz-adv-x="771" 
d="M392 -12h-1q-144 0 -239.5 96.5t-95.5 243.5q0 157 98 257.5t244 100.5q147 0 241 -96.5t94 -243.5q0 -166 -100.5 -262t-240.5 -96zM392 28h1q131 0 210 88.5t79 225.5q0 120 -76 212t-210 92q-137 0 -213 -91.5t-76 -224.5q0 -124 78.5 -213t206.5 -89zM12 674h56
l-36 -145h-32z" />
    <glyph glyph-name="Upsilontonos" unicode="&#x38e;" horiz-adv-x="727" 
d="M119 642l11 38q39 -5 89 -36t84 -73q91 -111 113 -254h2q27 143 135 260q81 84 161 103l10 -36q-28 -11 -60 -32t-71.5 -57t-75 -94.5t-57.5 -129.5q-22 -72 -22 -145v-186h-49v188q0 76 -19 145q-20 72 -52 131t-68 94.5t-69 56.5t-62 27zM12 674h56l-36 -145h-32z" />
    <glyph glyph-name="Omegatonos" unicode="&#x38f;" horiz-adv-x="778" 
d="M581 44v-3h171v-41h-250v34q76 40 129 123t53 192q0 70 -30.5 136t-97.5 113.5t-156 47.5q-133 0 -212 -90t-79 -211q0 -105 53.5 -188.5t128.5 -122.5v-34h-250v41h171v3q-68 47 -111 124.5t-43 174.5q0 148 98.5 245.5t243.5 97.5q148 0 241.5 -96.5t93.5 -237.5
q0 -104 -42.5 -182.5t-111.5 -125.5zM12 674h56l-36 -145h-32z" />
    <glyph glyph-name="iotadieresistonos" unicode="&#x390;" horiz-adv-x="225" 
d="M137 480v-378q0 -42 10 -58t43 -15l-4 -38q-10 -3 -26 -3q-72 0 -72 107v385h49zM112 686h56l-50 -148h-30zM8 566h-1q-16 0 -25.5 11.5t-9.5 27.5q0 15 11 27t26 12t25.5 -11.5t10.5 -27.5t-10 -27.5t-27 -11.5zM232 566h-1q-16 0 -25.5 11.5t-9.5 27.5q0 15 11 27
t26 12t25.5 -11.5t10.5 -27.5t-10 -27.5t-27 -11.5z" />
    <glyph glyph-name="Alpha" unicode="&#x391;" horiz-adv-x="640" 
d="M474 237h-300l-93 -237h-51l272 674h48l270 -674h-51zM191 278h267l-95 237q-19 47 -37 107h-2q-13 -43 -37 -104z" />
    <glyph glyph-name="Beta" unicode="&#x392;" horiz-adv-x="548" 
d="M88 0v665q68 15 151 15q131 0 190 -59q42 -42 42 -111q0 -50 -33.5 -91t-85.5 -59v-3q21 -4 44 -15t47.5 -30t40 -51.5t15.5 -72.5q0 -76 -51 -127q-67 -67 -233 -67q-37 0 -127 6zM137 631v-255h118q77 0 121.5 37.5t44.5 94.5q0 131 -185 131q-65 0 -99 -8zM137 336
v-295q28 -6 95 -6q93 0 154.5 34.5t61.5 116.5q0 75 -59 112.5t-151 37.5h-101z" />
    <glyph glyph-name="Gamma" unicode="&#x393;" horiz-adv-x="473" 
d="M88 674h366v-41h-317v-633h-49v674z" />
    <glyph glyph-name="uni0394" unicode="&#x394;" horiz-adv-x="665" 
d="M31 0v34l275 640h48l273 -640v-34h-596zM81 41h495l-183 428q-45 106 -63 154h-2q-18 -47 -55 -132z" />
    <glyph glyph-name="Epsilon" unicode="&#x395;" horiz-adv-x="511" 
d="M437 376v-41h-300v-294h334v-41h-383v674h366v-41h-317v-257h300z" />
    <glyph glyph-name="Zeta" unicode="&#x396;" horiz-adv-x="605" 
d="M37 0v33l461 597v3h-423v41h488v-34l-462 -596v-3h469v-41h-533z" />
    <glyph glyph-name="Eta" unicode="&#x397;" horiz-adv-x="696" 
d="M88 674h49v-295h422v295h49v-674h-49v338h-422v-338h-49v674z" />
    <glyph glyph-name="Theta" unicode="&#x398;" horiz-adv-x="753" 
d="M374 -12h-1q-144 0 -239.5 96.5t-95.5 243.5q0 157 98 257.5t244 100.5q147 0 241 -96.5t94 -243.5q0 -166 -100.5 -262t-240.5 -96zM374 28h1q131 0 210 88.5t79 225.5q0 120 -76 212t-210 92q-137 0 -213 -91.5t-76 -224.5q0 -124 78.5 -213t206.5 -89zM199 370h355
v-41h-355v41z" />
    <glyph glyph-name="Iota" unicode="&#x399;" horiz-adv-x="225" 
d="M88 674h49v-674h-49v674z" />
    <glyph glyph-name="Kappa" unicode="&#x39a;" horiz-adv-x="540" 
d="M88 0v674h49v-345h4q15 20 61 68l269 277h62l-284 -287l314 -387h-61l-287 356l-78 -78v-278h-49z" />
    <glyph glyph-name="Lambda" unicode="&#x39b;" horiz-adv-x="640" 
d="M620 0h-51l-206 515q-19 47 -37 107h-2q-13 -43 -37 -104l-206 -518h-51l272 674h48z" />
    <glyph glyph-name="Mu" unicode="&#x39c;" horiz-adv-x="845" 
d="M732 0l-21 318q-16 229 -16 302h-2q-42 -112 -101 -252l-156 -368h-37l-146 363q-70 174 -95 257h-2q-7 -195 -17 -312l-24 -308h-48l54 674h56l162 -402q50 -124 80 -215h2q24 75 83 214l170 403h58l48 -674h-48z" />
    <glyph glyph-name="Nu" unicode="&#x39d;" horiz-adv-x="706" 
d="M136 0h-48v674h46l305 -415q105 -143 137 -197l2 2q-8 89 -8 262v348h48v-674h-45l-295 401q-110 150 -145 209l-3 -2q6 -91 6 -248v-360z" />
    <glyph glyph-name="Xi" unicode="&#x39e;" horiz-adv-x="583" 
d="M59 674h479v-41h-479v41zM99 370h399v-41h-399v41zM50 41h497v-41h-497v41z" />
    <glyph glyph-name="Omicron" unicode="&#x39f;" horiz-adv-x="753" 
d="M374 -12h-1q-144 0 -239.5 96.5t-95.5 243.5q0 157 98 257.5t244 100.5q147 0 241 -96.5t94 -243.5q0 -166 -100.5 -262t-240.5 -96zM374 28h1q131 0 210 88.5t79 225.5q0 120 -76 212t-210 92q-137 0 -213 -91.5t-76 -224.5q0 -124 78.5 -213t206.5 -89z" />
    <glyph glyph-name="Pi" unicode="&#x3a0;" horiz-adv-x="680" 
d="M591 674v-674h-49v633h-405v-633h-49v674h503z" />
    <glyph glyph-name="Rho" unicode="&#x3a1;" horiz-adv-x="548" 
d="M88 0v667q80 13 160 13q132 0 195 -60q54 -51 54 -131q0 -87 -52 -139q-70 -73 -212 -73q-65 0 -96 10v-287h-49zM137 630v-300q37 -12 102 -12q100 0 154.5 43.5t54.5 121.5q0 82 -55.5 119t-145.5 37q-65 0 -110 -9z" />
    <glyph glyph-name="Sigma" unicode="&#x3a3;" horiz-adv-x="581" 
d="M93 44v-3h465v-41h-533v31l278 305l-264 304v34h481v-41h-415v-3l255 -293z" />
    <glyph glyph-name="Tau" unicode="&#x3a4;" horiz-adv-x="510" 
d="M231 0v633h-251v41h551v-41h-251v-633h-49z" />
    <glyph glyph-name="Upsilon" unicode="&#x3a5;" horiz-adv-x="620" 
d="M12 642l11 38q39 -5 89 -36t84 -73q91 -111 113 -254h2q27 143 135 260q81 84 161 103l10 -36q-28 -11 -60 -32t-71.5 -57t-75 -94.5t-57.5 -129.5q-22 -72 -22 -145v-186h-49v188q0 76 -19 145q-20 72 -52 131t-68 94.5t-69 56.5t-62 27z" />
    <glyph glyph-name="Phi" unicode="&#x3a6;" horiz-adv-x="751" 
d="M399 21v-51h-49v51q-59 3 -114 24t-99.5 58.5t-71.5 96.5t-27 132q0 76 29 139t75.5 101.5t100.5 59.5t109 23v49h49v-49q80 -4 149 -38.5t116 -108t47 -173.5q0 -96 -46.5 -168t-116 -107.5t-151.5 -38.5zM351 58v560q-61 -2 -119 -33t-100 -97t-42 -151
q0 -122 76 -196.5t185 -82.5zM400 618v-560q104 5 182.5 80.5t78.5 196.5q0 127 -76.5 201.5t-184.5 81.5z" />
    <glyph glyph-name="Chi" unicode="&#x3a7;" horiz-adv-x="600" 
d="M568 0h-58l-112 159q-74 104 -103 148h-2q-25 -40 -98 -149l-105 -158h-58l236 341l-226 333h58l120 -182q14 -21 40 -60.5t38 -57.5h2q11 17 81 117l128 183h59l-242 -330z" />
    <glyph glyph-name="Psi" unicode="&#x3a8;" horiz-adv-x="707" 
d="M657 674v-194q0 -120 -76.5 -190t-202.5 -73v-217h-49v217q-52 0 -98.5 12t-88.5 37.5t-67 73.5t-25 113v221h49v-210q0 -197 230 -206v416h49v-416q96 3 163 57.5t67 164.5v194h49z" />
    <glyph glyph-name="uni03A9" unicode="&#x3a9;" horiz-adv-x="763" 
d="M565 44v-3h172v-41h-250v34q76 42 129 125t53 192q0 70 -30.5 135.5t-97.5 112.5t-156 47q-133 0 -212 -89t-79 -210q0 -104 53.5 -188t128.5 -125v-34h-250v41h171v3q-67 48 -110.5 126t-43.5 175q0 148 98.5 244.5t243.5 96.5q149 0 242 -96t93 -236
q0 -101 -43.5 -180.5t-111.5 -129.5z" />
    <glyph glyph-name="Iotadieresis" unicode="&#x3aa;" horiz-adv-x="225" 
d="M21 710h-1q-17 0 -27 12t-10 29q0 16 11.5 28.5t27.5 12.5t27 -12t11 -29t-10.5 -29t-28.5 -12zM201 710h-1q-17 0 -27 12t-10 29q0 16 11.5 28.5t27.5 12.5t27 -12t11 -29t-10.5 -29t-28.5 -12zM88 674h49v-674h-49v674z" />
    <glyph glyph-name="Upsilondieresis" unicode="&#x3ab;" horiz-adv-x="620" 
d="M223 695h-1q-17 0 -27 12t-10 29q0 16 11.5 28.5t27.5 12.5t27 -12t11 -29t-10.5 -29t-28.5 -12zM403 695h-1q-17 0 -27 12t-10 29q0 16 11.5 28.5t27.5 12.5t27 -12t11 -29t-10.5 -29t-28.5 -12zM12 642l11 38q39 -5 89 -36t84 -73q91 -111 113 -254h2q27 143 135 260
q81 84 161 103l10 -36q-28 -11 -60 -32t-71.5 -57t-75 -94.5t-57.5 -129.5q-22 -72 -22 -145v-186h-49v188q0 76 -19 145q-20 72 -52 131t-68 94.5t-69 56.5t-62 27z" />
    <glyph glyph-name="alphatonos" unicode="&#x3ac;" horiz-adv-x="587" 
d="M313 682h66l-96 -140h-36zM470 480h41q-4 -34 -8.5 -150.5t-4.5 -198.5q0 -53 12.5 -77.5t44.5 -25.5l-6 -39q-6 -1 -19 -1q-31 0 -52.5 29t-21.5 90h-3q-67 -119 -194 -119q-98 0 -157 68.5t-59 174.5q0 111 68.5 186t165.5 75q67 0 114.5 -33.5t67.5 -86.5h4
q1 52 7 108zM92 231v-1q0 -83 47 -142.5t131 -59.5q58 0 108.5 44t67.5 101q7 24 7 79q0 37 -5 55q-15 58 -61.5 101.5t-109.5 43.5q-80 0 -132.5 -61t-52.5 -160z" />
    <glyph glyph-name="epsilontonos" unicode="&#x3ad;" horiz-adv-x="464" 
d="M289 682h66l-96 -140h-36zM181 256v4q-55 9 -82.5 37.5t-27.5 65.5q0 51 52 90t145 39q100 0 156 -42l-15 -35q-16 13 -60 25.5t-84 12.5q-64 0 -104.5 -24t-40.5 -66q0 -41 45.5 -63t113.5 -22h83v-40h-86q-83 0 -132.5 -26t-49.5 -76t48 -79t118 -29q46 0 95 15t76 33
l14 -36q-24 -20 -78 -36t-112 -16q-85 0 -147.5 35.5t-62.5 110.5q0 44 36.5 79t99.5 43z" />
    <glyph glyph-name="etatonos" unicode="&#x3ae;" horiz-adv-x="591" 
d="M345 682h66l-96 -140h-36zM134 384h2q23 47 72.5 77.5t112.5 30.5q17 0 36.5 -3.5t48 -17t50 -35.5t37 -64.5t15.5 -98.5v-273q0 -152 13 -200h-48q-14 43 -14 200v273q0 77 -37 127t-114 50q-56 0 -101 -33t-62 -81q-8 -22 -8 -43v-293h-49v364q0 78 -13 116h46
q15 -31 13 -96z" />
    <glyph glyph-name="iotatonos" unicode="&#x3af;" horiz-adv-x="225" 
d="M148 682h66l-96 -140h-36zM137 480v-378q0 -42 10 -58t43 -15l-4 -38q-10 -3 -26 -3q-72 0 -72 107v385h49z" />
    <glyph glyph-name="upsilondieresistonos" unicode="&#x3b0;" horiz-adv-x="557" 
d="M419 480h48q13 -23 24.5 -78t11.5 -107q0 -55 -10 -104.5t-33 -97.5t-70 -76.5t-112 -28.5q-85 0 -140 52t-55 152v128q0 129 -10 160h45q14 -14 14 -84v-191q0 -90 45 -132t105 -42q81 0 126.5 66.5t45.5 190.5q0 62 -12.5 118t-22.5 74zM273 686h56l-50 -148h-30z
M169 566h-1q-16 0 -25.5 11.5t-9.5 27.5q0 15 11 27t26 12t25.5 -11.5t10.5 -27.5t-10 -27.5t-27 -11.5zM393 566h-1q-16 0 -25.5 11.5t-9.5 27.5q0 15 11 27t26 12t25.5 -11.5t10.5 -27.5t-10 -27.5t-27 -11.5z" />
    <glyph glyph-name="alpha" unicode="&#x3b1;" horiz-adv-x="587" 
d="M470 480h41q-4 -34 -8.5 -150.5t-4.5 -198.5q0 -53 12.5 -77.5t44.5 -25.5l-6 -39q-6 -1 -19 -1q-31 0 -52.5 29t-21.5 90h-3q-67 -119 -194 -119q-98 0 -157 68.5t-59 174.5q0 111 68.5 186t165.5 75q67 0 114.5 -33.5t67.5 -86.5h4q1 52 7 108zM92 231v-1
q0 -83 47 -142.5t131 -59.5q58 0 108.5 44t67.5 101q7 24 7 79q0 37 -5 55q-15 58 -61.5 101.5t-109.5 43.5q-80 0 -132.5 -61t-52.5 -160z" />
    <glyph glyph-name="beta" unicode="&#x3b2;" horiz-adv-x="600" 
d="M137 71h-2v-71q0 -152 13 -200h-48q-14 43 -14 188v441q0 173 81 247q57 52 144 52q68 0 122 -44.5t54 -126.5q0 -59 -30 -101t-68 -59v-4q72 -12 120 -63.5t48 -134.5q0 -98 -68.5 -152.5t-157.5 -54.5q-120 0 -194 83zM135 427v-288q20 -39 71 -75t121 -36q75 0 128 45
t53 119q0 84 -56.5 128t-148.5 44h-36v40h19q74 0 113 44.5t39 100.5q0 68 -38.5 103.5t-97.5 35.5q-83 0 -125 -66.5t-42 -194.5z" />
    <glyph glyph-name="gamma" unicode="&#x3b3;" horiz-adv-x="478" 
d="M262 -200h-51q4 47 2 129t-18 143q-28 111 -89 231t-107 177h59q46 -59 103 -178.5t83 -228.5h3q158 225 158 382v25h47q2 -8 2 -30q0 -161 -190 -425q-5 -6 -5 -23q3 -67 3 -202z" />
    <glyph glyph-name="delta" unicode="&#x3b4;" horiz-adv-x="584" 
d="M489 679l-18 -37q-22 16 -64 31t-84 15q-55 0 -84.5 -17.5t-29.5 -42.5q0 -6 1 -11.5t4.5 -11t6 -9.5t9 -10t10.5 -9.5t13 -10t14.5 -10t17.5 -12t18 -12.5l88 -60q76 -51 113 -106.5t37 -130.5q0 -110 -71.5 -178.5t-174.5 -68.5q-104 0 -178 66t-74 184q0 88 58.5 156
t157.5 112v5l-29 19q-68 48 -68 94q0 42 43 73t122 31q48 0 93 -14.5t69 -34.5zM364 437l-69 47q-203 -90 -203 -248q0 -97 62 -152.5t143 -55.5q80 0 137.5 55.5t57.5 151.5q0 115 -128 202z" />
    <glyph glyph-name="epsilon" unicode="&#x3b5;" horiz-adv-x="464" 
d="M181 256v4q-55 9 -82.5 37.5t-27.5 65.5q0 51 52 90t145 39q100 0 156 -41l-15 -36q-16 13 -60 25.5t-84 12.5q-64 0 -104.5 -24t-40.5 -66q0 -41 45.5 -63t113.5 -22h83v-40h-86q-83 0 -132.5 -26t-49.5 -76t48 -79t118 -29q46 0 95 15t76 33l14 -36q-24 -20 -78 -36
t-112 -16q-85 0 -147.5 35.5t-62.5 110.5q0 44 36.5 79t99.5 43z" />
    <glyph glyph-name="zeta" unicode="&#x3b6;" horiz-adv-x="421" 
d="M361 -142l-35 10q9 14 21.5 56t13.5 64q-75 9 -134 25q-183 50 -183 231q0 111 77.5 230t216.5 199v3h-96q-92 0 -131 9l5 36q35 -5 120 -5h175l7 -40q-148 -74 -237 -193t-89 -232q0 -90 42 -134.5t123 -67.5q52 -15 147 -24q9 -2 9 -9q0 -39 -18 -87t-34 -71z" />
    <glyph glyph-name="eta" unicode="&#x3b7;" horiz-adv-x="591" 
d="M134 384h2q23 47 72.5 77.5t112.5 30.5q17 0 36.5 -3.5t48 -17t50 -35.5t37 -64.5t15.5 -98.5v-273q0 -152 13 -200h-48q-14 43 -14 200v273q0 77 -37 127t-114 50q-56 0 -101 -33t-62 -81q-8 -22 -8 -43v-293h-49v364q0 78 -13 116h46q15 -31 13 -96z" />
    <glyph glyph-name="theta" unicode="&#x3b8;" horiz-adv-x="566" 
d="M288 -12h-1q-115 0 -179.5 99.5t-64.5 275.5q0 96 26 177t83 134.5t135 53.5q81 0 135.5 -50.5t77.5 -130t23 -184.5q0 -77 -13.5 -143t-40.5 -119t-73.5 -83t-107.5 -30zM92 392h382q0 128 -49 212t-144 84q-84 0 -136.5 -89t-52.5 -207zM474 353h-382
q0 -154 55.5 -239.5t140.5 -85.5q89 0 137.5 89.5t48.5 235.5z" />
    <glyph glyph-name="iota" unicode="&#x3b9;" horiz-adv-x="225" 
d="M137 480v-378q0 -42 10 -58t43 -15l-4 -38q-10 -3 -26 -3q-72 0 -72 107v385h49z" />
    <glyph glyph-name="kappa" unicode="&#x3ba;" horiz-adv-x="502" 
d="M205 259v-3q62 -11 186 -143l105 -113h-60l-98 103q-58 59 -103.5 89.5t-87.5 30.5h-10v-223h-49v394q0 64 -10 86h47q12 -16 12 -76v-145h6q66 50 156.5 122.5t125.5 98.5h63v-3q-43 -31 -138.5 -106t-144.5 -112z" />
    <glyph glyph-name="lambda" unicode="&#x3bb;" horiz-adv-x="490" 
d="M414 0l-133 318q-24 59 -39 101h-4q-5 -15 -39 -97l-137 -322h-52l196 446q7 15 7 22q0 10 -7 25q-45 105 -63 133q-40 61 -92 61q-10 0 -15 -1l5 39q12 3 25 3q26 0 49 -12t39 -28.5t36.5 -53t33 -64t36.5 -84.5l207 -486h-53z" />
    <glyph glyph-name="uni03BC" unicode="&#x3bc;" horiz-adv-x="590" 
d="M457 90h-3q-25 -42 -67.5 -72t-102.5 -30q-108 0 -147 76v-64q0 -152 13 -200h-46q-16 49 -16 200v480h49v-283q0 -72 37 -119t112 -47q52 0 93.5 29t62.5 73q12 30 12 56v291h49v-351q0 -54 11 -75.5t44 -24.5l-6 -40q-11 -1 -15 -1q-33 0 -55.5 24t-24.5 78z" />
    <glyph glyph-name="nu" unicode="&#x3bd;" horiz-adv-x="491" 
d="M6 480h52l124 -296q13 -29 32 -75t25 -61h3q2 3 20 31t26.5 42t27 45.5t29.5 52.5t26 52t23 55.5t14 51.5t6 49q0 38 -1 53h46q4 -20 4 -36q0 -64 -34 -147t-61.5 -127.5t-96.5 -147.5q-9 -15 -14 -22h-46z" />
    <glyph glyph-name="xi" unicode="&#x3be;" horiz-adv-x="444" 
d="M368 442v-40h-29q-124 0 -185 -51t-61 -126q0 -69 46.5 -111t137.5 -65q65 -16 152 -24q9 0 9 -10q0 -35 -17.5 -86t-33.5 -71l-35 10q9 14 22 56.5t14 63.5q-37 4 -66.5 8.5t-66.5 13.5t-65 20.5t-57 29.5t-47.5 40.5t-30 54.5t-11.5 70q0 71 50 125t119 70v4
q-123 31 -123 140q0 62 54.5 113t156.5 51q84 0 126 -30l-15 -38q-42 29 -118 29q-72 0 -113.5 -36.5t-41.5 -88.5q0 -56 45.5 -89t112.5 -33h71z" />
    <glyph glyph-name="omicron" unicode="&#x3bf;" horiz-adv-x="591" 
d="M291 -12h-1q-107 0 -177 70t-70 177q0 116 74.5 186.5t179.5 70.5q113 0 182 -70.5t69 -175.5q0 -65 -23.5 -116t-61.5 -81t-82 -45.5t-90 -15.5zM292 28h1q84 0 145 58t61 157q0 79 -52.5 144t-149.5 65t-151 -62t-54 -152q0 -96 59 -153t141 -57z" />
    <glyph glyph-name="pi" unicode="&#x3c0;" horiz-adv-x="583" 
d="M541 440h-79v-296q0 -98 16 -144h-49q-16 30 -16 136v304h-216q-7 -108 -32 -245.5t-53 -194.5h-47q30 67 54.5 197.5t30.5 242.5q-78 0 -119 -11l-10 30q47 21 125 21h403z" />
    <glyph glyph-name="rho" unicode="&#x3c1;" horiz-adv-x="606" 
d="M133 84h-3v-84q0 -150 9 -200h-46q-12 44 -12 200v189q0 82 15.5 130t45.5 85q29 37 78 62.5t112 25.5q106 0 168.5 -68.5t62.5 -169.5q0 -122 -70 -194t-172 -72q-59 0 -109.5 24.5t-78.5 71.5zM130 215v-22q0 -18 5 -38q16 -53 66.5 -90t115.5 -37q90 0 143.5 61
t53.5 160q0 85 -51.5 144t-138.5 59q-35 0 -68 -13.5t-62 -40.5t-46.5 -74.5t-17.5 -108.5z" />
    <glyph glyph-name="uni03C2" unicode="&#x3c2;" horiz-adv-x="430" 
d="M427 469l-15 -39q-46 22 -106 22q-94 0 -154 -61t-60 -148q0 -83 45.5 -129.5t132.5 -67.5q59 -14 136 -21q11 -1 11 -16q0 -34 -16.5 -81t-30.5 -70l-38 10q8 13 21.5 56t14.5 63q-68 8 -127 21q-89 21 -143.5 79t-54.5 151q0 98 72.5 176t195.5 78q76 0 116 -23z" />
    <glyph glyph-name="sigma" unicode="&#x3c3;" horiz-adv-x="589" 
d="M417 454v-3q55 -28 88 -81t33 -121q0 -64 -23.5 -116t-60.5 -82.5t-79.5 -46.5t-85.5 -16q-106 0 -176 70t-70 177q0 118 74.5 187.5t190.5 69.5h112h48q102 0 109 1l-1 -41q-92 0 -159 2zM290 28h1q79 0 138.5 60t59.5 158q0 78 -52.5 142t-146.5 64q-92 0 -145 -62.5
t-53 -151.5q0 -96 59 -153t139 -57z" />
    <glyph glyph-name="tau" unicode="&#x3c4;" horiz-adv-x="429" 
d="M321 32l-3 -36q-11 -8 -38 -8q-97 0 -97 140v312h-64q-60 0 -118 -7l-6 27q33 20 120 20h304l-9 -40h-178v-313q0 -97 66 -97q9 0 23 2z" />
    <glyph glyph-name="upsilon" unicode="&#x3c5;" horiz-adv-x="557" 
d="M419 480h48q13 -23 24.5 -78t11.5 -107q0 -55 -10 -104.5t-33 -97.5t-70 -76.5t-112 -28.5q-85 0 -140 52t-55 152v128q0 129 -10 160h45q14 -14 14 -84v-191q0 -90 45 -132t105 -42q81 0 126.5 66.5t45.5 190.5q0 62 -12.5 118t-22.5 74z" />
    <glyph glyph-name="phi" unicode="&#x3c6;" horiz-adv-x="654" 
d="M220 499l17 -30q-58 -30 -101.5 -85t-43.5 -138q0 -86 53.5 -145.5t157.5 -72.5v328q0 68 30 102t78 34q73 0 136 -67t63 -170q0 -119 -74.5 -188t-183.5 -79v-188h-49v188q-108 6 -184 71.5t-76 185.5q0 51 17.5 96t46 76t57 51t56.5 31zM352 360v-332q96 12 152.5 70.5
t56.5 157.5q0 76 -46 136t-105 60q-26 0 -42 -24t-16 -68z" />
    <glyph glyph-name="chi" unicode="&#x3c7;" horiz-adv-x="470" 
d="M29 480h54l158 -288h4q24 45 69 126l90 162h51l-189 -323l200 -349l-45 -16l-182 324h-3q-29 -52 -55 -102l-118 -222l-42 17l192 345z" />
    <glyph glyph-name="psi" unicode="&#x3c8;" horiz-adv-x="670" 
d="M323 -200v188q-240 12 -240 248v141q0 77 -10 103h46q13 -15 13 -84v-160q0 -104 54.5 -155t136.5 -54v589h49v-589q82 3 138.5 68.5t56.5 188.5q0 68 -14.5 124.5t-29.5 71.5h51q17 -21 29.5 -74t12.5 -118q0 -52 -13 -101t-40 -94t-76.5 -73.5t-114.5 -31.5v-188h-49z
" />
    <glyph glyph-name="omega" unicode="&#x3c9;" horiz-adv-x="735" 
d="M392 368l-2 -199q-1 -63 33.5 -101.5t83.5 -38.5q52 0 94 60t42 168q0 74 -26 138t-66 95v2h52q39 -30 64 -92t25 -143q0 -132 -57 -200.5t-128 -68.5q-51 0 -87.5 25.5t-52.5 71.5h-3q-19 -47 -55.5 -72t-84.5 -25q-70 0 -125.5 65t-55.5 199q0 73 26.5 140t64.5 100h49
v-2q-40 -36 -65.5 -101t-25.5 -142q0 -111 44 -164.5t96 -53.5q45 0 79.5 39.5t33.5 98.5l-2 201h49z" />
    <glyph glyph-name="iotadieresis" unicode="&#x3ca;" horiz-adv-x="225" 
d="M25 564h-1q-17 0 -27 12t-10 29q0 16 11.5 28.5t27.5 12.5t27 -12t11 -29t-10.5 -29t-28.5 -12zM205 564h-1q-17 0 -27 12t-10 29q0 16 11.5 28.5t27.5 12.5t27 -12t11 -29t-10.5 -29t-28.5 -12zM137 480v-378q0 -42 10 -58t43 -15l-4 -38q-10 -3 -26 -3q-72 0 -72 107
v385h49z" />
    <glyph glyph-name="upsilondieresis" unicode="&#x3cb;" horiz-adv-x="557" 
d="M186 564h-1q-17 0 -27 12t-10 29q0 16 11.5 28.5t27.5 12.5t27 -12t11 -29t-10.5 -29t-28.5 -12zM366 564h-1q-17 0 -27 12t-10 29q0 16 11.5 28.5t27.5 12.5t27 -12t11 -29t-10.5 -29t-28.5 -12zM419 480h48q13 -23 24.5 -78t11.5 -107q0 -55 -10 -104.5t-33 -97.5
t-70 -76.5t-112 -28.5q-85 0 -140 52t-55 152v128q0 129 -10 160h45q14 -14 14 -84v-191q0 -90 45 -132t105 -42q81 0 126.5 66.5t45.5 190.5q0 62 -12.5 118t-22.5 74z" />
    <glyph glyph-name="omicrontonos" unicode="&#x3cc;" horiz-adv-x="591" 
d="M329 682h66l-96 -140h-36zM291 -12h-1q-107 0 -177 70t-70 177q0 116 74.5 186.5t179.5 70.5q113 0 182 -70.5t69 -175.5q0 -65 -23.5 -116t-61.5 -81t-82 -45.5t-90 -15.5zM292 28h1q84 0 145 58t61 157q0 79 -52.5 144t-149.5 65t-151 -62t-54 -152q0 -96 59 -153
t141 -57z" />
    <glyph glyph-name="upsilontonos" unicode="&#x3cd;" horiz-adv-x="557" 
d="M308 682h66l-96 -140h-36zM419 480h48q13 -23 24.5 -78t11.5 -107q0 -55 -10 -104.5t-33 -97.5t-70 -76.5t-112 -28.5q-85 0 -140 52t-55 152v128q0 129 -10 160h45q14 -14 14 -84v-191q0 -90 45 -132t105 -42q81 0 126.5 66.5t45.5 190.5q0 62 -12.5 118t-22.5 74z" />
    <glyph glyph-name="omegatonos" unicode="&#x3ce;" horiz-adv-x="735" 
d="M395 682h66l-96 -140h-36zM392 368l-2 -199q-1 -63 33.5 -101.5t83.5 -38.5q52 0 94 60t42 168q0 74 -26 138t-66 95v2h52q39 -30 64 -92t25 -143q0 -132 -57 -200.5t-128 -68.5q-51 0 -87.5 25.5t-52.5 71.5h-3q-19 -47 -55.5 -72t-84.5 -25q-70 0 -125.5 65t-55.5 199
q0 73 26.5 140t64.5 100h49v-2q-40 -36 -65.5 -101t-25.5 -142q0 -111 44 -164.5t96 -53.5q45 0 79.5 39.5t33.5 98.5l-2 201h49z" />
    <glyph glyph-name="afii10023" unicode="&#x401;" horiz-adv-x="511" 
d="M437 376v-41h-300v-294h334v-41h-383v674h366v-41h-317v-257h300zM177 724h-1q-17 0 -27 12t-10 29q0 16 11.5 28.5t27.5 12.5t27 -12t11 -29t-10.5 -29t-28.5 -12zM357 724h-1q-17 0 -27 12t-10 29q0 16 11.5 28.5t27.5 12.5t27 -12t11 -29t-10.5 -29t-28.5 -12z" />
    <glyph glyph-name="afii10051" unicode="&#x402;" horiz-adv-x="688" 
d="M-20 674h548v-41h-282v-234h2q84 55 167 55q112 0 175 -86q52 -70 52 -183q0 -136 -64 -222q-59 -80 -168 -97l-9 34q88 20 135 82q56 73 56 193q0 101 -41 161q-52 76 -143 76q-88 0 -162 -57v-355h-49v633h-217v41z" />
    <glyph glyph-name="afii10052" unicode="&#x403;" horiz-adv-x="427" 
d="M88 674h359v-41h-310v-633h-49v674zM310 825h76l-132 -115h-40z" />
    <glyph glyph-name="afii10053" unicode="&#x404;" horiz-adv-x="629" 
d="M594 650l-16 -39q-66 34 -156 34q-138 0 -228 -75t-103 -204h422v-40h-422q1 -133 90 -215t228 -82q94 0 172 35l11 -38q-71 -38 -200 -38q-66 0 -127.5 21t-113 61.5t-82.5 109t-31 154.5q0 156 109.5 254t271.5 98q111 0 175 -36z" />
    <glyph glyph-name="afii10054" unicode="&#x405;" horiz-adv-x="505" 
d="M46 38l19 41q73 -50 167 -50q81 0 128 39t47 102q0 58 -34 94t-118 63q-101 32 -145 76t-44 110q0 75 58.5 124t150.5 49q98 0 150 -34l-19 -41q-51 35 -133 35t-120.5 -39t-38.5 -87q0 -54 35 -88t117 -60q98 -32 143.5 -75.5t45.5 -121.5q0 -77 -58 -132t-171 -55
q-49 0 -99.5 14t-80.5 36z" />
    <glyph glyph-name="afii10055" unicode="&#x406;" horiz-adv-x="225" 
d="M88 674h49v-674h-49v674z" />
    <glyph glyph-name="afii10056" unicode="&#x407;" horiz-adv-x="225" 
d="M88 674h49v-674h-49v674zM23 724h-1q-17 0 -27 12t-10 29q0 16 11.5 28.5t27.5 12.5t27 -12t11 -29t-10.5 -29t-28.5 -12zM203 724h-1q-17 0 -27 12t-10 29q0 16 11.5 28.5t27.5 12.5t27 -12t11 -29t-10.5 -29t-28.5 -12z" />
    <glyph glyph-name="afii10057" unicode="&#x408;" horiz-adv-x="378" 
d="M249 233v441h49v-454q0 -232 -196 -232q-58 0 -96 19l12 40q36 -17 84 -17q74 0 110.5 44.5t36.5 158.5z" />
    <glyph glyph-name="afii10058" unicode="&#x409;" horiz-adv-x="927" 
d="M140 674h371v-257q35 5 95 5q74 0 133 -18t100.5 -66.5t41.5 -123.5q0 -87 -53 -143q-74 -77 -237 -77q-39 0 -129 6v633h-275v-221v-64t-2 -65.5t-8 -77t-15.5 -65.5t-26.5 -65t-40 -44q-49 -37 -94 -37l-9 38q46 8 81 43q24 23 39 64t20.5 99t6.5 87.5t1 82.5v266z
M511 376v-337q31 -5 94 -5q96 0 161 44t65 133q0 91 -65 130.5t-164 39.5q-44 0 -91 -5z" />
    <glyph glyph-name="afii10059" unicode="&#x40a;" horiz-adv-x="939" 
d="M88 674h49v-277h337v277h49v-272q35 5 115 5q51 0 94.5 -10.5t80.5 -32.5t58.5 -61t21.5 -92q0 -87 -53 -142q-71 -75 -234 -75q-42 0 -132 6v356h-337v-356h-49v674zM523 361v-321q37 -6 94 -6q96 0 161 41.5t65 132.5q0 44 -18.5 75.5t-50.5 49t-69.5 25.5t-80.5 8
q-63 0 -101 -5z" />
    <glyph glyph-name="afii10060" unicode="&#x40b;" horiz-adv-x="699" 
d="M-20 674h534v-41h-273v-224h2q92 55 178 55q82 0 133 -46q60 -57 60 -167v-251h-49v247q0 91 -43 135q-43 41 -110 41q-40 0 -89.5 -16.5t-81.5 -39.5v-367h-49v633h-212v41z" />
    <glyph glyph-name="afii10061" unicode="&#x40c;" horiz-adv-x="553" 
d="M88 674h49v-310h41l290 310h58l-299 -314q96 -8 146 -52.5t89 -131.5q70 -156 81 -176h-52q-24 42 -76 163q-35 83 -89 122.5t-157 39.5h-32v-325h-49v674zM349 820h76l-132 -115h-40z" />
    <glyph glyph-name="afii10062" unicode="&#x40e;" horiz-adv-x="522" 
d="M-2 674h56l177 -328q22 -41 54 -109h2q14 35 49 112l144 325h52l-178 -389q-74 -164 -129 -225q-64 -71 -140 -71q-29 0 -36 3l8 41q8 -2 24 -2q31 0 58.5 13.5t48.5 38t33.5 44t27.5 48.5q7 15 6 24t-10 25zM142 820h46q3 -14 6 -22t10.5 -20t22 -17.5t35.5 -5.5
t35.5 5.5t21.5 16t10 20t5 23.5h46q-4 -102 -121 -102q-59 0 -87 28.5t-30 73.5z" />
    <glyph glyph-name="afii10145" unicode="&#x40f;" horiz-adv-x="674" 
d="M88 674h49v-633h402v633h49v-674h-222l-8 -180h-41l-8 180h-221v674z" />
    <glyph glyph-name="afii10017" unicode="&#x410;" horiz-adv-x="640" 
d="M474 237h-300l-93 -237h-51l272 674h48l270 -674h-51zM191 278h267l-95 237q-19 47 -37 107h-2q-13 -43 -37 -104z" />
    <glyph glyph-name="afii10018" unicode="&#x411;" horiz-adv-x="553" 
d="M88 674h365v-41h-316v-216q35 5 95 5q102 0 170 -34q105 -52 105 -174q0 -87 -53 -143q-74 -77 -237 -77q-39 0 -129 6v674zM137 376v-336q37 -6 94 -6q54 0 104 16.5t80 48.5q42 44 42 112q0 94 -76 137q-58 33 -153 33q-44 0 -91 -5z" />
    <glyph glyph-name="afii10019" unicode="&#x412;" horiz-adv-x="548" 
d="M88 0v665q68 15 151 15q131 0 190 -59q42 -42 42 -111q0 -50 -33.5 -91t-85.5 -59v-3q21 -4 44 -15t47.5 -30t40 -51.5t15.5 -72.5q0 -76 -51 -127q-67 -67 -233 -67q-37 0 -127 6zM137 631v-255h118q77 0 121.5 37.5t44.5 94.5q0 131 -185 131q-65 0 -99 -8zM137 336
v-295q28 -6 95 -6q93 0 154.5 34.5t61.5 116.5q0 75 -59 112.5t-151 37.5h-101z" />
    <glyph glyph-name="afii10020" unicode="&#x413;" horiz-adv-x="427" 
d="M88 674h359v-41h-310v-633h-49v674z" />
    <glyph glyph-name="afii10021" unicode="&#x414;" horiz-adv-x="647" 
d="M169 674h375v-633h59l-6 -206h-40l-5 165h-491l-5 -165h-40l-6 206h49q5 9 17 29t20 33t17.5 32.5t15.5 36.5q40 112 40 328v174zM215 633v-161q0 -202 -42 -313q-21 -55 -62 -118h384v592h-280z" />
    <glyph glyph-name="afii10022" unicode="&#x415;" horiz-adv-x="511" 
d="M437 376v-41h-300v-294h334v-41h-383v674h366v-41h-317v-257h300z" />
    <glyph glyph-name="afii10024" unicode="&#x416;" horiz-adv-x="834" 
d="M36 674h57l260 -310h41v310h47v-310h42l258 310h58l-270 -315q88 -7 133.5 -49.5t81.5 -131.5q8 -18 31.5 -81.5t40.5 -96.5h-51q-16 28 -38.5 88t-27.5 72q-37 91 -80 128t-137 37h-41v-325h-47v325h-43q-49 0 -83.5 -9.5t-59 -32.5t-40.5 -50t-35 -73
q-5 -11 -27.5 -71.5t-36.5 -88.5h-51q17 34 41 98t31 80q36 89 82 131.5t133 49.5z" />
    <glyph glyph-name="afii10025" unicode="&#x417;" horiz-adv-x="490" 
d="M79 598l-16 37q77 51 168 51q80 0 132 -40.5t52 -119.5q0 -62 -43 -109.5t-106 -59.5v-2q81 -6 129 -51.5t48 -122.5q0 -98 -68 -145.5t-168 -47.5q-98 0 -172 44l18 38q73 -43 156 -43q87 0 135 43.5t48 110.5q0 44 -20 75t-54 47.5t-71 23.5t-78 7h-26v38h28
q81 0 137 44t56 104q0 62 -38 94.5t-101 32.5q-75 0 -146 -49z" />
    <glyph glyph-name="afii10026" unicode="&#x418;" horiz-adv-x="706" 
d="M88 674h48v-348q0 -173 -8 -262l2 -2q28 48 138 197l305 415h45v-674h-48v360q0 157 6 248l-3 2q-31 -51 -146 -209l-295 -401h-44v674z" />
    <glyph glyph-name="afii10027" unicode="&#x419;" horiz-adv-x="706" 
d="M88 674h48v-348q0 -173 -8 -262l2 -2q28 48 138 197l305 415h45v-674h-48v360q0 157 6 248l-3 2q-31 -51 -146 -209l-295 -401h-44v674zM234 815h46q3 -14 6 -22t10.5 -20t22 -17.5t35.5 -5.5t35.5 5.5t21.5 16t10 20t5 23.5h46q-4 -102 -121 -102q-59 0 -87 28.5
t-30 73.5z" />
    <glyph glyph-name="afii10028" unicode="&#x41a;" horiz-adv-x="553" 
d="M88 674h49v-310h41l290 310h58l-299 -314q96 -8 146 -52.5t89 -131.5q70 -156 81 -176h-52q-24 42 -76 163q-35 83 -89 122.5t-157 39.5h-32v-325h-49v674z" />
    <glyph glyph-name="afii10029" unicode="&#x41b;" horiz-adv-x="620" 
d="M136 674h396v-674h-49v633h-298v-221v-64t-2 -65.5t-8 -77t-15.5 -65.5t-26.5 -65t-40 -44q-49 -37 -98 -37l-5 38q44 8 79 43q24 23 39 64t20.5 99t6.5 87.5t1 82.5v266z" />
    <glyph glyph-name="afii10030" unicode="&#x41c;" horiz-adv-x="845" 
d="M732 0l-21 318q-16 229 -16 302h-2q-42 -112 -101 -252l-156 -368h-37l-146 363q-70 174 -95 257h-2q-7 -195 -17 -312l-24 -308h-48l54 674h56l162 -402q50 -124 80 -215h2q24 75 83 214l170 403h58l48 -674h-48z" />
    <glyph glyph-name="afii10031" unicode="&#x41d;" horiz-adv-x="696" 
d="M88 674h49v-295h422v295h49v-674h-49v338h-422v-338h-49v674z" />
    <glyph glyph-name="afii10032" unicode="&#x41e;" horiz-adv-x="753" 
d="M380 686q147 0 241 -96.5t94 -243.5q0 -112 -49.5 -195t-126 -123t-166.5 -40q-144 0 -239.5 96.5t-95.5 243.5q0 157 98 257.5t244 100.5zM378 646q-137 0 -213 -91.5t-76 -224.5q0 -124 79 -213t207 -89q131 0 210 88.5t79 225.5q0 120 -76 212t-210 92z" />
    <glyph glyph-name="afii10033" unicode="&#x41f;" horiz-adv-x="679" 
d="M88 674h503v-674h-49v633h-405v-633h-49v674z" />
    <glyph glyph-name="afii10034" unicode="&#x420;" horiz-adv-x="548" 
d="M88 0v667q80 13 160 13q132 0 195 -60q54 -51 54 -131q0 -87 -52 -139q-70 -73 -212 -73q-65 0 -96 10v-287h-49zM137 630v-300q37 -12 102 -12q100 0 154.5 43.5t54.5 121.5q0 82 -55.5 119t-145.5 37q-65 0 -110 -9z" />
    <glyph glyph-name="afii10035" unicode="&#x421;" horiz-adv-x="640" 
d="M590 66l15 -39q-78 -39 -211 -39q-70 0 -132.5 21.5t-113 63t-80.5 109t-30 152.5q0 67 25 129.5t71 112.5t120.5 80t166.5 30q111 0 182 -34l-16 -41q-68 34 -163 34q-160 0 -247.5 -87t-87.5 -228q0 -130 85 -215t238 -85q106 0 178 36z" />
    <glyph glyph-name="afii10036" unicode="&#x422;" horiz-adv-x="510" 
d="M231 0v633h-251v41h551v-41h-251v-633h-49z" />
    <glyph glyph-name="afii10037" unicode="&#x423;" horiz-adv-x="522" 
d="M-2 674h56l177 -328q22 -41 54 -109h2q14 35 49 112l144 325h52l-178 -389q-74 -164 -129 -225q-64 -71 -140 -71q-29 0 -36 3l8 41q8 -2 24 -2q31 0 58.5 13.5t48.5 38t33.5 44t27.5 48.5q7 15 6 24t-10 25z" />
    <glyph glyph-name="afii10038" unicode="&#x424;" horiz-adv-x="763" 
d="M358 704h49v-64q49 -1 93.5 -11.5t86 -34.5t72 -58.5t48.5 -86t18 -114.5q0 -75 -27 -133t-73 -92.5t-101.5 -53t-118.5 -20.5v-66h-49v66q-62 3 -116.5 20.5t-101 51.5t-73.5 91.5t-27 132.5q0 80 29 141.5t77 95.5t101.5 51.5t112.5 19.5v64zM357 73v530
q-48 -1 -92.5 -15.5t-85 -44t-65 -83t-24.5 -123.5q0 -125 75.5 -190.5t191.5 -73.5zM406 603v-530q52 2 98.5 18.5t85 47t61 81t22.5 115.5q0 70 -22 123t-60.5 83t-84.5 45t-100 17z" />
    <glyph glyph-name="afii10039" unicode="&#x425;" horiz-adv-x="600" 
d="M568 0h-58l-112 159q-74 104 -103 148h-2q-25 -40 -98 -149l-105 -158h-58l236 341l-226 333h58l120 -182q14 -21 40 -60.5t38 -57.5h2q11 17 81 117l128 183h59l-242 -330z" />
    <glyph glyph-name="afii10040" unicode="&#x426;" horiz-adv-x="689" 
d="M88 674h49v-633h400v633h49v-633h59l-6 -206h-41l-4 165h-506v674z" />
    <glyph glyph-name="afii10041" unicode="&#x427;" horiz-adv-x="627" 
d="M85 674h49v-225q0 -84 46 -129t134 -45q99 0 176 54v345h49v-674h-49v287h-2q-77 -54 -189 -54q-214 0 -214 214v227z" />
    <glyph glyph-name="afii10042" unicode="&#x428;" horiz-adv-x="883" 
d="M88 674h49v-633h280v633h49v-633h280v633h49v-674h-707v674z" />
    <glyph glyph-name="afii10043" unicode="&#x429;" horiz-adv-x="898" 
d="M88 674h49v-633h280v633h49v-633h280v633h49v-633h59l-6 -206h-41l-4 165h-715v674z" />
    <glyph glyph-name="afii10044" unicode="&#x42a;" horiz-adv-x="621" 
d="M-20 674h235v-257q35 5 90 5q42 0 79 -6.5t72.5 -21.5t61.5 -38.5t41.5 -59.5t15.5 -82q0 -87 -53 -143q-74 -77 -232 -77q-34 0 -124 6v633h-186v41zM215 376v-336q38 -6 89 -6q97 0 159 43.5t62 133.5q0 62 -34 102t-80.5 54t-104.5 14q-44 0 -91 -5z" />
    <glyph glyph-name="afii10045" unicode="&#x42b;" horiz-adv-x="732" 
d="M88 674h49v-258q31 6 95 6q45 0 84 -6.5t75 -21.5t61 -38.5t40 -59.5t15 -82q0 -87 -53 -143q-74 -77 -237 -77q-39 0 -129 6v674zM137 376v-336q37 -6 94 -6q97 0 161.5 44t64.5 133q0 91 -65 130.5t-164 39.5q-56 0 -91 -5zM595 674h49v-674h-49v674z" />
    <glyph glyph-name="afii10046" unicode="&#x42c;" horiz-adv-x="553" 
d="M88 674h49v-258q31 6 95 6q74 0 133 -18t100.5 -66.5t41.5 -123.5q0 -87 -53 -143q-74 -77 -237 -77q-39 0 -129 6v674zM137 376v-336q37 -6 94 -6q97 0 161.5 43.5t64.5 133.5q0 91 -65 130.5t-164 39.5q-44 0 -91 -5z" />
    <glyph glyph-name="afii10047" unicode="&#x42d;" horiz-adv-x="616" 
d="M158 326v40h367q-12 130 -89.5 204.5t-199.5 74.5q-77 0 -175 -44l-16 39q103 46 194 46q152 0 245.5 -95t93.5 -257q0 -86 -29 -154t-77.5 -109t-107 -62t-121.5 -21q-112 0 -208 41l14 42q89 -42 177 -42q134 0 216.5 80t84.5 217h-369z" />
    <glyph glyph-name="afii10048" unicode="&#x42e;" horiz-adv-x="925" 
d="M88 674h49v-310h122q10 148 95 235t222 87q143 0 227 -95.5t84 -244.5q0 -170 -92 -264t-225 -94q-139 0 -224.5 92.5t-87.5 242.5h-121v-323h-49v674zM570 28h1q121 0 193 88.5t72 225.5q0 77 -27.5 144t-88.5 113.5t-146 46.5q-128 0 -197.5 -91.5t-69.5 -224.5
q0 -125 72 -213.5t191 -88.5z" />
    <glyph glyph-name="afii10049" unicode="&#x42f;" horiz-adv-x="554" 
d="M74 0h-54q18 32 24 46q8 19 30 79t42.5 99.5t48.5 66.5q26 25 59 34v2q-74 9 -120.5 56t-46.5 111q0 81 53 128q65 58 197 58q82 0 159 -15v-665h-49v309h-97q-80 0 -118 -39q-23 -24 -41.5 -62.5t-38 -94t-27.5 -73.5t-21 -40zM417 350v279q-42 11 -111 11
q-200 0 -200 -142q0 -69 57 -108.5t150 -40.5q83 0 104 1z" />
    <glyph glyph-name="afii10065" unicode="&#x430;" horiz-adv-x="496" 
d="M416 290v-174q0 -64 8 -116h-45l-8 74h-2q-23 -33 -68.5 -59.5t-105.5 -26.5q-75 0 -114 41t-39 91q0 85 81 132t244 45v11q0 15 -1.5 29.5t-9.5 36.5t-21.5 38t-40.5 27.5t-63 11.5q-81 0 -138 -40l-16 35q70 46 158 46q181 0 181 -202zM367 154v102q-53 2 -97 -2.5
t-86 -17.5t-66 -40t-24 -67q0 -49 30 -75t75 -26q63 0 104 29.5t58 68.5q6 15 6 28z" />
    <glyph glyph-name="afii10066" unicode="&#x431;" horiz-adv-x="547" 
d="M454 728l-1 -45q-38 -16 -91 -24q-78 -13 -131 -39.5t-86 -75.5q-50 -72 -60 -195h2q27 65 81 98t114 33q97 0 159.5 -62.5t62.5 -173.5q0 -116 -57 -186t-173 -70q-67 0 -114.5 30t-71.5 81.5t-34.5 106t-10.5 118.5q0 141 62 239q37 59 94.5 88.5t149.5 46.5
q54 10 105 30zM455 237v1q0 79 -43 140.5t-136 61.5q-104 0 -151 -91q-25 -47 -25 -103q0 -84 48 -151.5t130 -67.5q89 0 133 60t44 150z" />
    <glyph glyph-name="afii10067" unicode="&#x432;" horiz-adv-x="505" 
d="M83 0v474q60 10 141 10q212 0 212 -119q0 -43 -28.5 -72t-73.5 -38v-2q56 -6 91 -36t35 -83q0 -138 -252 -138q-17 0 -125 4zM128 437v-167h96q67 0 114.5 20t47.5 69q0 83 -168 83q-28 0 -90 -5zM127 231v-189q49 -4 95 -4q188 0 188 96q0 32 -15 52.5t-45.5 29.5
t-59.5 12t-72 3h-91z" />
    <glyph glyph-name="afii10068" unicode="&#x433;" horiz-adv-x="397" 
d="M83 480h295v-41h-246v-439h-49v480z" />
    <glyph glyph-name="afii10069" unicode="&#x434;" horiz-adv-x="532" 
d="M130 480h309v-439h50l-4 -200h-42l-3 159h-383l-3 -159h-42l-4 200h42q31 49 47 94q33 100 33 222v123zM175 440v-95q0 -115 -30 -211q-10 -31 -41 -93h286v399h-215z" />
    <glyph glyph-name="afii10070" unicode="&#x435;" horiz-adv-x="537" 
d="M490 240h-399q0 -101 56.5 -155.5t146.5 -54.5q88 0 154 30l13 -39q-70 -33 -172 -33q-111 0 -178.5 67.5t-67.5 172.5q0 120 68 192t172 72q51 0 90 -17.5t61 -42t35.5 -57t18 -57.5t4.5 -48q0 -22 -2 -30zM94 279h347q0 23 -6 48.5t-21.5 56t-51 49.5t-85.5 19
q-57 0 -99 -29t-60 -66t-24 -78z" />
    <glyph glyph-name="afii10072" unicode="&#x436;" horiz-adv-x="667" 
d="M22 480h61l207 -219h20v219h47v-219h19l207 219h61l-219 -224q68 -5 108 -33.5t69 -97.5q3 -7 22.5 -55.5t31.5 -69.5h-50q-13 23 -50 114q-28 65 -69.5 88t-109.5 23h-20v-225h-47v225h-21q-67 0 -110 -23t-70 -88q-43 -99 -51 -114h-48q9 16 18.5 37t20 49t15.5 39
q29 69 69.5 97.5t108.5 33.5z" />
    <glyph glyph-name="afii10073" unicode="&#x437;" horiz-adv-x="425" 
d="M125 232v40h25q68 0 111 28t43 68q0 38 -31 61.5t-77 23.5q-64 0 -121 -38l-18 35q69 42 147 42q59 0 106 -31t47 -95q0 -41 -35 -71.5t-81 -38.5v-1q62 -4 101.5 -39t39.5 -87q0 -69 -55 -105t-143 -36q-78 0 -148 37l19 39q65 -36 131 -36q62 0 101 28.5t39 74.5
q0 101 -174 101h-27z" />
    <glyph glyph-name="afii10074" unicode="&#x438;" horiz-adv-x="578" 
d="M83 480h49v-248q0 -111 -4 -175l2 -1q27 40 95 132l219 292h51v-480h-49v256q0 95 4 171h-2q-56 -84 -110 -155q-27 -36 -97 -128.5t-108 -143.5h-50v480z" />
    <glyph glyph-name="afii10075" unicode="&#x439;" horiz-adv-x="578" 
d="M83 480h49v-248q0 -111 -4 -175l2 -1q27 40 95 132l219 292h51v-480h-49v256q0 95 4 171h-2q-56 -84 -110 -155q-27 -36 -97 -128.5t-108 -143.5h-50v480zM162 679h46q2 -34 22.5 -58t55.5 -24q38 0 58.5 23t24.5 59h45q-1 -54 -36.5 -85.5t-93.5 -31.5q-65 0 -93 35
t-29 82z" />
    <glyph glyph-name="afii10076" unicode="&#x43a;" horiz-adv-x="485" 
d="M88 480h49v-219h28l239 219h67l-251 -223q71 -6 119 -44t86 -118q33 -70 50 -95h-52q-20 27 -49 88q-35 73 -84.5 104.5t-130.5 31.5h-22v-224h-49v480z" />
    <glyph glyph-name="afii10077" unicode="&#x43b;" horiz-adv-x="527" 
d="M118 480h326v-480h-49v439h-228v-131q0 -122 -17.5 -190.5t-67.5 -98.5q-39 -23 -76 -23l-2 41q25 4 45 16q43 26 56 83.5t13 167.5v176z" />
    <glyph glyph-name="afii10078" unicode="&#x43c;" horiz-adv-x="619" 
d="M40 0l40 480h58l118 -290q35 -87 52 -132h1q45 122 76 194l97 228h60l37 -480h-50l-14 260q-2 27 -6 83.5t-5 81.5h-3q-13 -37 -60 -148l-119 -277h-37l-112 276q-18 43 -54 149h-4q-1 -19 -9 -165l-16 -260h-50z" />
    <glyph glyph-name="afii10079" unicode="&#x43d;" horiz-adv-x="576" 
d="M83 480h49v-202h312v202h49v-480h-49v237h-312v-237h-49v480z" />
    <glyph glyph-name="afii10080" unicode="&#x43e;" horiz-adv-x="591" 
d="M297 492q113 0 182 -70.5t69 -175.5q0 -65 -23.5 -116t-61.5 -81t-82.5 -45.5t-90.5 -15.5q-107 0 -177 70t-70 177q0 116 74.5 186.5t179.5 70.5zM297 452q-97 0 -151 -62t-54 -152q0 -96 59.5 -153t141.5 -57q84 0 145 58t61 157q0 79 -52.5 144t-149.5 65z" />
    <glyph glyph-name="afii10081" unicode="&#x43f;" horiz-adv-x="572" 
d="M83 480h406v-480h-49v439h-308v-439h-49v480z" />
    <glyph glyph-name="afii10082" unicode="&#x440;" horiz-adv-x="613" 
d="M88 -200v525q0 86 -4 155h47l4 -100h2q62 112 202 112q103 0 167 -70.5t64 -171.5q0 -121 -70 -191.5t-173 -70.5q-59 0 -109 25t-79 73h-2v-286h-49zM137 278v-85q0 -18 5 -38q16 -53 66 -90t115 -37q91 0 144.5 59.5t53.5 160.5q0 85 -52.5 144.5t-139.5 59.5
q-62 0 -112.5 -34.5t-70.5 -97.5q-9 -29 -9 -42z" />
    <glyph glyph-name="afii10083" unicode="&#x441;" horiz-adv-x="498" 
d="M444 62l14 -39q-74 -35 -161 -35q-113 0 -183.5 69.5t-70.5 175.5q0 118 77.5 188.5t195.5 70.5q97 0 146 -34l-18 -40q-56 32 -132 32q-104 0 -162 -60t-58 -151q0 -93 60 -151t152 -58q65 0 140 32z" />
    <glyph glyph-name="afii10084" unicode="&#x442;" horiz-adv-x="411" 
d="M10 480h391v-41h-171v-439h-49v439h-171v41z" />
    <glyph glyph-name="afii10085" unicode="&#x443;" horiz-adv-x="480" 
d="M9 480h53l143 -321q26 -57 39 -101h2q26 71 40 105l134 317h53l-170 -388q-52 -119 -89.5 -179.5t-83.5 -93.5q-48 -35 -88 -43l-13 41q51 15 88 47q56 47 92 129q6 13 6 19q0 7 -7 22z" />
    <glyph glyph-name="afii10086" unicode="&#x444;" horiz-adv-x="648" 
d="M302 716h45v-224q119 -6 188.5 -73.5t69.5 -173.5q0 -115 -71 -182t-187 -74v-189h-45v188q-119 6 -189 73.5t-70 173.5q0 116 71.5 183t187.5 73v225zM302 25v430q-91 -6 -150.5 -66.5t-59.5 -150.5q0 -89 60.5 -148t149.5 -65zM347 455v-430q90 7 149.5 67.5
t59.5 149.5q0 91 -59 148.5t-150 64.5z" />
    <glyph glyph-name="afii10087" unicode="&#x445;" horiz-adv-x="470" 
d="M22 480h56l92 -118q32 -40 61 -81h2q16 23 62 81l92 118h55l-184 -233l193 -247h-57l-96 122q-14 18 -37 49.5t-31 41.5h-2q-14 -22 -67 -91l-94 -122h-57l195 246z" />
    <glyph glyph-name="afii10088" unicode="&#x446;" horiz-adv-x="576" 
d="M83 480h49v-439h302v439h49v-439h50l-4 -200h-42l-3 159h-401v480z" />
    <glyph glyph-name="afii10089" unicode="&#x447;" horiz-adv-x="531" 
d="M78 480h49v-162q0 -121 131 -121q82 0 141 45v238h49v-488h-49v210h-1q-29 -20 -71.5 -32.5t-79.5 -12.5q-75 0 -122 37.5t-47 117.5v168z" />
    <glyph glyph-name="afii10090" unicode="&#x448;" horiz-adv-x="741" 
d="M83 480h49v-439h214v439h49v-439h214v439h49v-480h-575v480z" />
    <glyph glyph-name="afii10091" unicode="&#x449;" horiz-adv-x="751" 
d="M83 480h49v-439h214v439h49v-439h214v439h49v-439h50l-4 -200h-42l-3 159h-576v480z" />
    <glyph glyph-name="afii10092" unicode="&#x44a;" horiz-adv-x="572" 
d="M10 480h204v-172q32 5 99 5q30 0 58 -4t57.5 -15.5t51 -29t35.5 -46t14 -65.5q0 -61 -38 -99q-59 -59 -208 -59q-29 0 -73.5 2.5t-45.5 2.5v439h-154v41zM213 267v-229q37 -5 86 -5q181 0 181 119q0 67 -53 94.5t-130 27.5q-33 0 -84 -7z" />
    <glyph glyph-name="afii10093" unicode="&#x44b;" horiz-adv-x="640" 
d="M83 480h50v-174q37 7 89 7q91 0 153.5 -38t62.5 -122q0 -59 -38 -97q-61 -61 -198 -61q-29 0 -73.5 2.5t-45.5 2.5v480zM132 267v-229q37 -5 81 -5q72 0 124 28t52 91q0 35 -15 60t-41 38t-54 18.5t-61 5.5q-44 0 -86 -7zM506 480h49v-480h-49v480z" />
    <glyph glyph-name="afii10094" unicode="&#x44c;" horiz-adv-x="501" 
d="M83 480h50v-172q26 5 94 5q231 0 231 -163q0 -56 -38 -94q-61 -61 -218 -61q-29 0 -73.5 2.5t-45.5 2.5v480zM132 267v-229q37 -5 86 -5q32 0 62.5 5t61 17.5t49 37t18.5 59.5q0 37 -18.5 62.5t-50 37.5t-61 17t-63.5 5q-43 0 -84 -7z" />
    <glyph glyph-name="afii10095" unicode="&#x44d;" horiz-adv-x="503" 
d="M116 226v40h294q-6 82 -59.5 133t-151.5 51q-73 0 -140 -36l-16 34q75 44 162 44q122 0 191 -74q64 -66 64 -185q0 -107 -72 -176t-194 -69q-85 0 -158 38l15 39q1 -1 11 -5t13.5 -5.5t14.5 -5.5t17.5 -6t18.5 -5t22 -4.5t23 -2.5t26 -1q96 0 152.5 53t61.5 143h-295z
" />
    <glyph glyph-name="afii10096" unicode="&#x44e;" horiz-adv-x="728" 
d="M83 480h47v-218h105q8 98 71 164t156 66q102 0 162.5 -69.5t60.5 -176.5q0 -108 -63.5 -183t-164.5 -75q-97 0 -157.5 65.5t-65.5 167.5h-104v-221h-47v480zM458 26h1q83 0 130 66t47 152t-47.5 147t-127.5 61q-79 0 -128.5 -61.5t-49.5 -156.5q0 -86 47.5 -147
t127.5 -61z" />
    <glyph glyph-name="afii10097" unicode="&#x44f;" horiz-adv-x="500" 
d="M417 474v-474h-49v215h-105q-55 0 -85 -20q-22 -14 -37 -38t-30.5 -65t-20.5 -51q-11 -24 -23 -41h-54q17 24 33 57q7 14 21 52t29 61.5t40 40.5q23 15 48 20v2q-59 6 -98.5 37.5t-39.5 82.5q0 62 54 96q54 35 164 35q76 0 153 -10zM368 255v185q-56 7 -103 7
q-168 0 -168 -97q0 -35 30 -57.5t64 -30t69 -7.5h108z" />
    <glyph glyph-name="afii10071" unicode="&#x451;" horiz-adv-x="537" 
d="M198 581h-1q-17 0 -27 12t-10 29q0 16 11.5 28.5t27.5 12.5t27 -12t11 -29t-10.5 -29t-28.5 -12zM377 581h-1q-17 0 -27 12t-10 29q0 16 11.5 28.5t27.5 12.5t27 -12t11 -29t-10.5 -29t-28.5 -12zM490 240h-399q0 -101 56.5 -155.5t146.5 -54.5q88 0 154 30l13 -39
q-70 -33 -172 -33q-111 0 -178.5 67.5t-67.5 172.5q0 120 68 192t172 72q51 0 90 -17.5t61 -42t35.5 -57t18 -57.5t4.5 -48q0 -22 -2 -30zM94 279h347q0 23 -6 48.5t-21.5 56t-51 49.5t-85.5 19q-57 0 -99 -29t-60 -66t-24 -78z" />
    <glyph glyph-name="afii10099" unicode="&#x452;" horiz-adv-x="590" 
d="M9 617h100v99h49v-99h254v-41h-254v-169h2q80 85 179 85q85 0 140 -69q68 -85 68 -232q0 -96 -25.5 -167.5t-65.5 -108.5q-56 -52 -140 -62l-9 38q43 9 69.5 21.5t49.5 37.5q71 78 71 241q0 123 -53 199q-44 62 -119 62q-83 0 -153 -85q-14 -17 -14 -51v-316h-49v576
h-100v41z" />
    <glyph glyph-name="afii10100" unicode="&#x453;" horiz-adv-x="397" 
d="M83 480h295v-41h-246v-439h-49v480zM273 692h74l-127 -140h-38z" />
    <glyph glyph-name="afii10101" unicode="&#x454;" horiz-adv-x="501" 
d="M466 452l-18 -39q-1 1 -9.5 5t-12 5.5t-12 5.5t-13.5 5.5t-14.5 4.5t-17 4.5t-17 3.5t-19.5 2.5t-21 0.5q-98 0 -154 -51t-65 -133h302v-40h-303q4 -88 62.5 -142t149.5 -54q67 0 146 34l15 -39q-78 -37 -168 -37q-115 0 -184.5 69t-69.5 176q0 117 76.5 188t196.5 71
q80 0 150 -40z" />
    <glyph glyph-name="afii10102" unicode="&#x455;" horiz-adv-x="408" 
d="M50 23l18 42q58 -36 120 -36q60 0 90.5 26.5t30.5 66.5t-27 64t-86 43q-130 42 -130 130q0 55 42 94t116 39q69 0 116 -32l-19 -40q-45 31 -106 31q-47 0 -74 -25t-27 -61q0 -38 26.5 -58.5t85.5 -40.5q68 -23 99.5 -55t31.5 -85q0 -60 -46.5 -99t-126.5 -39
q-74 0 -134 35z" />
    <glyph glyph-name="afii10103" unicode="&#x456;" horiz-adv-x="225" 
d="M137 0h-49v480h49v-480zM113 665q17 0 28.5 -12.5t11.5 -30.5q0 -17 -11.5 -30t-30.5 -13q-17 0 -28 13t-11 30t12 30t29 13z" />
    <glyph glyph-name="afii10104" unicode="&#x457;" horiz-adv-x="225" 
d="M23 581h-1q-17 0 -27 12t-10 29q0 16 11.5 28.5t27.5 12.5t27 -12t11 -29t-10.5 -29t-28.5 -12zM202 581h-1q-17 0 -27 12t-10 29q0 16 11.5 28.5t27.5 12.5t27 -12t11 -29t-10.5 -29t-28.5 -12zM137 0h-49v480h49v-480z" />
    <glyph glyph-name="afii10105" unicode="&#x458;" horiz-adv-x="230" 
d="M-53 -212l-5 40q75 2 111 39q22 24 31 65t9 139v409h49v-445q0 -68 -11.5 -114t-43.5 -80q-26 -27 -66.5 -40t-73.5 -13zM119 665q17 0 28 -13t11 -30t-11.5 -30t-30.5 -13q-17 0 -28 13t-11 30t12 30t30 13z" />
    <glyph glyph-name="afii10106" unicode="&#x459;" horiz-adv-x="812" 
d="M128 480h316v-172q26 5 94 5q231 0 231 -160q0 -59 -38 -97q-61 -61 -218 -61q-29 0 -73.5 2.5t-45.5 2.5v439h-219v-131q0 -116 -22 -187.5t-73 -102.5q-37 -22 -74 -22l-2 41q28 4 47 16q44 27 60.5 87t16.5 164v176zM443 267v-229q37 -5 86 -5q32 0 62.5 5t61 17.5
t49 37t18.5 59.5q0 37 -17.5 62.5t-47.5 37.5t-58.5 17t-59.5 5q-43 0 -94 -7z" />
    <glyph glyph-name="afii10107" unicode="&#x45a;" horiz-adv-x="812" 
d="M83 480h49v-186h272v186h50v-178q32 6 99 6q37 0 72 -7t69 -23.5t54.5 -48t20.5 -75.5q0 -62 -39 -101q-59 -58 -207 -58q-29 0 -73.5 2.5t-45.5 2.5v252h-272v-252h-49v480zM453 263v-226q44 -4 86 -4q32 0 60.5 5t57.5 17t46 36.5t17 58.5q0 35 -16 60t-44 37.5
t-56.5 17.5t-61.5 5q-40 0 -89 -7z" />
    <glyph glyph-name="afii10108" unicode="&#x45b;" horiz-adv-x="612" 
d="M8 617h101v99h49v-99h212v-41h-212v-188h2q27 44 68 72q50 32 114 32q86 0 136.5 -57.5t50.5 -160.5v-274h-49v272q0 77 -36.5 127t-114.5 50q-55 0 -99.5 -33t-62.5 -80q-9 -22 -9 -56v-280h-49v576h-101v41z" />
    <glyph glyph-name="afii10109" unicode="&#x45c;" horiz-adv-x="485" 
d="M88 480h49v-219h28l239 219h67l-251 -223q71 -6 119 -44t86 -118q33 -70 50 -95h-52q-20 27 -49 88q-35 73 -84.5 104.5t-130.5 31.5h-22v-224h-49v480zM301 692h74l-127 -140h-38z" />
    <glyph glyph-name="afii10110" unicode="&#x45e;" horiz-adv-x="480" 
d="M113 679h46q2 -34 22.5 -58t55.5 -24q38 0 58.5 23t24.5 59h45q-1 -54 -36.5 -85.5t-93.5 -31.5q-65 0 -93 35t-29 82zM9 480h53l143 -321q26 -57 39 -101h2q26 71 40 105l134 317h53l-170 -388q-52 -119 -89.5 -179.5t-83.5 -93.5q-48 -35 -88 -43l-13 41q51 15 88 47
q56 47 92 129q6 13 6 19q0 7 -7 22z" />
    <glyph glyph-name="afii10193" unicode="&#x45f;" horiz-adv-x="565" 
d="M83 480h49v-439h301v439h49v-480h-174l-5 -159h-39l-6 159h-175v480z" />
    <glyph glyph-name="afii10050" unicode="&#x490;" horiz-adv-x="455" 
d="M88 674h323l17 122h38l-11 -163h-318v-633h-49v674z" />
    <glyph glyph-name="afii10098" unicode="&#x491;" horiz-adv-x="402" 
d="M83 480h251l10 109h38l-4 -150h-246v-439h-49v480z" />
    <glyph glyph-name="afii10846" unicode="&#x4d9;" horiz-adv-x="328" 
d="M87 420l-13 39q70 33 172 33q111 0 178.5 -67.5t67.5 -173.5q0 -119 -68 -191t-172 -72q-51 0 -90 17t-61 42t-35.5 57t-18 57t-4.5 48q0 22 2 30h399q0 102 -56.5 156.5t-146.5 54.5q-88 0 -154 -30zM441 200h-347q0 -23 6 -48.5t21.5 -55.5t51 -49t85.5 -19q43 0 78 16
t56 43t33 55t16 58z" />
    <glyph glyph-name="Wgrave" unicode="&#x1e80;" horiz-adv-x="881" 
d="M250 0h-48l-191 674h50l107 -387q46 -164 61 -226h2q13 58 68 226l124 387h48l109 -386q47 -167 58 -227h2q12 46 68 225l124 388h51l-223 -674h-48l-109 386q-45 161 -57 231h-2q-13 -64 -68 -229zM301 825h76l96 -115h-40z" />
    <glyph glyph-name="wgrave" unicode="&#x1e81;" horiz-adv-x="784" 
d="M271 692h74l91 -140h-38zM24 480h51l88 -280q30 -97 44 -148h2q14 45 53 148l107 280h49l102 -279q28 -76 51 -149h2q13 49 47 148l96 280h50l-174 -480h-44l-98 265q-41 108 -57 171h-2q-19 -68 -60 -172l-105 -264h-44z" />
    <glyph glyph-name="Wacute" unicode="&#x1e82;" horiz-adv-x="881" 
d="M250 0h-48l-191 674h50l107 -387q46 -164 61 -226h2q13 58 68 226l124 387h48l109 -386q47 -167 58 -227h2q12 46 68 225l124 388h51l-223 -674h-48l-109 386q-45 161 -57 231h-2q-13 -64 -68 -229zM513 825h76l-132 -115h-40z" />
    <glyph glyph-name="wacute" unicode="&#x1e83;" horiz-adv-x="784" 
d="M451 692h74l-127 -140h-38zM24 480h51l88 -280q30 -97 44 -148h2q14 45 53 148l107 280h49l102 -279q28 -76 51 -149h2q13 49 47 148l96 280h50l-174 -480h-44l-98 265q-41 108 -57 171h-2q-19 -68 -60 -172l-105 -264h-44z" />
    <glyph glyph-name="Wdieresis" unicode="&#x1e84;" horiz-adv-x="881" 
d="M250 0h-48l-191 674h50l107 -387q46 -164 61 -226h2q13 58 68 226l124 387h48l109 -386q47 -167 58 -227h2q12 46 68 225l124 388h51l-223 -674h-48l-109 386q-45 161 -57 231h-2q-13 -64 -68 -229zM350 724h-1q-17 0 -27 12t-10 29q0 16 11.5 28.5t27.5 12.5t27 -12
t11 -29t-10.5 -29t-28.5 -12zM530 724h-1q-17 0 -27 12t-10 29q0 16 11.5 28.5t27.5 12.5t27 -12t11 -29t-10.5 -29t-28.5 -12z" />
    <glyph glyph-name="wdieresis" unicode="&#x1e85;" horiz-adv-x="784" 
d="M302 581h-1q-17 0 -27 12t-10 29q0 16 11.5 28.5t27.5 12.5t27 -12t11 -29t-10.5 -29t-28.5 -12zM481 581h-1q-17 0 -27 12t-10 29q0 16 11.5 28.5t27.5 12.5t27 -12t11 -29t-10.5 -29t-28.5 -12zM24 480h51l88 -280q30 -97 44 -148h2q14 45 53 148l107 280h49l102 -279
q28 -76 51 -149h2q13 49 47 148l96 280h50l-174 -480h-44l-98 265q-41 108 -57 171h-2q-19 -68 -60 -172l-105 -264h-44z" />
    <glyph glyph-name="uni1EA0" unicode="&#x1ea0;" horiz-adv-x="640" 
d="M474 237h-300l-93 -237h-51l272 674h48l270 -674h-51zM191 278h267l-95 237q-19 47 -37 107h-2q-13 -43 -37 -104zM320 -80q16 0 27.5 -12.5t11.5 -29.5t-11 -29.5t-30 -12.5q-16 0 -27 12.5t-11 29.5q0 16 12 29t28 13z" />
    <glyph glyph-name="uni1EA1" unicode="&#x1ea1;" horiz-adv-x="496" 
d="M416 290v-174q0 -64 8 -116h-45l-8 74h-2q-23 -33 -68.5 -59.5t-105.5 -26.5q-75 0 -114 41t-39 91q0 85 81 132t244 45v11q0 15 -1.5 29.5t-9.5 36.5t-21.5 38t-40.5 27.5t-63 11.5q-81 0 -138 -40l-16 35q70 46 158 46q181 0 181 -202zM367 154v102q-53 2 -97 -2.5
t-86 -17.5t-66 -40t-24 -67q0 -49 30 -75t75 -26q63 0 104 29.5t58 68.5q6 15 6 28zM248 -80q16 0 27.5 -12.5t11.5 -29.5t-11 -29.5t-30 -12.5q-16 0 -27 12.5t-11 29.5q0 16 12 29t28 13z" />
    <glyph glyph-name="uni1EA2" unicode="&#x1ea2;" horiz-adv-x="640" 
d="M474 237h-300l-93 -237h-51l272 674h48l270 -674h-51zM191 278h267l-95 237q-19 47 -37 107h-2q-13 -43 -37 -104zM340 713l-34 12q9 21 33 44.5t24 40.5q0 34 -37 34q-29 0 -54 -37l-26 15q30 61 88 61q33 0 55.5 -19t22.5 -49q0 -27 -31.5 -57t-40.5 -45z" />
    <glyph glyph-name="uni1EA3" unicode="&#x1ea3;" horiz-adv-x="496" 
d="M416 290v-174q0 -64 8 -116h-45l-8 74h-2q-23 -33 -68.5 -59.5t-105.5 -26.5q-75 0 -114 41t-39 91q0 85 81 132t244 45v11q0 15 -1.5 29.5t-9.5 36.5t-21.5 38t-40.5 27.5t-63 11.5q-81 0 -138 -40l-16 35q70 46 158 46q181 0 181 -202zM367 154v102q-53 2 -97 -2.5
t-86 -17.5t-66 -40t-24 -67q0 -49 30 -75t75 -26q63 0 104 29.5t58 68.5q6 15 6 28zM254 530l-33 11q6 21 34 47.5t28 45.5q0 15 -10.5 24.5t-25.5 9.5q-30 0 -55 -37l-26 15q30 61 88 61q33 0 55.5 -19.5t22.5 -49.5q0 -29 -35 -61t-43 -47z" />
    <glyph glyph-name="uni1EA4" unicode="&#x1ea4;" horiz-adv-x="640" 
d="M474 237h-300l-93 -237h-51l272 674h48l270 -674h-51zM191 278h267l-95 237q-19 47 -37 107h-2q-13 -43 -37 -104zM312 825h36l103 -115h-54l-66 79h-2l-66 -79h-50zM497 898h65l-120 -102h-40z" />
    <glyph glyph-name="uni1EA5" unicode="&#x1ea5;" horiz-adv-x="496" 
d="M416 290v-174q0 -64 8 -116h-45l-8 74h-2q-23 -33 -68.5 -59.5t-105.5 -26.5q-75 0 -114 41t-39 91q0 85 81 132t244 45v11q0 15 -1.5 29.5t-9.5 36.5t-21.5 38t-40.5 27.5t-63 11.5q-81 0 -138 -40l-16 35q70 46 158 46q181 0 181 -202zM367 154v102q-53 2 -97 -2.5
t-86 -17.5t-66 -40t-24 -67q0 -49 30 -75t75 -26q63 0 104 29.5t58 68.5q6 15 6 28zM218 692h41l93 -140h-51l-62 102h-2l-62 -102h-46zM396 772h64l-96 -124h-37z" />
    <glyph glyph-name="uni1EA6" unicode="&#x1ea6;" horiz-adv-x="640" 
d="M474 237h-300l-93 -237h-51l272 674h48l270 -674h-51zM191 278h267l-95 237q-19 47 -37 107h-2q-13 -43 -37 -104zM358 874h68l79 -102h-39zM305 825h36l103 -115h-54l-66 79h-2l-66 -79h-50z" />
    <glyph glyph-name="uni1EA7" unicode="&#x1ea7;" horiz-adv-x="496" 
d="M416 290v-174q0 -64 8 -116h-45l-8 74h-2q-23 -33 -68.5 -59.5t-105.5 -26.5q-75 0 -114 41t-39 91q0 85 81 132t244 45v11q0 15 -1.5 29.5t-9.5 36.5t-21.5 38t-40.5 27.5t-63 11.5q-81 0 -138 -40l-16 35q70 46 158 46q181 0 181 -202zM367 154v102q-53 2 -97 -2.5
t-86 -17.5t-66 -40t-24 -67q0 -49 30 -75t75 -26q63 0 104 29.5t58 68.5q6 15 6 28zM279 771h62l65 -124h-37zM214 692h41l93 -140h-51l-62 102h-2l-62 -102h-46z" />
    <glyph glyph-name="uni1EA8" unicode="&#x1ea8;" horiz-adv-x="640" 
d="M474 237h-300l-93 -237h-51l272 674h48l270 -674h-51zM191 278h267l-95 237q-19 47 -37 107h-2q-13 -43 -37 -104zM310 825h36l103 -115h-54l-66 79h-2l-66 -79h-50zM464 752l-33 11q9 21 32.5 45t23.5 41q0 16 -10.5 26t-27.5 10q-26 0 -53 -39l-26 15q30 61 88 61
q32 0 54 -20t22 -49q0 -21 -11 -35.5t-29.5 -31.5t-29.5 -34z" />
    <glyph glyph-name="uni1EA9" unicode="&#x1ea9;" horiz-adv-x="496" 
d="M416 290v-174q0 -64 8 -116h-45l-8 74h-2q-23 -33 -68.5 -59.5t-105.5 -26.5q-75 0 -114 41t-39 91q0 85 81 132t244 45v11q0 15 -1.5 29.5t-9.5 36.5t-21.5 38t-40.5 27.5t-63 11.5q-81 0 -138 -40l-16 35q70 46 158 46q181 0 181 -202zM367 154v102q-53 2 -97 -2.5
t-86 -17.5t-66 -40t-24 -67q0 -49 30 -75t75 -26q63 0 104 29.5t58 68.5q6 15 6 28zM212 692h41l93 -140h-51l-62 102h-2l-62 -102h-46zM368 638l-33 11q9 21 32.5 45t23.5 41q0 16 -10.5 26t-27.5 10q-26 0 -53 -39l-26 15q30 61 88 61q32 0 54 -20t22 -49q0 -21 -11 -35.5
t-29.5 -31.5t-29.5 -34z" />
    <glyph glyph-name="uni1EAA" unicode="&#x1eaa;" horiz-adv-x="640" 
d="M474 237h-300l-93 -237h-51l272 674h48l270 -674h-51zM191 278h267l-95 237q-19 47 -37 107h-2q-13 -43 -37 -104zM306 825h36l113 -115h-54l-76 79h-2l-76 -79h-50zM247 837h-35q0 39 16.5 62.5t44.5 23.5q16 0 66 -25q30 -15 42 -15q26 0 29 43h33q0 -87 -60 -87
q-20 0 -60 21q-35 19 -49 19q-25 0 -27 -42z" />
    <glyph glyph-name="uni1EAB" unicode="&#x1eab;" horiz-adv-x="496" 
d="M416 290v-174q0 -64 8 -116h-45l-8 74h-2q-23 -33 -68.5 -59.5t-105.5 -26.5q-75 0 -114 41t-39 91q0 85 81 132t244 45v11q0 15 -1.5 29.5t-9.5 36.5t-21.5 38t-40.5 27.5t-63 11.5q-81 0 -138 -40l-16 35q70 46 158 46q181 0 181 -202zM367 154v102q-53 2 -97 -2.5
t-86 -17.5t-66 -40t-24 -67q0 -49 30 -75t75 -26q63 0 104 29.5t58 68.5q6 15 6 28zM225 665h42l95 -113h-53l-62 78h-2l-62 -78h-49zM169 675h-35q0 39 16.5 62.5t44.5 23.5q16 0 66 -25q30 -15 42 -15q26 0 29 43h33q0 -87 -60 -87q-20 0 -60 21q-35 19 -49 19
q-25 0 -27 -42z" />
    <glyph glyph-name="uni1EAC" unicode="&#x1eac;" horiz-adv-x="640" 
d="M474 237h-300l-93 -237h-51l272 674h48l270 -674h-51zM191 278h267l-95 237q-19 47 -37 107h-2q-13 -43 -37 -104zM308 825h36l113 -115h-54l-76 79h-2l-76 -79h-50zM319 -162h-1q-15 0 -26 12.5t-11 28.5q0 15 11.5 28t27.5 13t27 -13t11 -28q0 -16 -11 -28.5t-28 -12.5
z" />
    <glyph glyph-name="uni1EAD" unicode="&#x1ead;" horiz-adv-x="496" 
d="M416 290v-174q0 -64 8 -116h-45l-8 74h-2q-23 -33 -68.5 -59.5t-105.5 -26.5q-75 0 -114 41t-39 91q0 85 81 132t244 45v11q0 15 -1.5 29.5t-9.5 36.5t-21.5 38t-40.5 27.5t-63 11.5q-81 0 -138 -40l-16 35q70 46 158 46q181 0 181 -202zM367 154v102q-53 2 -97 -2.5
t-86 -17.5t-66 -40t-24 -67q0 -49 30 -75t75 -26q63 0 104 29.5t58 68.5q6 15 6 28zM227 692h38l100 -140h-51l-67 102h-2l-67 -102h-47zM248 -80q16 0 27.5 -12.5t11.5 -29.5t-11 -29.5t-30 -12.5q-16 0 -27 12.5t-11 29.5q0 16 12 29t28 13z" />
    <glyph glyph-name="uni1EAE" unicode="&#x1eae;" horiz-adv-x="640" 
d="M474 237h-300l-93 -237h-51l272 674h48l270 -674h-51zM191 278h267l-95 237q-19 47 -37 107h-2q-13 -43 -37 -104zM211 797h36q14 -53 82 -53q42 0 59 14.5t25 38.5h36q-4 -40 -35 -68t-86 -28q-53 0 -82.5 28t-34.5 68zM379 887h68l-108 -102h-39z" />
    <glyph glyph-name="uni1EAF" unicode="&#x1eaf;" horiz-adv-x="496" 
d="M416 290v-174q0 -64 8 -116h-45l-8 74h-2q-23 -33 -68.5 -59.5t-105.5 -26.5q-75 0 -114 41t-39 91q0 85 81 132t244 45v11q0 15 -1.5 29.5t-9.5 36.5t-21.5 38t-40.5 27.5t-63 11.5q-81 0 -138 -40l-16 35q70 46 158 46q181 0 181 -202zM367 154v102q-53 2 -97 -2.5
t-86 -17.5t-66 -40t-24 -67q0 -49 30 -75t75 -26q63 0 104 29.5t58 68.5q6 15 6 28zM296 762h67l-108 -128h-38zM127 651h38q6 -33 28.5 -55t54.5 -22q38 0 58.5 23.5t24.5 53.5h38q-1 -53 -35 -85t-86 -32q-62 0 -91 35.5t-30 81.5z" />
    <glyph glyph-name="uni1EB0" unicode="&#x1eb0;" horiz-adv-x="640" 
d="M474 237h-300l-93 -237h-51l272 674h48l270 -674h-51zM191 278h267l-95 237q-19 47 -37 107h-2q-13 -43 -37 -104zM214 887h68l79 -102h-39zM209 797h36q14 -53 82 -53q42 0 59 14.5t25 38.5h36q-4 -40 -35 -68t-86 -28q-53 0 -82.5 28t-34.5 68z" />
    <glyph glyph-name="uni1EB1" unicode="&#x1eb1;" horiz-adv-x="496" 
d="M416 290v-174q0 -64 8 -116h-45l-8 74h-2q-23 -33 -68.5 -59.5t-105.5 -26.5q-75 0 -114 41t-39 91q0 85 81 132t244 45v11q0 15 -1.5 29.5t-9.5 36.5t-21.5 38t-40.5 27.5t-63 11.5q-81 0 -138 -40l-16 35q70 46 158 46q181 0 181 -202zM367 154v102q-53 2 -97 -2.5
t-86 -17.5t-66 -40t-24 -67q0 -49 30 -75t75 -26q63 0 104 29.5t58 68.5q6 15 6 28zM130 762h67l79 -128h-38zM120 651h38q6 -33 28.5 -55t54.5 -22q38 0 58.5 23.5t24.5 53.5h38q-1 -53 -35 -85t-86 -32q-62 0 -91 35.5t-30 81.5z" />
    <glyph glyph-name="uni1EB2" unicode="&#x1eb2;" horiz-adv-x="640" 
d="M474 237h-300l-93 -237h-51l272 674h48l270 -674h-51zM191 278h267l-95 237q-19 47 -37 107h-2q-13 -43 -37 -104zM336 770l-33 11q9 21 32.5 45t23.5 41q0 16 -10.5 26t-27.5 10q-26 0 -53 -39l-26 15q30 61 88 61q32 0 54 -20t22 -49q0 -21 -11 -35.5t-29.5 -31.5
t-29.5 -34zM209 797h36q14 -53 82 -53q42 0 59 14.5t25 38.5h36q-4 -40 -35 -68t-86 -28q-53 0 -82.5 28t-34.5 68z" />
    <glyph glyph-name="uni1EB3" unicode="&#x1eb3;" horiz-adv-x="496" 
d="M416 290v-174q0 -64 8 -116h-45l-8 74h-2q-23 -33 -68.5 -59.5t-105.5 -26.5q-75 0 -114 41t-39 91q0 85 81 132t244 45v11q0 15 -1.5 29.5t-9.5 36.5t-21.5 38t-40.5 27.5t-63 11.5q-81 0 -138 -40l-16 35q70 46 158 46q181 0 181 -202zM367 154v102q-53 2 -97 -2.5
t-86 -17.5t-66 -40t-24 -67q0 -49 30 -75t75 -26q63 0 104 29.5t58 68.5q6 15 6 28zM245 629l-33 11q9 21 32.5 45t23.5 41q0 16 -10.5 26t-27.5 10q-26 0 -53 -39l-26 15q31 61 88 61q32 0 54 -20t22 -49q0 -21 -11 -35.5t-29.5 -31.5t-29.5 -34zM117 651h38
q6 -33 28.5 -55t54.5 -22q38 0 58.5 23.5t24.5 53.5h38q-1 -53 -35 -85t-86 -32q-62 0 -91 35.5t-30 81.5z" />
    <glyph glyph-name="uni1EB4" unicode="&#x1eb4;" horiz-adv-x="640" 
d="M474 237h-300l-93 -237h-51l272 674h48l270 -674h-51zM191 278h267l-95 237q-19 47 -37 107h-2q-13 -43 -37 -104zM241 834h-36q2 35 18 56t43 21q16 0 66 -25q30 -15 42 -15q26 0 29 43h33q0 -87 -60 -87q-20 0 -60 21q-35 19 -49 19q-21 0 -26 -33zM201 797h36
q14 -53 82 -53q42 0 59 14.5t25 38.5h36q-4 -40 -35 -68t-86 -28q-53 0 -82.5 28t-34.5 68z" />
    <glyph glyph-name="uni1EB5" unicode="&#x1eb5;" horiz-adv-x="496" 
d="M416 290v-174q0 -64 8 -116h-45l-8 74h-2q-23 -33 -68.5 -59.5t-105.5 -26.5q-75 0 -114 41t-39 91q0 85 81 132t244 45v11q0 15 -1.5 29.5t-9.5 36.5t-21.5 38t-40.5 27.5t-63 11.5q-81 0 -138 -40l-16 35q70 46 158 46q181 0 181 -202zM367 154v102q-53 2 -97 -2.5
t-86 -17.5t-66 -40t-24 -67q0 -49 30 -75t75 -26q63 0 104 29.5t58 68.5q6 15 6 28zM170 694h-36q2 35 18 56t43 21q16 0 66 -25q30 -15 42 -15q26 0 29 43h33q0 -87 -60 -87q-20 0 -60 21q-35 19 -49 19q-21 0 -26 -33zM127 651h38q6 -33 28.5 -55t54.5 -22q38 0 58.5 23.5
t24.5 53.5h38q-1 -53 -35 -85t-86 -32q-62 0 -91 35.5t-30 81.5z" />
    <glyph glyph-name="uni1EB6" unicode="&#x1eb6;" horiz-adv-x="640" 
d="M474 237h-300l-93 -237h-51l272 674h48l270 -674h-51zM191 278h267l-95 237q-19 47 -37 107h-2q-13 -43 -37 -104zM204 830h36q14 -53 84 -53q74 0 82 53h36q-2 -42 -31 -69.5t-90 -27.5q-59 0 -87 27.5t-30 69.5zM323 -162h-1q-15 0 -26 12.5t-11 28.5q0 15 11.5 28
t27.5 13t27 -13t11 -28q0 -16 -11 -28.5t-28 -12.5z" />
    <glyph glyph-name="uni1EB7" unicode="&#x1eb7;" horiz-adv-x="496" 
d="M416 290v-174q0 -64 8 -116h-45l-8 74h-2q-23 -33 -68.5 -59.5t-105.5 -26.5q-75 0 -114 41t-39 91q0 85 81 132t244 45v11q0 15 -1.5 29.5t-9.5 36.5t-21.5 38t-40.5 27.5t-63 11.5q-81 0 -138 -40l-16 35q70 46 158 46q181 0 181 -202zM367 154v102q-53 2 -97 -2.5
t-86 -17.5t-66 -40t-24 -67q0 -49 30 -75t75 -26q63 0 104 29.5t58 68.5q6 15 6 28zM127 681h38q6 -33 28.5 -55t54.5 -22q38 0 58.5 23.5t24.5 53.5h38q-1 -53 -35 -85t-86 -32q-62 0 -91 35.5t-30 81.5zM248 -80q16 0 27.5 -12.5t11.5 -29.5t-11 -29.5t-30 -12.5
q-16 0 -27 12.5t-11 29.5q0 16 12 29t28 13z" />
    <glyph glyph-name="uni1EB8" unicode="&#x1eb8;" horiz-adv-x="511" 
d="M437 376v-41h-300v-294h334v-41h-383v674h366v-41h-317v-257h300zM255 -162h-1q-15 0 -26 12.5t-11 28.5q0 15 11.5 28t27.5 13t27 -13t11 -28q0 -16 -11 -28.5t-28 -12.5z" />
    <glyph glyph-name="uni1EB9" unicode="&#x1eb9;" horiz-adv-x="537" 
d="M490 240h-399q0 -101 56.5 -155.5t146.5 -54.5q88 0 154 30l13 -39q-70 -33 -172 -33q-111 0 -178.5 67.5t-67.5 172.5q0 120 68 192t172 72q51 0 90 -17.5t61 -42t35.5 -57t18 -57.5t4.5 -48q0 -22 -2 -30zM94 279h347q0 23 -6 48.5t-21.5 56t-51 49.5t-85.5 19
q-57 0 -99 -29t-60 -66t-24 -78zM269 -80q16 0 27.5 -12.5t11.5 -29.5t-11 -29.5t-30 -12.5q-16 0 -27 12.5t-11 29.5q0 16 12 29t28 13z" />
    <glyph glyph-name="uni1EBA" unicode="&#x1eba;" horiz-adv-x="511" 
d="M437 376v-41h-300v-294h334v-41h-383v674h366v-41h-317v-257h300zM301 713l-34 12q9 21 33 44.5t24 40.5q0 34 -37 34q-29 0 -54 -37l-26 15q31 61 88 61q33 0 55.5 -19t22.5 -49q0 -27 -31.5 -57t-40.5 -45z" />
    <glyph glyph-name="uni1EBB" unicode="&#x1ebb;" horiz-adv-x="537" 
d="M490 240h-399q0 -101 56.5 -155.5t146.5 -54.5q88 0 154 30l13 -39q-70 -33 -172 -33q-111 0 -178.5 67.5t-67.5 172.5q0 120 68 192t172 72q51 0 90 -17.5t61 -42t35.5 -57t18 -57.5t4.5 -48q0 -22 -2 -30zM94 279h347q0 23 -6 48.5t-21.5 56t-51 49.5t-85.5 19
q-57 0 -99 -29t-60 -66t-24 -78zM274 530l-33 11q6 21 34 47.5t28 45.5q0 15 -10.5 24.5t-25.5 9.5q-30 0 -55 -37l-26 15q30 61 88 61q33 0 55.5 -19.5t22.5 -49.5q0 -29 -35 -61t-43 -47z" />
    <glyph glyph-name="uni1EBC" unicode="&#x1ebc;" horiz-adv-x="511" 
d="M437 376v-41h-300v-294h334v-41h-383v674h366v-41h-317v-257h300zM193 715h-34q-1 37 17 62.5t48 25.5q20 0 61 -22q34 -17 53 -17q25 0 27 38h34q0 -82 -61 -82q-23 0 -63 20t-54 20q-23 0 -28 -45z" />
    <glyph glyph-name="uni1EBD" unicode="&#x1ebd;" horiz-adv-x="537" 
d="M187 576h-34q-1 42 15.5 66t45.5 24q16 0 66 -25q30 -15 42 -15q26 0 29 43h33q0 -87 -60 -87q-20 0 -60 21q-35 19 -49 19q-24 0 -28 -46zM490 240h-399q0 -101 56.5 -155.5t146.5 -54.5q88 0 154 30l13 -39q-70 -33 -172 -33q-111 0 -178.5 67.5t-67.5 172.5
q0 120 68 192t172 72q51 0 90 -17.5t61 -42t35.5 -57t18 -57.5t4.5 -48q0 -22 -2 -30zM94 279h347q0 23 -6 48.5t-21.5 56t-51 49.5t-85.5 19q-57 0 -99 -29t-60 -66t-24 -78z" />
    <glyph glyph-name="uni1EBE" unicode="&#x1ebe;" horiz-adv-x="511" 
d="M437 376v-41h-300v-294h334v-41h-383v674h366v-41h-317v-257h300zM257 825h36l103 -115h-54l-66 79h-2l-66 -79h-50zM442 898h65l-120 -102h-40z" />
    <glyph glyph-name="uni1EBF" unicode="&#x1ebf;" horiz-adv-x="537" 
d="M490 240h-399q0 -101 56.5 -155.5t146.5 -54.5q88 0 154 30l13 -39q-70 -33 -172 -33q-111 0 -178.5 67.5t-67.5 172.5q0 120 68 192t172 72q51 0 90 -17.5t61 -42t35.5 -57t18 -57.5t4.5 -48q0 -22 -2 -30zM94 279h347q0 23 -6 48.5t-21.5 56t-51 49.5t-85.5 19
q-57 0 -99 -29t-60 -66t-24 -78zM262 692h41l93 -140h-51l-62 102h-2l-62 -102h-46zM440 772h64l-96 -124h-37z" />
    <glyph glyph-name="uni1EC0" unicode="&#x1ec0;" horiz-adv-x="511" 
d="M437 376v-41h-300v-294h334v-41h-383v674h366v-41h-317v-257h300zM306 874h68l79 -102h-39zM253 825h36l103 -115h-54l-66 79h-2l-66 -79h-50z" />
    <glyph glyph-name="uni1EC1" unicode="&#x1ec1;" horiz-adv-x="537" 
d="M490 240h-399q0 -101 56.5 -155.5t146.5 -54.5q88 0 154 30l13 -39q-70 -33 -172 -33q-111 0 -178.5 67.5t-67.5 172.5q0 120 68 192t172 72q51 0 90 -17.5t61 -42t35.5 -57t18 -57.5t4.5 -48q0 -22 -2 -30zM94 279h347q0 23 -6 48.5t-21.5 56t-51 49.5t-85.5 19
q-57 0 -99 -29t-60 -66t-24 -78zM323 771h62l65 -124h-37zM258 692h41l93 -140h-51l-62 102h-2l-62 -102h-46z" />
    <glyph glyph-name="uni1EC2" unicode="&#x1ec2;" horiz-adv-x="511" 
d="M437 376v-41h-300v-294h334v-41h-383v674h366v-41h-317v-257h300zM249 825h36l103 -115h-54l-66 79h-2l-66 -79h-50zM403 752l-33 11q9 21 32.5 45t23.5 41q0 16 -10.5 26t-27.5 10q-26 0 -53 -39l-26 15q31 61 88 61q32 0 54 -20t22 -49q0 -21 -11 -35.5t-29.5 -31.5
t-29.5 -34z" />
    <glyph glyph-name="uni1EC3" unicode="&#x1ec3;" horiz-adv-x="537" 
d="M490 240h-399q0 -101 56.5 -155.5t146.5 -54.5q88 0 154 30l13 -39q-70 -33 -172 -33q-111 0 -178.5 67.5t-67.5 172.5q0 120 68 192t172 72q51 0 90 -17.5t61 -42t35.5 -57t18 -57.5t4.5 -48q0 -22 -2 -30zM94 279h347q0 23 -6 48.5t-21.5 56t-51 49.5t-85.5 19
q-57 0 -99 -29t-60 -66t-24 -78zM254 692h41l93 -140h-51l-62 102h-2l-62 -102h-46zM410 638l-33 11q9 21 32.5 45t23.5 41q0 16 -10.5 26t-27.5 10q-26 0 -53 -39l-26 15q30 61 88 61q32 0 54 -20t22 -49q0 -21 -11 -35.5t-29.5 -31.5t-29.5 -34z" />
    <glyph glyph-name="uni1EC4" unicode="&#x1ec4;" horiz-adv-x="511" 
d="M437 376v-41h-300v-294h334v-41h-383v674h366v-41h-317v-257h300zM263 825h36l113 -115h-54l-76 79h-2l-76 -79h-50zM204 837h-35q0 39 16.5 62.5t44.5 23.5q16 0 66 -25q30 -15 42 -15q26 0 29 43h33q0 -87 -60 -87q-20 0 -60 21q-35 19 -49 19q-25 0 -27 -42z" />
    <glyph glyph-name="uni1EC5" unicode="&#x1ec5;" horiz-adv-x="537" 
d="M490 240h-399q0 -101 56.5 -155.5t146.5 -54.5q88 0 154 30l13 -39q-70 -33 -172 -33q-111 0 -178.5 67.5t-67.5 172.5q0 120 68 192t172 72q51 0 90 -17.5t61 -42t35.5 -57t18 -57.5t4.5 -48q0 -22 -2 -30zM94 279h347q0 23 -6 48.5t-21.5 56t-51 49.5t-85.5 19
q-57 0 -99 -29t-60 -66t-24 -78zM254 665h42l95 -113h-53l-62 78h-2l-62 -78h-49zM198 675h-35q0 39 16.5 62.5t44.5 23.5q16 0 66 -25q30 -15 42 -15q26 0 29 43h33q0 -87 -60 -87q-20 0 -60 21q-35 19 -49 19q-25 0 -27 -42z" />
    <glyph glyph-name="uni1EC6" unicode="&#x1ec6;" horiz-adv-x="511" 
d="M437 376v-41h-300v-294h334v-41h-383v674h366v-41h-317v-257h300zM256 825h36l113 -115h-54l-76 79h-2l-76 -79h-50zM272 -162h-1q-15 0 -26 12.5t-11 28.5q0 15 11.5 28t27.5 13t27 -13t11 -28q0 -16 -11 -28.5t-28 -12.5z" />
    <glyph glyph-name="uni1EC7" unicode="&#x1ec7;" horiz-adv-x="537" 
d="M490 240h-399q0 -101 56.5 -155.5t146.5 -54.5q88 0 154 30l13 -39q-70 -33 -172 -33q-111 0 -178.5 67.5t-67.5 172.5q0 120 68 192t172 72q51 0 90 -17.5t61 -42t35.5 -57t18 -57.5t4.5 -48q0 -22 -2 -30zM94 279h347q0 23 -6 48.5t-21.5 56t-51 49.5t-85.5 19
q-57 0 -99 -29t-60 -66t-24 -78zM247 692h38l100 -140h-51l-67 102h-2l-67 -102h-47zM269 -80q16 0 27.5 -12.5t11.5 -29.5t-11 -29.5t-30 -12.5q-16 0 -27 12.5t-11 29.5q0 16 12 29t28 13z" />
    <glyph glyph-name="uni1EC8" unicode="&#x1ec8;" horiz-adv-x="225" 
d="M88 674h49v-674h-49v674zM133 713l-34 12q9 21 33 44.5t24 40.5q0 34 -37 34q-29 0 -54 -37l-26 15q31 61 88 61q33 0 55.5 -19t22.5 -49q0 -27 -31.5 -57t-40.5 -45z" />
    <glyph glyph-name="uni1EC9" unicode="&#x1ec9;" horiz-adv-x="225" 
d="M137 0h-49v480h49v-480zM119 530l-33 11q6 21 34 47.5t28 45.5q0 15 -10.5 24.5t-25.5 9.5q-30 0 -55 -37l-26 15q31 61 88 61q33 0 55.5 -19.5t22.5 -49.5q0 -29 -35 -61t-43 -47z" />
    <glyph glyph-name="uni1ECA" unicode="&#x1eca;" horiz-adv-x="225" 
d="M88 674h49v-674h-49v674zM112 -162h-1q-15 0 -26 12.5t-11 28.5q0 15 11.5 28t27.5 13t27 -13t11 -28q0 -16 -11 -28.5t-28 -12.5z" />
    <glyph glyph-name="uni1ECB" unicode="&#x1ecb;" horiz-adv-x="225" 
d="M137 0h-49v480h49v-480zM113 665q17 0 28.5 -12.5t11.5 -30.5q0 -17 -11.5 -30t-30.5 -13q-17 0 -28 13t-11 30t12 30t29 13zM113 -80q16 0 27.5 -12.5t11.5 -29.5t-11 -29.5t-30 -12.5q-16 0 -27 12.5t-11 29.5q0 16 12 29t28 13z" />
    <glyph glyph-name="uni1ECC" unicode="&#x1ecc;" horiz-adv-x="753" 
d="M380 686q147 0 241 -96.5t94 -243.5q0 -112 -49.5 -195t-126 -123t-166.5 -40q-144 0 -239.5 96.5t-95.5 243.5q0 157 98 257.5t244 100.5zM378 646q-137 0 -213 -91.5t-76 -224.5q0 -124 79 -213t207 -89q131 0 210 88.5t79 225.5q0 120 -76 212t-210 92zM376 -162h-1
q-15 0 -26 12.5t-11 28.5q0 15 11.5 28t27.5 13t27 -13t11 -28q0 -16 -11 -28.5t-28 -12.5z" />
    <glyph glyph-name="uni1ECD" unicode="&#x1ecd;" horiz-adv-x="591" 
d="M297 492q113 0 182 -70.5t69 -175.5q0 -65 -23.5 -116t-61.5 -81t-82.5 -45.5t-90.5 -15.5q-107 0 -177 70t-70 177q0 116 74.5 186.5t179.5 70.5zM297 452q-97 0 -151 -62t-54 -152q0 -96 59.5 -153t141.5 -57q84 0 145 58t61 157q0 79 -52.5 144t-149.5 65zM296 -80
q16 0 27.5 -12.5t11.5 -29.5t-11 -29.5t-30 -12.5q-16 0 -27 12.5t-11 29.5q0 16 12 29t28 13z" />
    <glyph glyph-name="uni1ECE" unicode="&#x1ece;" horiz-adv-x="753" 
d="M380 686q147 0 241 -96.5t94 -243.5q0 -112 -49.5 -195t-126 -123t-166.5 -40q-144 0 -239.5 96.5t-95.5 243.5q0 157 98 257.5t244 100.5zM378 646q-137 0 -213 -91.5t-76 -224.5q0 -124 79 -213t207 -89q131 0 210 88.5t79 225.5q0 120 -76 212t-210 92zM396 713
l-34 12q9 21 33 44.5t24 40.5q0 34 -37 34q-29 0 -54 -37l-26 15q30 61 88 61q33 0 55.5 -19t22.5 -49q0 -27 -31.5 -57t-40.5 -45z" />
    <glyph glyph-name="uni1ECF" unicode="&#x1ecf;" horiz-adv-x="591" 
d="M297 492q113 0 182 -70.5t69 -175.5q0 -65 -23.5 -116t-61.5 -81t-82.5 -45.5t-90.5 -15.5q-107 0 -177 70t-70 177q0 116 74.5 186.5t179.5 70.5zM297 452q-97 0 -151 -62t-54 -152q0 -96 59.5 -153t141.5 -57q84 0 145 58t61 157q0 79 -52.5 144t-149.5 65zM301 530
l-33 11q6 21 34 47.5t28 45.5q0 15 -10.5 24.5t-25.5 9.5q-30 0 -55 -37l-26 15q31 61 88 61q33 0 55.5 -19.5t22.5 -49.5q0 -29 -35 -61t-43 -47z" />
    <glyph glyph-name="uni1ED0" unicode="&#x1ed0;" horiz-adv-x="753" 
d="M380 686q147 0 241 -96.5t94 -243.5q0 -112 -49.5 -195t-126 -123t-166.5 -40q-144 0 -239.5 96.5t-95.5 243.5q0 157 98 257.5t244 100.5zM378 646q-137 0 -213 -91.5t-76 -224.5q0 -124 79 -213t207 -89q131 0 210 88.5t79 225.5q0 120 -76 212t-210 92zM367 825h36
l103 -115h-54l-66 79h-2l-66 -79h-50zM552 898h65l-120 -102h-40z" />
    <glyph glyph-name="uni1ED1" unicode="&#x1ed1;" horiz-adv-x="591" 
d="M297 492q113 0 182 -70.5t69 -175.5q0 -65 -23.5 -116t-61.5 -81t-82.5 -45.5t-90.5 -15.5q-107 0 -177 70t-70 177q0 116 74.5 186.5t179.5 70.5zM297 452q-97 0 -151 -62t-54 -152q0 -96 59.5 -153t141.5 -57q84 0 145 58t61 157q0 79 -52.5 144t-149.5 65zM279 692h41
l93 -140h-51l-62 102h-2l-62 -102h-46zM457 772h64l-96 -124h-37z" />
    <glyph glyph-name="uni1ED2" unicode="&#x1ed2;" horiz-adv-x="753" 
d="M380 686q147 0 241 -96.5t94 -243.5q0 -112 -49.5 -195t-126 -123t-166.5 -40q-144 0 -239.5 96.5t-95.5 243.5q0 157 98 257.5t244 100.5zM378 646q-137 0 -213 -91.5t-76 -224.5q0 -124 79 -213t207 -89q131 0 210 88.5t79 225.5q0 120 -76 212t-210 92zM416 874h68
l79 -102h-39zM363 825h36l103 -115h-54l-66 79h-2l-66 -79h-50z" />
    <glyph glyph-name="uni1ED3" unicode="&#x1ed3;" horiz-adv-x="591" 
d="M297 492q113 0 182 -70.5t69 -175.5q0 -65 -23.5 -116t-61.5 -81t-82.5 -45.5t-90.5 -15.5q-107 0 -177 70t-70 177q0 116 74.5 186.5t179.5 70.5zM297 452q-97 0 -151 -62t-54 -152q0 -96 59.5 -153t141.5 -57q84 0 145 58t61 157q0 79 -52.5 144t-149.5 65zM343 771h62
l65 -124h-37zM278 692h41l93 -140h-51l-62 102h-2l-62 -102h-46z" />
    <glyph glyph-name="uni1ED4" unicode="&#x1ed4;" horiz-adv-x="753" 
d="M380 686q147 0 241 -96.5t94 -243.5q0 -112 -49.5 -195t-126 -123t-166.5 -40q-144 0 -239.5 96.5t-95.5 243.5q0 157 98 257.5t244 100.5zM378 646q-137 0 -213 -91.5t-76 -224.5q0 -124 79 -213t207 -89q131 0 210 88.5t79 225.5q0 120 -76 212t-210 92zM360 825h36
l103 -115h-54l-66 79h-2l-66 -79h-50zM514 752l-33 11q9 21 32.5 45t23.5 41q0 16 -10.5 26t-27.5 10q-26 0 -53 -39l-26 15q30 61 88 61q32 0 54 -20t22 -49q0 -21 -11 -35.5t-29.5 -31.5t-29.5 -34z" />
    <glyph glyph-name="uni1ED5" unicode="&#x1ed5;" horiz-adv-x="591" 
d="M297 492q113 0 182 -70.5t69 -175.5q0 -65 -23.5 -116t-61.5 -81t-82.5 -45.5t-90.5 -15.5q-107 0 -177 70t-70 177q0 116 74.5 186.5t179.5 70.5zM297 452q-97 0 -151 -62t-54 -152q0 -96 59.5 -153t141.5 -57q84 0 145 58t61 157q0 79 -52.5 144t-149.5 65zM271 692h41
l93 -140h-51l-62 102h-2l-62 -102h-46zM427 638l-33 11q9 21 32.5 45t23.5 41q0 16 -10.5 26t-27.5 10q-26 0 -53 -39l-26 15q31 61 88 61q32 0 54 -20t22 -49q0 -21 -11 -35.5t-29.5 -31.5t-29.5 -34z" />
    <glyph glyph-name="uni1ED6" unicode="&#x1ed6;" horiz-adv-x="753" 
d="M380 686q147 0 241 -96.5t94 -243.5q0 -112 -49.5 -195t-126 -123t-166.5 -40q-144 0 -239.5 96.5t-95.5 243.5q0 157 98 257.5t244 100.5zM378 646q-137 0 -213 -91.5t-76 -224.5q0 -124 79 -213t207 -89q131 0 210 88.5t79 225.5q0 120 -76 212t-210 92zM356 825h36
l113 -115h-54l-76 79h-2l-76 -79h-50zM297 837h-35q0 39 16.5 62.5t44.5 23.5q16 0 66 -25q30 -15 42 -15q26 0 29 43h33q0 -87 -60 -87q-20 0 -60 21q-35 19 -49 19q-25 0 -27 -42z" />
    <glyph glyph-name="uni1ED7" unicode="&#x1ed7;" horiz-adv-x="591" 
d="M297 492q113 0 182 -70.5t69 -175.5q0 -65 -23.5 -116t-61.5 -81t-82.5 -45.5t-90.5 -15.5q-107 0 -177 70t-70 177q0 116 74.5 186.5t179.5 70.5zM297 452q-97 0 -151 -62t-54 -152q0 -96 59.5 -153t141.5 -57q84 0 145 58t61 157q0 79 -52.5 144t-149.5 65zM272 665h42
l95 -113h-53l-62 78h-2l-62 -78h-49zM216 675h-35q0 39 16.5 62.5t44.5 23.5q16 0 66 -25q30 -15 42 -15q26 0 29 43h33q0 -87 -60 -87q-20 0 -60 21q-35 19 -49 19q-25 0 -27 -42z" />
    <glyph glyph-name="uni1ED8" unicode="&#x1ed8;" horiz-adv-x="753" 
d="M380 686q147 0 241 -96.5t94 -243.5q0 -112 -49.5 -195t-126 -123t-166.5 -40q-144 0 -239.5 96.5t-95.5 243.5q0 157 98 257.5t244 100.5zM378 646q-137 0 -213 -91.5t-76 -224.5q0 -124 79 -213t207 -89q131 0 210 88.5t79 225.5q0 120 -76 212t-210 92zM356 825h36
l113 -115h-54l-76 79h-2l-76 -79h-50zM376 -162h-1q-15 0 -26 12.5t-11 28.5q0 15 11.5 28t27.5 13t27 -13t11 -28q0 -16 -11 -28.5t-28 -12.5z" />
    <glyph glyph-name="uni1ED9" unicode="&#x1ed9;" horiz-adv-x="591" 
d="M297 492q113 0 182 -70.5t69 -175.5q0 -65 -23.5 -116t-61.5 -81t-82.5 -45.5t-90.5 -15.5q-107 0 -177 70t-70 177q0 116 74.5 186.5t179.5 70.5zM297 452q-97 0 -151 -62t-54 -152q0 -96 59.5 -153t141.5 -57q84 0 145 58t61 157q0 79 -52.5 144t-149.5 65zM274 692h38
l100 -140h-51l-67 102h-2l-67 -102h-47zM296 -80q16 0 27.5 -12.5t11.5 -29.5t-11 -29.5t-30 -12.5q-16 0 -27 12.5t-11 29.5q0 16 12 29t28 13z" />
    <glyph glyph-name="uni1EDA" unicode="&#x1eda;" horiz-adv-x="753" 
d="M375 28q131 0 210 88.5t79 225.5q0 120 -76 212t-210 92q-137 0 -213 -91.5t-76 -224.5q0 -124 79 -213t207 -89zM668 742l45 8q15 -38 15 -74q0 -44 -29 -66.5t-86 -12.5q46 -42 74 -107.5t28 -143.5q0 -112 -49.5 -195t-126 -123t-166.5 -40q-144 0 -239.5 96.5
t-95.5 243.5q0 157 98 257.5t244 100.5q53 0 103 -14q9 -3 38.5 -14.5t57 -19.5t46.5 -8q32 0 44.5 12t12.5 37q0 31 -14 63zM441 825h76l-132 -115h-40z" />
    <glyph glyph-name="uni1EDB" unicode="&#x1edb;" horiz-adv-x="591" 
d="M297 452q-97 0 -151 -62t-54 -152q0 -96 59.5 -153t141.5 -57q84 0 145 58t61 157q0 79 -52.5 144t-149.5 65zM519 548l44 8q13 -31 13 -62q0 -39 -24 -61t-70 -15q66 -68 66 -172q0 -65 -23.5 -116t-61.5 -81t-82.5 -45.5t-90.5 -15.5q-107 0 -177 70t-70 177
q0 116 74.5 186.5t179.5 70.5q44 0 89 -13q8 -2 27 -10.5t36.5 -13.5t35.5 -5q47 0 47 45q0 27 -13 53zM359 692h74l-127 -140h-38z" />
    <glyph glyph-name="uni1EDC" unicode="&#x1edc;" horiz-adv-x="753" 
d="M375 28q131 0 210 88.5t79 225.5q0 120 -76 212t-210 92q-137 0 -213 -91.5t-76 -224.5q0 -124 79 -213t207 -89zM668 742l45 8q15 -38 15 -74q0 -44 -29 -66.5t-86 -12.5q46 -42 74 -107.5t28 -143.5q0 -112 -49.5 -195t-126 -123t-166.5 -40q-144 0 -239.5 96.5
t-95.5 243.5q0 157 98 257.5t244 100.5q53 0 103 -14q9 -3 38.5 -14.5t57 -19.5t46.5 -8q32 0 44.5 12t12.5 37q0 31 -14 63zM253 825h76l96 -115h-40z" />
    <glyph glyph-name="uni1EDD" unicode="&#x1edd;" horiz-adv-x="591" 
d="M297 452q-97 0 -151 -62t-54 -152q0 -96 59.5 -153t141.5 -57q84 0 145 58t61 157q0 79 -52.5 144t-149.5 65zM519 548l44 8q13 -31 13 -62q0 -39 -24 -61t-70 -15q66 -68 66 -172q0 -65 -23.5 -116t-61.5 -81t-82.5 -45.5t-90.5 -15.5q-107 0 -177 70t-70 177
q0 116 74.5 186.5t179.5 70.5q44 0 89 -13q8 -2 27 -10.5t36.5 -13.5t35.5 -5q47 0 47 45q0 27 -13 53zM176 692h74l91 -140h-38z" />
    <glyph glyph-name="uni1EDE" unicode="&#x1ede;" horiz-adv-x="753" 
d="M375 28q131 0 210 88.5t79 225.5q0 120 -76 212t-210 92q-137 0 -213 -91.5t-76 -224.5q0 -124 79 -213t207 -89zM668 742l45 8q15 -38 15 -74q0 -44 -29 -66.5t-86 -12.5q46 -42 74 -107.5t28 -143.5q0 -112 -49.5 -195t-126 -123t-166.5 -40q-144 0 -239.5 96.5
t-95.5 243.5q0 157 98 257.5t244 100.5q53 0 103 -14q9 -3 38.5 -14.5t57 -19.5t46.5 -8q32 0 44.5 12t12.5 37q0 31 -14 63zM396 713l-34 12q9 21 33 44.5t24 40.5q0 34 -37 34q-29 0 -54 -37l-26 15q30 61 88 61q33 0 55.5 -19t22.5 -49q0 -27 -31.5 -57t-40.5 -45z" />
    <glyph glyph-name="uni1EDF" unicode="&#x1edf;" horiz-adv-x="591" 
d="M297 452q-97 0 -151 -62t-54 -152q0 -96 59.5 -153t141.5 -57q84 0 145 58t61 157q0 79 -52.5 144t-149.5 65zM519 548l44 8q13 -31 13 -62q0 -39 -24 -61t-70 -15q66 -68 66 -172q0 -65 -23.5 -116t-61.5 -81t-82.5 -45.5t-90.5 -15.5q-107 0 -177 70t-70 177
q0 116 74.5 186.5t179.5 70.5q44 0 89 -13q8 -2 27 -10.5t36.5 -13.5t35.5 -5q47 0 47 45q0 27 -13 53zM301 530l-33 11q6 21 34 47.5t28 45.5q0 15 -10.5 24.5t-25.5 9.5q-30 0 -55 -37l-26 15q31 61 88 61q33 0 55.5 -19.5t22.5 -49.5q0 -29 -35 -61t-43 -47z" />
    <glyph glyph-name="uni1EE0" unicode="&#x1ee0;" horiz-adv-x="753" 
d="M375 28q131 0 210 88.5t79 225.5q0 120 -76 212t-210 92q-137 0 -213 -91.5t-76 -224.5q0 -124 79 -213t207 -89zM668 742l45 8q15 -38 15 -74q0 -44 -29 -66.5t-86 -12.5q46 -42 74 -107.5t28 -143.5q0 -112 -49.5 -195t-126 -123t-166.5 -40q-144 0 -239.5 96.5
t-95.5 243.5q0 157 98 257.5t244 100.5q53 0 103 -14q9 -3 38.5 -14.5t57 -19.5t46.5 -8q32 0 44.5 12t12.5 37q0 31 -14 63zM299 715h-34q-1 37 17 62.5t48 25.5q20 0 61 -22q34 -17 53 -17q25 0 27 38h34q0 -82 -61 -82q-23 0 -63 20t-54 20q-23 0 -28 -45z" />
    <glyph glyph-name="uni1EE1" unicode="&#x1ee1;" horiz-adv-x="591" 
d="M297 452q-97 0 -151 -62t-54 -152q0 -96 59.5 -153t141.5 -57q84 0 145 58t61 157q0 79 -52.5 144t-149.5 65zM519 548l44 8q13 -31 13 -62q0 -39 -24 -61t-70 -15q66 -68 66 -172q0 -65 -23.5 -116t-61.5 -81t-82.5 -45.5t-90.5 -15.5q-107 0 -177 70t-70 177
q0 116 74.5 186.5t179.5 70.5q44 0 89 -13q8 -2 27 -10.5t36.5 -13.5t35.5 -5q47 0 47 45q0 27 -13 53zM213 576h-34q-1 42 15.5 66t45.5 24q16 0 66 -25q30 -15 42 -15q26 0 29 43h33q0 -87 -60 -87q-20 0 -60 21q-35 19 -49 19q-24 0 -28 -46z" />
    <glyph glyph-name="uni1EE2" unicode="&#x1ee2;" horiz-adv-x="753" 
d="M375 28q131 0 210 88.5t79 225.5q0 120 -76 212t-210 92q-137 0 -213 -91.5t-76 -224.5q0 -124 79 -213t207 -89zM668 742l45 8q15 -38 15 -74q0 -44 -29 -66.5t-86 -12.5q46 -42 74 -107.5t28 -143.5q0 -112 -49.5 -195t-126 -123t-166.5 -40q-144 0 -239.5 96.5
t-95.5 243.5q0 157 98 257.5t244 100.5q53 0 103 -14q9 -3 38.5 -14.5t57 -19.5t46.5 -8q32 0 44.5 12t12.5 37q0 31 -14 63zM376 -162h-1q-15 0 -26 12.5t-11 28.5q0 15 11.5 28t27.5 13t27 -13t11 -28q0 -16 -11 -28.5t-28 -12.5z" />
    <glyph glyph-name="uni1EE3" unicode="&#x1ee3;" horiz-adv-x="591" 
d="M297 452q-97 0 -151 -62t-54 -152q0 -96 59.5 -153t141.5 -57q84 0 145 58t61 157q0 79 -52.5 144t-149.5 65zM519 548l44 8q13 -31 13 -62q0 -39 -24 -61t-70 -15q66 -68 66 -172q0 -65 -23.5 -116t-61.5 -81t-82.5 -45.5t-90.5 -15.5q-107 0 -177 70t-70 177
q0 116 74.5 186.5t179.5 70.5q44 0 89 -13q8 -2 27 -10.5t36.5 -13.5t35.5 -5q47 0 47 45q0 27 -13 53zM296 -80q16 0 27.5 -12.5t11.5 -29.5t-11 -29.5t-30 -12.5q-16 0 -27 12.5t-11 29.5q0 16 12 29t28 13z" />
    <glyph glyph-name="uni1EE4" unicode="&#x1ee4;" horiz-adv-x="691" 
d="M88 674h49v-389q0 -130 56.5 -193t146.5 -63q98 0 156 64t58 192v389h49v-385q0 -153 -74.5 -227t-191.5 -74q-109 0 -179 71t-70 225v390zM345 -162h-1q-15 0 -26 12.5t-11 28.5q0 15 11.5 28t27.5 13t27 -13t11 -28q0 -16 -11 -28.5t-28 -12.5z" />
    <glyph glyph-name="uni1EE5" unicode="&#x1ee5;" horiz-adv-x="586" 
d="M498 480v-364q0 -64 4 -116h-46l-3 97h-2q-25 -46 -72.5 -77.5t-114.5 -31.5q-21 0 -40.5 3.5t-46.5 17t-46.5 36t-33.5 65.5t-14 101v269h49v-259q0 -190 145 -190q53 0 96.5 29t63.5 73q12 30 12 56v291h49zM293 -80q16 0 27.5 -12.5t11.5 -29.5t-11 -29.5t-30 -12.5
q-16 0 -27 12.5t-11 29.5q0 16 12 29t28 13z" />
    <glyph glyph-name="uni1EE6" unicode="&#x1ee6;" horiz-adv-x="691" 
d="M88 674h49v-389q0 -130 56.5 -193t146.5 -63q98 0 156 64t58 192v389h49v-385q0 -153 -74.5 -227t-191.5 -74q-109 0 -179 71t-70 225v390zM365 713l-34 12q9 21 33 44.5t24 40.5q0 34 -37 34q-29 0 -54 -37l-26 15q31 61 88 61q33 0 55.5 -19t22.5 -49q0 -27 -31.5 -57
t-40.5 -45z" />
    <glyph glyph-name="uni1EE7" unicode="&#x1ee7;" horiz-adv-x="586" 
d="M498 480v-364q0 -64 4 -116h-46l-3 97h-2q-25 -46 -72.5 -77.5t-114.5 -31.5q-21 0 -40.5 3.5t-46.5 17t-46.5 36t-33.5 65.5t-14 101v269h49v-259q0 -190 145 -190q53 0 96.5 29t63.5 73q12 30 12 56v291h49zM299 530l-33 11q6 21 34 47.5t28 45.5q0 15 -10.5 24.5
t-25.5 9.5q-30 0 -55 -37l-26 15q31 61 88 61q33 0 55.5 -19.5t22.5 -49.5q0 -29 -35 -61t-43 -47z" />
    <glyph glyph-name="uni1EE8" unicode="&#x1ee8;" horiz-adv-x="714" 
d="M643 768l44 8q16 -32 16 -66q0 -33 -22.5 -53t-61.5 -20h-16v-348q0 -153 -74.5 -227t-191.5 -74q-109 0 -179 71t-70 225v390h49v-389q0 -130 56.5 -193t146.5 -63q98 0 156 64t58 192v389h60q45 0 45 41q0 27 -16 53zM409 825h76l-132 -115h-40z" />
    <glyph glyph-name="uni1EE9" unicode="&#x1ee9;" horiz-adv-x="586" 
d="M538 574l44 8q16 -32 16 -63q0 -34 -24.5 -55t-59.5 -21h-16v-327q0 -64 4 -116h-46l-3 97h-2q-25 -46 -72.5 -77.5t-114.5 -31.5q-21 0 -40.5 3.5t-46.5 17t-46.5 36t-33.5 65.5t-14 101v269h49v-259q0 -190 145 -190q53 0 96.5 29t63.5 73q12 30 12 56v291h60
q45 0 45 41q0 27 -16 53zM365 692h74l-127 -140h-38z" />
    <glyph glyph-name="uni1EEA" unicode="&#x1eea;" horiz-adv-x="714" 
d="M643 768l44 8q16 -32 16 -66q0 -33 -22.5 -53t-61.5 -20h-16v-348q0 -153 -74.5 -227t-191.5 -74q-109 0 -179 71t-70 225v390h49v-389q0 -130 56.5 -193t146.5 -63q98 0 156 64t58 192v389h60q45 0 45 41q0 27 -16 53zM226 825h76l96 -115h-40z" />
    <glyph glyph-name="uni1EEB" unicode="&#x1eeb;" horiz-adv-x="586" 
d="M538 574l44 8q16 -32 16 -63q0 -34 -24.5 -55t-59.5 -21h-16v-327q0 -64 4 -116h-46l-3 97h-2q-25 -46 -72.5 -77.5t-114.5 -31.5q-21 0 -40.5 3.5t-46.5 17t-46.5 36t-33.5 65.5t-14 101v269h49v-259q0 -190 145 -190q53 0 96.5 29t63.5 73q12 30 12 56v291h60
q45 0 45 41q0 27 -16 53zM171 692h74l91 -140h-38z" />
    <glyph glyph-name="uni1EEC" unicode="&#x1eec;" horiz-adv-x="714" 
d="M643 768l44 8q16 -32 16 -66q0 -33 -22.5 -53t-61.5 -20h-16v-348q0 -153 -74.5 -227t-191.5 -74q-109 0 -179 71t-70 225v390h49v-389q0 -130 56.5 -193t146.5 -63q98 0 156 64t58 192v389h60q45 0 45 41q0 27 -16 53zM377 713l-34 12q9 21 33 44.5t24 40.5q0 34 -37 34
q-29 0 -54 -37l-26 15q31 61 88 61q33 0 55.5 -19t22.5 -49q0 -27 -31.5 -57t-40.5 -45z" />
    <glyph glyph-name="uni1EED" unicode="&#x1eed;" horiz-adv-x="586" 
d="M538 574l44 8q16 -32 16 -63q0 -34 -24.5 -55t-59.5 -21h-16v-327q0 -64 4 -116h-46l-3 97h-2q-25 -46 -72.5 -77.5t-114.5 -31.5q-21 0 -40.5 3.5t-46.5 17t-46.5 36t-33.5 65.5t-14 101v269h49v-259q0 -190 145 -190q53 0 96.5 29t63.5 73q12 30 12 56v291h60
q45 0 45 41q0 27 -16 53zM308 530l-33 11q6 21 34 47.5t28 45.5q0 15 -10.5 24.5t-25.5 9.5q-30 0 -55 -37l-26 15q30 61 88 61q33 0 55.5 -19.5t22.5 -49.5q0 -29 -35 -61t-43 -47z" />
    <glyph glyph-name="uni1EEE" unicode="&#x1eee;" horiz-adv-x="714" 
d="M643 768l44 8q16 -32 16 -66q0 -33 -22.5 -53t-61.5 -20h-16v-348q0 -153 -74.5 -227t-191.5 -74q-109 0 -179 71t-70 225v390h49v-389q0 -130 56.5 -193t146.5 -63q98 0 156 64t58 192v389h60q45 0 45 41q0 27 -16 53zM271 715h-34q-1 37 17 62.5t48 25.5q20 0 61 -22
q34 -17 53 -17q25 0 27 38h34q0 -82 -61 -82q-23 0 -63 20t-54 20q-23 0 -28 -45z" />
    <glyph glyph-name="uni1EEF" unicode="&#x1eef;" horiz-adv-x="586" 
d="M538 574l44 8q16 -32 16 -63q0 -34 -24.5 -55t-59.5 -21h-16v-327q0 -64 4 -116h-46l-3 97h-2q-25 -46 -72.5 -77.5t-114.5 -31.5q-21 0 -40.5 3.5t-46.5 17t-46.5 36t-33.5 65.5t-14 101v269h49v-259q0 -190 145 -190q53 0 96.5 29t63.5 73q12 30 12 56v291h60
q45 0 45 41q0 27 -16 53zM211 576h-34q-1 42 15.5 66t45.5 24q16 0 66 -25q30 -15 42 -15q26 0 29 43h33q0 -87 -60 -87q-20 0 -60 21q-35 19 -49 19q-24 0 -28 -46z" />
    <glyph glyph-name="uni1EF0" unicode="&#x1ef0;" horiz-adv-x="714" 
d="M643 768l44 8q16 -32 16 -66q0 -33 -22.5 -53t-61.5 -20h-16v-348q0 -153 -74.5 -227t-191.5 -74q-109 0 -179 71t-70 225v390h49v-389q0 -130 56.5 -193t146.5 -63q98 0 156 64t58 192v389h60q45 0 45 41q0 27 -16 53zM357 -80q16 0 27.5 -12.5t11.5 -29.5t-11 -29.5
t-30 -12.5q-16 0 -27 12.5t-11 29.5q0 16 12 29t28 13z" />
    <glyph glyph-name="uni1EF1" unicode="&#x1ef1;" horiz-adv-x="586" 
d="M538 574l44 8q16 -32 16 -63q0 -34 -24.5 -55t-59.5 -21h-16v-327q0 -64 4 -116h-46l-3 97h-2q-25 -46 -72.5 -77.5t-114.5 -31.5q-21 0 -40.5 3.5t-46.5 17t-46.5 36t-33.5 65.5t-14 101v269h49v-259q0 -190 145 -190q53 0 96.5 29t63.5 73q12 30 12 56v291h60
q45 0 45 41q0 27 -16 53zM290 -80q16 0 27.5 -12.5t11.5 -29.5t-11 -29.5t-30 -12.5q-16 0 -27 12.5t-11 29.5q0 16 12 29t28 13z" />
    <glyph glyph-name="Ygrave" unicode="&#x1ef2;" horiz-adv-x="541" 
d="M297 0h-49v288l-236 386h56l125 -210q68 -115 82 -141h2q17 34 84 141l131 210h56l-251 -388v-286zM146 815h76l96 -115h-40z" />
    <glyph glyph-name="ygrave" unicode="&#x1ef3;" horiz-adv-x="480" 
d="M119 692h74l91 -140h-38zM9 480h53l143 -321q26 -57 39 -101h2q26 71 40 105l134 317h53l-170 -388q-52 -119 -89.5 -179.5t-83.5 -93.5q-48 -35 -88 -43l-13 41q51 15 88 47q56 47 92 129q6 13 6 19q0 7 -7 22z" />
    <glyph glyph-name="uni1EF4" unicode="&#x1ef4;" horiz-adv-x="541" 
d="M297 0h-49v288l-236 386h56l125 -210q68 -115 82 -141h2q17 34 84 141l131 210h56l-251 -388v-286zM270 -162h-1q-15 0 -26 12.5t-11 28.5q0 15 11.5 28t27.5 13t27 -13t11 -28q0 -16 -11 -28.5t-28 -12.5z" />
    <glyph glyph-name="uni1EF5" unicode="&#x1ef5;" horiz-adv-x="480" 
d="M9 480h53l143 -321q26 -57 39 -101h2q26 71 40 105l134 317h53l-170 -388q-52 -119 -89.5 -179.5t-83.5 -93.5q-48 -35 -88 -43l-13 41q51 15 88 47q56 47 92 129q6 13 6 19q0 7 -7 22zM301 -80q16 0 27.5 -12.5t11.5 -29.5t-11 -29.5t-30 -12.5q-16 0 -27 12.5t-11 29.5
q0 16 12 29t28 13z" />
    <glyph glyph-name="uni1EF6" unicode="&#x1ef6;" horiz-adv-x="541" 
d="M297 0h-49v288l-236 386h56l125 -210q68 -115 82 -141h2q17 34 84 141l131 210h56l-251 -388v-286zM290 713l-34 12q9 21 33 44.5t24 40.5q0 34 -37 34q-29 0 -54 -37l-26 15q30 61 88 61q33 0 55.5 -19t22.5 -49q0 -27 -31.5 -57t-40.5 -45z" />
    <glyph glyph-name="uni1EF7" unicode="&#x1ef7;" horiz-adv-x="480" 
d="M9 480h53l143 -321q26 -57 39 -101h2q26 71 40 105l134 317h53l-170 -388q-52 -119 -89.5 -179.5t-83.5 -93.5q-48 -35 -88 -43l-13 41q51 15 88 47q56 47 92 129q6 13 6 19q0 7 -7 22zM256 530l-33 11q6 21 34 47.5t28 45.5q0 15 -10.5 24.5t-25.5 9.5q-30 0 -55 -37
l-26 15q30 61 88 61q33 0 55.5 -19.5t22.5 -49.5q0 -29 -35 -61t-43 -47z" />
    <glyph glyph-name="uni1EF8" unicode="&#x1ef8;" horiz-adv-x="541" 
d="M297 0h-49v288l-236 386h56l125 -210q68 -115 82 -141h2q17 34 84 141l131 210h56l-251 -388v-286zM185 715h-34q-1 37 17 62.5t48 25.5q20 0 61 -22q34 -17 53 -17q25 0 27 38h34q0 -82 -61 -82q-23 0 -63 20t-54 20q-23 0 -28 -45z" />
    <glyph glyph-name="uni1EF9" unicode="&#x1ef9;" horiz-adv-x="480" 
d="M162 576h-34q-1 42 15.5 66t45.5 24q16 0 66 -25q30 -15 42 -15q26 0 29 43h33q0 -87 -60 -87q-20 0 -60 21q-35 19 -49 19q-24 0 -28 -46zM9 480h53l143 -321q26 -57 39 -101h2q26 71 40 105l134 317h53l-170 -388q-52 -119 -89.5 -179.5t-83.5 -93.5q-48 -35 -88 -43
l-13 41q51 15 88 47q56 47 92 129q6 13 6 19q0 7 -7 22z" />
    <glyph glyph-name="endash" unicode="&#x2013;" horiz-adv-x="500" 
d="M30 272h440v-40h-440v40z" />
    <glyph glyph-name="emdash" unicode="&#x2014;" horiz-adv-x="1000" 
d="M30 272h940v-40h-940v40z" />
    <glyph glyph-name="quoteleft" unicode="&#x2018;" horiz-adv-x="175" 
d="M102 483l-59 -10q13 53 38.5 123.5t38.5 93.5l34 5q-12 -32 -28.5 -99t-23.5 -113z" />
    <glyph glyph-name="quoteright" unicode="&#x2019;" horiz-adv-x="175" 
d="M95 685l59 10q-13 -53 -38.5 -123.5t-38.5 -93.5l-34 -5q12 32 28.5 99t23.5 113z" />
    <glyph glyph-name="quotesinglbase" unicode="&#x201a;" horiz-adv-x="175" 
d="M55 -121l-34 -5q12 32 28.5 99t23.5 113l59 10q-13 -53 -38.5 -123.5t-38.5 -93.5z" />
    <glyph glyph-name="quotedblleft" unicode="&#x201c;" horiz-adv-x="294" 
d="M102 483l-59 -10q13 53 38.5 123.5t38.5 93.5l34 5q-12 -32 -28.5 -99t-23.5 -113zM221 483l-59 -10q13 53 38.5 123.5t38.5 93.5l34 5q-12 -32 -28.5 -99t-23.5 -113z" />
    <glyph glyph-name="quotedblright" unicode="&#x201d;" horiz-adv-x="294" 
d="M95 685l59 10q-13 -53 -38.5 -123.5t-38.5 -93.5l-34 -5q12 32 28.5 99t23.5 113zM214 685l59 10q-13 -53 -38.5 -123.5t-38.5 -93.5l-34 -5q12 32 28.5 99t23.5 113z" />
    <glyph glyph-name="quotedblbase" unicode="&#x201e;" horiz-adv-x="294" 
d="M55 -121l-34 -5q12 32 28.5 99t23.5 113l59 10q-13 -53 -38.5 -123.5t-38.5 -93.5zM174 -121l-34 -5q12 32 28.5 99t23.5 113l59 10q-13 -53 -38.5 -123.5t-38.5 -93.5z" />
    <glyph glyph-name="dagger" unicode="&#x2020;" horiz-adv-x="530" 
d="M241 674h48l-4 -222l190 4v-44l-190 4l4 -466h-48l4 466l-190 -4v44l190 -4z" />
    <glyph glyph-name="daggerdbl" unicode="&#x2021;" horiz-adv-x="530" 
d="M241 674h48l-4 -212l190 4v-44l-190 4v-228l190 4v-44l-190 4l4 -212h-48l3 212l-189 -4v44l190 -4v228l-190 -4v44l190 -4z" />
    <glyph glyph-name="bullet" unicode="&#x2022;" horiz-adv-x="250" 
d="M125 176h-1q-36 0 -62 26t-26 63q-1 37 25.5 63t63.5 26t63.5 -26t26.5 -63t-26.5 -63t-63.5 -26z" />
    <glyph glyph-name="ellipsis" unicode="&#x2026;" horiz-adv-x="1000" 
d="M167 -12h-1q-18 0 -30 14t-11 32q0 20 12 33.5t31 13.5t30.5 -13.5t11.5 -33.5q0 -19 -12 -32.5t-31 -13.5zM500 -12h-1q-18 0 -30 14t-11 32q0 20 12 33.5t31 13.5t30.5 -13.5t11.5 -33.5q0 -19 -12 -32.5t-31 -13.5zM833 -12h-1q-18 0 -30 14t-11 32q0 20 12 33.5
t31 13.5t30.5 -13.5t11.5 -33.5q0 -19 -12 -32.5t-31 -13.5z" />
    <glyph glyph-name="perthousand" unicode="&#x2030;" horiz-adv-x="1130" 
d="M180 662h1q64 0 102 -49t38 -144q0 -100 -41.5 -153.5t-106.5 -53.5q-60 0 -101 49.5t-42 145.5q0 99 44.5 152t105.5 53zM176 628h-1q-45 0 -73.5 -45t-28.5 -121q-2 -76 26.5 -121t75.5 -45q51 0 77 44.5t26 124.5q0 163 -102 163zM203 -12h-41l403 674h41zM599 395h1
q64 0 102 -49t38 -144q0 -100 -41.5 -153.5t-106.5 -53.5q-60 0 -101 49.5t-42 145.5q0 99 44.5 152t105.5 53zM595 361h-1q-45 0 -73.5 -45t-28.5 -121q-2 -76 26.5 -121t75.5 -45q51 0 77 44.5t26 124.5q0 163 -102 163zM959 395h1q64 0 102 -49t38 -144
q0 -100 -41.5 -153.5t-106.5 -53.5q-60 0 -101 49.5t-42 145.5q0 99 44.5 152t105.5 53zM955 361h-1q-45 0 -73.5 -45t-28.5 -121q-2 -76 26.5 -121t75.5 -45q51 0 77 44.5t26 124.5q0 163 -102 163z" />
    <glyph glyph-name="guilsinglleft" unicode="&#x2039;" horiz-adv-x="260" 
d="M238 436l-156 -184l157 -184h-52l-157 184l156 184h52z" />
    <glyph glyph-name="guilsinglright" unicode="&#x203a;" horiz-adv-x="260" 
d="M178 252l-157 184h52l157 -184l-157 -184h-51z" />
    <glyph glyph-name="fraction" unicode="&#x2044;" horiz-adv-x="124" 
d="M-119 -12h-41l403 674h41z" />
    <glyph glyph-name="zero.superior" unicode="&#x2070;" horiz-adv-x="331" 
d="M162 446h-1q-59 0 -97 51.5t-38 146.5q0 96 40.5 149t102.5 53q63 0 99.5 -50.5t36.5 -143.5q0 -98 -37.5 -152t-105.5 -54zM164 480h1q47 0 71 44.5t24 124.5q0 163 -95 163q-42 0 -68 -44t-26 -119q0 -79 25 -124t68 -45z" />
    <glyph glyph-name="four.superior" unicode="&#x2074;" horiz-adv-x="341" 
d="M259 451h-43v108h-201v29l198 249h46v-243h61v-35h-61v-108zM216 594v149q0 17 2 49l-2 1q-16 -28 -30 -46l-123 -152v-1h153z" />
    <glyph glyph-name="five.superior" unicode="&#x2075;" horiz-adv-x="303" 
d="M262 837v-37h-162l-16 -106q20 2 39 2q47 0 81 -15q28 -12 47 -39.5t19 -66.5q0 -57 -42 -94t-105 -37q-61 0 -104 27l13 33q37 -24 92 -24q42 0 71.5 25.5t29.5 63.5q0 41 -29 66.5t-90 25.5q-23 0 -63 -5l25 181h194z" />
    <glyph glyph-name="six.superior" unicode="&#x2076;" horiz-adv-x="334" 
d="M265 846l1 -37q-29 0 -46 -3q-64 -10 -103 -51.5t-45 -97.5h1q37 53 107 53q57 0 92.5 -35.5t35.5 -91.5q0 -54 -37.5 -95.5t-99.5 -41.5q-63 0 -104 44t-41 122q0 111 71 175q49 44 126 55q34 4 42 4zM172 481h1q40 0 65 29t25 71q0 44 -26.5 69t-69.5 25
q-28 0 -52.5 -15t-37.5 -38q-7 -12 -7 -23q0 -50 26.5 -84t75.5 -34z" />
    <glyph glyph-name="seven.superior" unicode="&#x2077;" horiz-adv-x="291" 
d="M20 837h257v-31l-187 -355h-46l186 349v1h-210v36z" />
    <glyph glyph-name="eight.superior" unicode="&#x2078;" horiz-adv-x="328" 
d="M168 846h1q55 0 86.5 -27.5t31.5 -67.5q0 -63 -70 -91v-2q86 -28 86 -99q0 -51 -40.5 -82t-98.5 -31q-60 0 -99 30t-39 76q0 70 83 102v3q-68 26 -68 86q0 45 36 74t91 29zM163 479h1q43 0 68 21.5t25 52.5q0 37 -25 57t-77 31q-40 -8 -62 -30.5t-22 -52.5
q0 -32 25 -55.5t67 -23.5zM166 814h-1q-38 0 -59.5 -20t-21.5 -47q0 -58 88 -75q72 18 72 75q0 26 -19 46.5t-59 20.5z" />
    <glyph glyph-name="nine.superior" unicode="&#x2079;" horiz-adv-x="328" 
d="M63 446v37q15 -1 49 2q52 6 92 44q42 40 53 108h-2q-40 -49 -105 -49q-57 0 -90.5 35t-33.5 84q0 56 40 97.5t102 41.5q60 0 97 -43t37 -122q0 -120 -73 -184q-44 -38 -110 -47q-39 -5 -56 -4zM162 812h-1q-41 0 -66 -30.5t-25 -72.5q0 -37 25 -61.5t64 -24.5q62 0 93 47
q5 7 5 17q0 54 -24 89.5t-71 35.5z" />
    <glyph glyph-name="parenleft.superior" unicode="&#x207d;" horiz-adv-x="169" 
d="M125 875h37q-84 -104 -84 -245q0 -132 84 -242h-37q-86 106 -86 242t86 245z" />
    <glyph glyph-name="parenright.superior" unicode="&#x207e;" horiz-adv-x="169" 
d="M44 388h-36q84 108 84 244q0 135 -84 243h36q86 -106 86 -243q0 -135 -86 -244z" />
    <glyph glyph-name="zero.inferior" unicode="&#x2080;" horiz-adv-x="331" 
d="M162 -152h-1q-59 0 -97 51.5t-38 146.5q0 96 40.5 149t102.5 53q63 0 99.5 -50.5t36.5 -143.5q0 -98 -37.5 -152t-105.5 -54zM164 -118h1q47 0 71 44.5t24 124.5q0 163 -95 163q-42 0 -68 -44t-26 -119q0 -79 25 -124t68 -45z" />
    <glyph glyph-name="one.inferior" unicode="&#x2081;" horiz-adv-x="215" 
d="M143 -147h-41v350h-2l-65 -32l-9 33l79 39h38v-390z" />
    <glyph glyph-name="two.inferior" unicode="&#x2082;" horiz-adv-x="305" 
d="M14 -147v29l73 65q76 68 105 106t29 74t-22.5 61t-70.5 25q-41 0 -88 -34l-15 26q45 43 113 43q67 0 97.5 -35t30.5 -74q0 -55 -35.5 -100t-122.5 -119l-34 -29v-2h198v-36h-258z" />
    <glyph glyph-name="three.inferior" unicode="&#x2083;" horiz-adv-x="298" 
d="M50 184l-16 32q50 32 105 32q60 0 87.5 -27.5t27.5 -64.5q0 -30 -20.5 -54.5t-56.5 -37.5v-2q44 -7 69.5 -34.5t25.5 -64.5q0 -45 -39 -80t-111 -35q-73 0 -110 29l16 33q12 -10 40.5 -19t55.5 -9q56 0 80.5 26.5t23.5 54.5q-1 42 -38 62t-87 20h-32v33h34q39 0 71.5 19
t33.5 58q0 22 -18.5 40.5t-55.5 18.5q-51 0 -86 -30z" />
    <glyph glyph-name="four.inferior" unicode="&#x2084;" horiz-adv-x="341" 
d="M259 -147h-43v108h-201v29l198 249h46v-243h61v-35h-61v-108zM216 -4v149q0 17 2 49l-2 1q-16 -28 -30 -46l-123 -152v-1h153z" />
    <glyph glyph-name="five.inferior" unicode="&#x2085;" horiz-adv-x="303" 
d="M262 239v-37h-162l-16 -106q20 2 39 2q47 0 81 -15q28 -12 47 -39.5t19 -66.5q0 -57 -42 -94t-105 -37q-61 0 -104 27l13 33q37 -24 92 -24q42 0 71.5 25.5t29.5 63.5q0 41 -29 66.5t-90 25.5q-23 0 -63 -5l25 181h194z" />
    <glyph glyph-name="six.inferior" unicode="&#x2086;" horiz-adv-x="334" 
d="M265 248l1 -37q-29 0 -46 -3q-64 -10 -103 -51.5t-45 -97.5h1q37 53 107 53q57 0 92.5 -35.5t35.5 -91.5q0 -54 -37.5 -95.5t-99.5 -41.5q-63 0 -104 44t-41 122q0 111 71 175q49 44 126 55q34 4 42 4zM172 -117h1q40 0 65 29t25 71q0 44 -26.5 69t-69.5 25
q-28 0 -52.5 -15t-37.5 -38q-7 -12 -7 -23q0 -50 26.5 -84t75.5 -34z" />
    <glyph glyph-name="seven.inferior" unicode="&#x2087;" horiz-adv-x="291" 
d="M20 239h257v-31l-187 -355h-46l186 349v1h-210v36z" />
    <glyph glyph-name="eight.inferior" unicode="&#x2088;" horiz-adv-x="328" 
d="M168 248h1q55 0 86.5 -27.5t31.5 -67.5q0 -63 -70 -91v-2q86 -28 86 -99q0 -51 -40.5 -82t-98.5 -31q-60 0 -99 30t-39 76q0 70 83 102v3q-68 26 -68 86q0 45 36 74t91 29zM163 -119h1q43 0 68 21.5t25 52.5q0 37 -25 57t-77 31q-40 -8 -62 -30.5t-22 -52.5
q0 -32 25 -55.5t67 -23.5zM166 216h-1q-38 0 -59.5 -20t-21.5 -47q0 -58 88 -75q72 18 72 75q0 26 -19 46.5t-59 20.5z" />
    <glyph glyph-name="nine.inferior" unicode="&#x2089;" horiz-adv-x="328" 
d="M63 -152v37q15 -1 49 2q52 6 92 44q42 40 53 108h-2q-40 -49 -105 -49q-57 0 -90.5 35t-33.5 84q0 56 40 97.5t102 41.5q60 0 97 -43t37 -122q0 -120 -73 -184q-44 -38 -110 -47q-39 -5 -56 -4zM162 214h-1q-41 0 -66 -30.5t-25 -72.5q0 -37 25 -61.5t64 -24.5
q62 0 93 47q5 7 5 17q0 54 -24 89.5t-71 35.5z" />
    <glyph glyph-name="parenleft.inferior" unicode="&#x208d;" horiz-adv-x="169" 
d="M125 277h37q-84 -104 -84 -245q0 -132 84 -242h-37q-86 106 -86 242t86 245z" />
    <glyph glyph-name="parenright.inferior" unicode="&#x208e;" horiz-adv-x="169" 
d="M44 -210h-36q84 109 84 244t-84 243h36q86 -106 86 -243q0 -135 -86 -244z" />
    <glyph glyph-name="dong" unicode="&#x20ab;" horiz-adv-x="530" 
d="M96 91h338v-41h-338v41zM382 660h46v-75h68v-36h-68v-302q0 -39 3 -80h-44l-1 66h-1q-39 -75 -143 -75q-72 0 -119.5 48.5t-47.5 118.5q0 81 51.5 132t129.5 51q85 0 124 -63h2v104h-142v36h142v75zM382 316v39q0 20 -5 33q-11 35 -43 58t-77 23q-58 0 -94.5 -38
t-36.5 -102q0 -56 33.5 -94.5t93.5 -38.5q45 0 79.5 25.5t44.5 63.5q5 15 5 31z" />
    <glyph glyph-name="Euro" unicode="&#x20ac;" horiz-adv-x="530" 
d="M508 71l13 -35q-63 -48 -161 -48q-117 0 -195 78q-73 73 -87 193h-65v37h62v13q0 29 3 56h-65v37h71q19 111 93 182q81 78 197 78q80 0 138 -35l-15 -38q-52 33 -127 33q-92 0 -157 -60q-60 -57 -80 -160h337v-37h-343q-3 -25 -3 -52v-17h346v-37h-343q13 -105 75 -165
q66 -64 163 -64q75 0 143 41z" />
    <glyph glyph-name="afii61289" unicode="&#x2113;" horiz-adv-x="510" 
d="M166 528v-281q174 163 174 317q0 114 -85 114q-37 0 -63 -39t-26 -111zM451 142l30 -24q-36 -66 -85 -96.5t-118 -30.5q-77 0 -117 48.5t-43 115.5v7q-14 -10 -65 -44l-18 32q59 41 83 61v304q0 101 42 152t109 51q57 0 89 -42.5t32 -109.5q0 -178 -224 -372v-9
q4 -151 125 -151q54 0 94.5 33t65.5 75z" />
    <glyph glyph-name="afii61352" unicode="&#x2116;" horiz-adv-x="952" 
d="M758 635h1q73 0 115.5 -47.5t42.5 -125.5q0 -88 -47.5 -132.5t-111.5 -44.5q-70 0 -114.5 46.5t-44.5 125.5q0 83 47 130.5t112 47.5zM758 600h-1q-54 0 -83.5 -41.5t-29.5 -100.5q0 -63 34 -100.5t80 -37.5q49 0 81.5 37.5t32.5 102.5q0 56 -28.5 98t-85.5 42zM889 202
h-261v39h261v-39zM131 0h-46v650h56l235 -387q91 -150 117 -202l1 2q-8 97 -8 261v326h46v-650h-51l-231 379q-87 141 -120 209l-3 -1q4 -105 4 -254v-333z" />
    <glyph glyph-name="trademark" unicode="&#x2122;" horiz-adv-x="636" 
d="M35 674h237v-32h-100v-240h-37v240h-100v32zM626 402h-40l-14 185q-1 21 -3 58h-2q-4 -9 -12.5 -33.5t-11.5 -31.5l-68 -174h-43l-69 179q-3 8 -11 30t-11 30h-2q0 -16 -2 -58l-14 -185h-38l24 272h55l70 -176q6 -15 20 -57h2q4 11 10.5 30.5t8.5 24.5l70 178h55z" />
    </font>
</defs>
</svg>
