<?xml version="1.0" encoding="UTF-8" standalone="no"?>
<!-- Created with Inkscape (http://www.inkscape.org/) -->

<svg
   xmlns:dc="http://purl.org/dc/elements/1.1/"
   xmlns:cc="http://creativecommons.org/ns#"
   xmlns:rdf="http://www.w3.org/1999/02/22-rdf-syntax-ns#"
   xmlns:svg="http://www.w3.org/2000/svg"
   xmlns="http://www.w3.org/2000/svg"
   xmlns:sodipodi="http://sodipodi.sourceforge.net/DTD/sodipodi-0.dtd"
   xmlns:inkscape="http://www.inkscape.org/namespaces/inkscape"
   width="10.758378mm"
   height="10.845323mm"
   viewBox="0 0 10.758378 10.845323"
   version="1.1"
   id="svg55"
   inkscape:version="0.92.4 (5da689c313, 2019-01-14)"
   sodipodi:docname="dribbble.svg">
  <defs
     id="defs49" />
  <sodipodi:namedview
     id="base"
     pagecolor="#ffffff"
     bordercolor="#666666"
     borderopacity="1.0"
     inkscape:pageopacity="0.0"
     inkscape:pageshadow="2"
     inkscape:zoom="0.35"
     inkscape:cx="152.74037"
     inkscape:cy="-222.49227"
     inkscape:document-units="mm"
     inkscape:current-layer="layer1"
     showgrid="false"
     fit-margin-top="0"
     fit-margin-left="0"
     fit-margin-right="0"
     fit-margin-bottom="0"
     inkscape:window-width="1366"
     inkscape:window-height="745"
     inkscape:window-x="-8"
     inkscape:window-y="-8"
     inkscape:window-maximized="1" />
  <metadata
     id="metadata52">
    <rdf:RDF>
      <cc:Work
         rdf:about="">
        <dc:format>image/svg+xml</dc:format>
        <dc:type
           rdf:resource="http://purl.org/dc/dcmitype/StillImage" />
        <dc:title></dc:title>
      </cc:Work>
    </rdf:RDF>
  </metadata>
  <g
     inkscape:label="Layer 1"
     inkscape:groupmode="layer"
     id="layer1"
     transform="translate(-52.191607,-79.120264)">
    <path
       style="fill:#000000;stroke-width:0.26458338"
       d="m 55.05726,89.371878 c -1.76483,-0.94309 -2.73045,-2.467548 -2.8527,-4.503667 -0.12332,-2.05414 0.63362,-3.649167 2.28314,-4.811009 1.57007,-1.105881 3.90184,-1.248881 5.59664,-0.343224 1.76483,0.943081 2.73045,2.467543 2.85269,4.503662 0.12333,2.05414 -0.63362,3.649167 -2.28313,4.811008 -1.57007,1.10588 -3.90185,1.24888 -5.59664,0.34323 z m 4.15258,-0.55896 c 0.1514,-0.15141 -0.56328,-3.017839 -0.81525,-3.269812 -0.38531,-0.385311 -3.60192,1.916102 -3.60192,2.577092 0,0.43536 2.01877,1.05117 3.12193,0.95233 0.62565,-0.0561 1.20851,-0.17288 1.29524,-0.25961 z m 2.13127,-1.74983 c 0.86497,-1.276613 0.77892,-1.759672 -0.34598,-1.942219 -1.56315,-0.253664 -1.68721,-0.09363 -1.20281,1.551631 0.23337,0.792664 0.54337,1.402508 0.6889,1.35521 0.14552,-0.0473 0.53247,-0.481378 0.85989,-0.964622 z m -6.00342,-0.921885 c 0.69374,-0.648916 1.57448,-1.258437 1.95719,-1.354492 0.85095,-0.213575 0.73285,-0.792057 -0.14773,-0.723641 -3.00374,0.233373 -4.20656,0.45557 -4.20656,0.777079 0,0.460838 0.80893,2.480902 0.99348,2.480902 0.0782,0 0.70988,-0.530932 1.40362,-1.179848 z m 6.86332,-1.989798 c 0,-0.465142 -0.8556,-2.410675 -1.02532,-2.331464 -0.69402,0.323909 -2.39614,1.726317 -2.40422,1.980884 -0.006,0.188954 0.49578,0.356117 1.24672,0.41533 0.69123,0.0545 1.46514,0.120558 1.7198,0.146788 0.25466,0.02623 0.46302,-0.06896 0.46302,-0.211538 z m -5.88698,-0.961792 c 0.47294,-0.08843 0.85989,-0.215381 0.85989,-0.282108 0,-0.06673 -0.36797,-0.656149 -0.81771,-1.30983 -0.76766,-1.115748 -0.8527,-1.165601 -1.38907,-0.814311 -0.69102,0.452578 -1.76197,1.971681 -1.76197,2.499292 0,0.38417 0.6628,0.364333 3.10886,-0.09304 z m 2.94282,-1.010492 c 0.40356,-0.208686 0.88805,-0.565359 1.07665,-0.792606 0.29614,-0.356836 0.18528,-0.484699 -0.81302,-0.937677 -1.07459,-0.487593 -2.87572,-0.72895 -2.87572,-0.385355 0,0.22212 1.59024,2.495067 1.74564,2.495067 0.073,0 0.4629,-0.170743 0.86645,-0.379429 z"
       id="path47"
       inkscape:connector-curvature="0" />
  </g>
</svg>
