<?xml version="1.0" encoding="UTF-8" standalone="no"?>
<!-- Created with Inkscape (http://www.inkscape.org/) -->

<svg
   xmlns:dc="http://purl.org/dc/elements/1.1/"
   xmlns:cc="http://creativecommons.org/ns#"
   xmlns:rdf="http://www.w3.org/1999/02/22-rdf-syntax-ns#"
   xmlns:svg="http://www.w3.org/2000/svg"
   xmlns="http://www.w3.org/2000/svg"
   xmlns:sodipodi="http://sodipodi.sourceforge.net/DTD/sodipodi-0.dtd"
   xmlns:inkscape="http://www.inkscape.org/namespaces/inkscape"
   width="5.2916698mm"
   height="10.847914mm"
   viewBox="0 0 5.2916697 10.847914"
   version="1.1"
   id="svg55"
   inkscape:version="0.92.4 (5da689c313, 2019-01-14)"
   sodipodi:docname="facebook.svg">
  <defs
     id="defs49" />
  <sodipodi:namedview
     id="base"
     pagecolor="#ffffff"
     bordercolor="#666666"
     borderopacity="1.0"
     inkscape:pageopacity="0.0"
     inkscape:pageshadow="2"
     inkscape:zoom="0.35"
     inkscape:cx="-844.73328"
     inkscape:cy="-177.27308"
     inkscape:document-units="mm"
     inkscape:current-layer="layer1"
     showgrid="false"
     fit-margin-top="0"
     fit-margin-left="0"
     fit-margin-right="0"
     fit-margin-bottom="0"
     inkscape:window-width="1366"
     inkscape:window-height="745"
     inkscape:window-x="-8"
     inkscape:window-y="-8"
     inkscape:window-maximized="1" />
  <metadata
     id="metadata52">
    <rdf:RDF>
      <cc:Work
         rdf:about="">
        <dc:format>image/svg+xml</dc:format>
        <dc:type
           rdf:resource="http://purl.org/dc/dcmitype/StillImage" />
        <dc:title></dc:title>
      </cc:Work>
    </rdf:RDF>
  </metadata>
  <g
     inkscape:label="Layer 1"
     inkscape:groupmode="layer"
     id="layer1"
     transform="translate(-316.10651,-91.081916)">
    <path
       style="fill:#000000;stroke-width:0.26458332"
       d="m 317.16484,99.283996 c 0,-2.46944 -0.0353,-2.64583 -0.52916,-2.64583 -0.44098,0 -0.52917,-0.17639 -0.52917,-1.05833 0,-0.85741 0.0939,-1.05834 0.49476,-1.05834 0.39338,0 0.52354,-0.25536 0.63523,-1.24633 0.18738,-1.66235 0.8496,-2.19325 2.73578,-2.19325 h 1.4259 v 0.90928 c 0,0.83245 -0.0726,0.91628 -0.8599,0.99219 -0.71651,0.0691 -0.87385,0.20423 -0.94361,0.81051 -0.0777,0.67539 -0.0149,0.7276 0.87586,0.7276 0.94707,0 0.95852,0.013 0.87747,0.99219 -0.075,0.90582 -0.15696,0.99941 -0.94201,1.0751 l -0.8599,0.0829 v 2.62907 2.629074 h -1.19062 -1.19063 z"
       id="path45"
       inkscape:connector-curvature="0" />
  </g>
</svg>
