<?xml version="1.0" encoding="UTF-8" standalone="no"?>
<!-- Created with Inkscape (http://www.inkscape.org/) -->

<svg
   xmlns:dc="http://purl.org/dc/elements/1.1/"
   xmlns:cc="http://creativecommons.org/ns#"
   xmlns:rdf="http://www.w3.org/1999/02/22-rdf-syntax-ns#"
   xmlns:svg="http://www.w3.org/2000/svg"
   xmlns="http://www.w3.org/2000/svg"
   xmlns:sodipodi="http://sodipodi.sourceforge.net/DTD/sodipodi-0.dtd"
   xmlns:inkscape="http://www.inkscape.org/namespaces/inkscape"
   width="12.61435mm"
   height="10.24984mm"
   viewBox="0 0 12.61435 10.24984"
   version="1.1"
   id="svg55"
   inkscape:version="0.92.4 (5da689c313, 2019-01-14)"
   sodipodi:docname="twitter.svg">
  <defs
     id="defs49" />
  <sodipodi:namedview
     id="base"
     pagecolor="#ffffff"
     bordercolor="#666666"
     borderopacity="1.0"
     inkscape:pageopacity="0.0"
     inkscape:pageshadow="2"
     inkscape:zoom="0.35"
     inkscape:cx="-90.447569"
     inkscape:cy="-103.48737"
     inkscape:document-units="mm"
     inkscape:current-layer="layer1"
     showgrid="false"
     fit-margin-top="0"
     fit-margin-left="0"
     fit-margin-right="0"
     fit-margin-bottom="0"
     inkscape:window-width="1366"
     inkscape:window-height="745"
     inkscape:window-x="-8"
     inkscape:window-y="-8"
     inkscape:window-maximized="1" />
  <metadata
     id="metadata52">
    <rdf:RDF>
      <cc:Work
         rdf:about="">
        <dc:format>image/svg+xml</dc:format>
        <dc:type
           rdf:resource="http://purl.org/dc/dcmitype/StillImage" />
        <dc:title></dc:title>
      </cc:Work>
    </rdf:RDF>
  </metadata>
  <g
     inkscape:label="Layer 1"
     inkscape:groupmode="layer"
     id="layer1"
     transform="translate(-129.76425,-111.20246)">
    <path
       style="fill:#000000;stroke-width:0.26458332"
       d="m 130.84898,121.09722 c -1.35998,-0.50053 -1.45344,-0.89892 -0.21088,-0.89892 0.98148,0 2.26141,-0.47329 2.26141,-0.83622 0,-0.12216 -0.15784,-0.22212 -0.35076,-0.22212 -0.52918,0 -1.70882,-1.36865 -1.30416,-1.51312 0.21405,-0.0764 0.0519,-0.39521 -0.46302,-0.9101 -0.85201,-0.85201 -1.05347,-1.81011 -0.3806,-1.81011 0.37278,0 0.37278,-0.0558 0,-0.58804 -0.41133,-0.58724 -0.56254,-2.08352 -0.24287,-2.40319 0.093,-0.093 0.52557,0.13101 0.96137,0.49771 1.05743,0.88977 2.48605,1.5883 3.69826,1.80828 0.97312,0.17659 0.99219,0.16418 0.99219,-0.64604 0,-1.2242 1.24247,-2.37289 2.56661,-2.37289 0.5609,0 1.27546,0.17906 1.58791,0.39791 0.43059,0.3016 0.73719,0.33362 1.26672,0.1323 0.969,-0.36842 0.9957,-0.34917 0.52085,0.37555 -0.4065,0.62039 -0.40027,0.63632 0.19234,0.49142 0.59821,-0.14626 0.59553,-0.13162 -0.11516,0.63008 -0.40018,0.4289 -0.7276,1.07952 -0.7276,1.44582 0,2.06936 -1.97057,5.0282 -4.06712,6.10682 -1.43677,0.73918 -4.59565,0.89998 -6.18549,0.31486 z"
       id="path43"
       inkscape:connector-curvature="0" />
  </g>
</svg>
