<svg id="location-icon-my-location" viewBox="0 0 32 32" version="1.1" xmlns="http://www.w3.org/2000/svg" xmlns:xlink="http://www.w3.org/1999/xlink">
<path fill="currentColor" d="M16.061 0c-0.834 0.017-1.587 1.163-1.587 2.777 0 1.429-0.342 1.813-1.891 2.122-2.623 0.525-6.231 4.037-7.261 7.068-0.771 2.27-1.103 2.554-3.18 2.732-1.776 0.152-2.271 0.449-2.116 1.267 0.137 0.722 0.947 1.131 2.5 1.261 1.959 0.164 2.352 0.46 2.662 2.007 0.534 2.671 3.951 6.223 6.81 7.080 2.203 0.66 2.476 0.963 2.476 2.753 0 1.106 0.19 2.202 0.422 2.434 1.357 1.357 2.746-0.194 2.746-3.064 0-1.142 0.45-1.581 1.965-1.913 2.516-0.553 6.651-4.671 7.2-7.172 0.367-1.673 0.734-1.956 2.757-2.125 3.103-0.258 3.201-1.969 0.137-2.411-1.855-0.268-2.293-0.656-2.822-2.505-0.795-2.782-4.906-6.925-7.357-7.415-1.523-0.305-1.881-0.699-1.881-2.072 0-0.932-0.336-2.031-0.746-2.44-0.271-0.271-0.557-0.391-0.835-0.386zM14 6.584c0.261-0.001 0.475 0.862 0.475 1.918 0 1.177 0.392 2.072 1.014 2.31 1.185 0.455 2.131-0.782 2.145-2.806 0.012-1.79 0.548-1.788 3.242 0.012 2.158 1.442 4.6 5.281 3.989 6.271-0.179 0.29-1.186 0.528-2.236 0.528-2.734 0-2.274 2.141 0.518 2.412 1.908 0.185 1.976 0.286 1.385 1.983-0.753 2.16-2.789 4.159-5.146 5.052-1.576 0.597-1.743 0.525-1.752-0.75-0.014-2.009-0.963-3.243-2.145-2.789-0.621 0.239-1.014 1.134-1.014 2.31 0 2.262-0.283 2.324-3.016 0.657-1.819-1.109-4.58-4.614-4.586-5.824-0.001-0.239 0.922-0.524 2.052-0.634 1.353-0.131 2.126-0.578 2.265-1.308 0.168-0.888-0.24-1.109-2.054-1.109-2.621 0-2.808-0.684-1-3.649 1.126-1.847 4.621-4.578 5.865-4.585z"></path>
</svg>
