<svg id="location-icon-pin" viewBox="0 0 22 32" version="1.1" xmlns="http://www.w3.org/2000/svg" xmlns:xlink="http://www.w3.org/1999/xlink">
<path fill="currentColor" d="M11.172 0c-3.879-0.021-7.652 2.096-9.802 6.265-1.31 2.541-1.561 3.888-1.25 6.708 0.524 4.753 3.993 11.568 7.975 15.665l3.268 3.362 3.367-3.663c4.929-5.36 7.298-10.7 7.339-16.541 0.026-3.698-0.282-5.142-1.424-6.674-2.546-3.415-6.051-5.103-9.473-5.123zM11.132 7.023c1.255-0.059 2.504 0.55 3.494 1.809 1.899 2.414 1.848 3.476-0.269 5.594s-3.18 2.168-5.594 0.269c-2.239-1.761-2.422-4.338-0.449-6.312 0.863-0.863 1.842-1.314 2.818-1.36z"></path>
</svg>
